<svg width="19" height="19" viewBox="0 0 19 19" fill="none" xmlns="http://www.w3.org/2000/svg">
<mask id="mask0_3121_10683" style="mask-type:alpha" maskUnits="userSpaceOnUse" x="0" y="0" width="19" height="19">
<g clip-path="url(#clip0_3121_10683)">
<g clip-path="url(#clip1_3121_10683)">
<path d="M18.1921 5.80489L16.0983 12.3981C16.0287 12.6243 15.8886 12.8222 15.6985 12.9631C15.5084 13.104 15.2782 13.1804 15.0416 13.1811H6.96196C6.73076 13.1823 6.50454 13.114 6.31262 12.9851C6.12071 12.8562 5.97195 12.6725 5.88564 12.4581L2.79405 4.18111H1.0143C0.8117 4.17375 0.619855 4.08809 0.479128 3.94216C0.338402 3.79622 0.259766 3.6014 0.259766 3.39866C0.259766 3.19593 0.338402 3.0011 0.479128 2.85517C0.619855 2.70923 0.8117 2.62357 1.0143 2.61621H3.34254C3.50546 2.61818 3.66392 2.66975 3.79679 2.76405C3.92966 2.85835 4.03063 2.9909 4.08626 3.14404L7.27494 11.6141H14.7121L16.3751 6.33169H7.15719C7.05204 6.33551 6.94721 6.3181 6.84894 6.2805C6.75068 6.2429 6.661 6.18588 6.58526 6.11285C6.50952 6.03981 6.44928 5.95226 6.40814 5.85543C6.36699 5.75859 6.34579 5.65446 6.34579 5.54924C6.34579 5.44403 6.36699 5.33989 6.40814 5.24306C6.44928 5.14622 6.50952 5.05867 6.58526 4.98564C6.661 4.9126 6.75068 4.85558 6.84894 4.81798C6.94721 4.78038 7.05204 4.76297 7.15719 4.76679H17.4484C17.5716 4.76867 17.6926 4.79981 17.8014 4.85764C17.9103 4.91547 18.0038 4.99833 18.0743 5.0994C18.1504 5.19827 18.2009 5.31436 18.2215 5.43741C18.242 5.56046 18.2319 5.68668 18.1921 5.80489ZM7.35345 14.2182C7.05983 14.2186 6.77546 14.3209 6.54875 14.5074C6.32204 14.694 6.16701 14.9534 6.11006 15.2415C6.05312 15.5295 6.09778 15.8284 6.23644 16.0872C6.37509 16.346 6.59918 16.5487 6.87053 16.6609C7.14188 16.773 7.44371 16.7877 7.72464 16.7023C8.00556 16.6169 8.2482 16.4368 8.41123 16.1926C8.57427 15.9484 8.64762 15.6552 8.61879 15.363C8.58996 15.0708 8.46074 14.7977 8.25314 14.59C8.01331 14.3534 7.6904 14.2199 7.35345 14.2182ZM14.3774 14.2182C14.0838 14.2186 13.7994 14.3209 13.5727 14.5074C13.346 14.694 13.191 14.9534 13.1341 15.2415C13.0771 15.5295 13.1218 15.8284 13.2604 16.0872C13.3991 16.346 13.6232 16.5487 13.8945 16.6609C14.1659 16.773 14.4677 16.7877 14.7486 16.7023C15.0295 16.6169 15.2722 16.4368 15.4352 16.1926C15.5983 15.9484 15.6716 15.6552 15.6428 15.363C15.614 15.0708 15.4847 14.7977 15.2771 14.59C15.0373 14.3534 14.7144 14.2199 14.3774 14.2182Z" fill="black"/>
</g>
</g>
</mask>
<g mask="url(#mask0_3121_10683)">
<rect x="0.230469" y="0.689453" width="18" height="18" fill="white"/>
</g>
<defs>
<clipPath id="clip0_3121_10683">
<rect width="18" height="18" fill="white" transform="translate(0.230469 0.689453)"/>
</clipPath>
<clipPath id="clip1_3121_10683">
<rect width="18" height="14.1461" fill="white" transform="translate(0.230469 2.61621)"/>
</clipPath>
</defs>
</svg>
