<svg width="17" height="17" viewBox="0 0 17 17" fill="none" xmlns="http://www.w3.org/2000/svg">
<g clip-path="url(#clip0_3121_6361)">
<path d="M7.79199 7.79163V4.95829H9.20866V7.79163H12.042V9.20829H9.20866V12.0416H7.79199V9.20829H4.95866V7.79163H7.79199ZM8.50033 15.5833C4.5882 15.5833 1.41699 12.4121 1.41699 8.49996C1.41699 4.58783 4.5882 1.41663 8.50033 1.41663C12.4124 1.41663 15.5837 4.58783 15.5837 8.49996C15.5837 12.4121 12.4124 15.5833 8.50033 15.5833ZM8.50033 14.1666C10.0032 14.1666 11.4446 13.5696 12.5073 12.5069C13.57 11.4442 14.167 10.0029 14.167 8.49996C14.167 6.99707 13.57 5.55573 12.5073 4.49302C11.4446 3.43031 10.0032 2.83329 8.50033 2.83329C6.99743 2.83329 5.55609 3.43031 4.49339 4.49302C3.43068 5.55573 2.83366 6.99707 2.83366 8.49996C2.83366 10.0029 3.43068 11.4442 4.49339 12.5069C5.55609 13.5696 6.99743 14.1666 8.50033 14.1666Z" fill="white"/>
</g>
<defs>
<clipPath id="clip0_3121_6361">
<rect width="17" height="17" fill="white"/>
</clipPath>
</defs>
</svg>
