<svg width="17" height="17" viewBox="0 0 17 17" fill="none" xmlns="http://www.w3.org/2000/svg">
<g id="Group">
<path id="Vector" d="M13.0078 12.3002L8.5 16.808L3.99217 12.3002C3.10062 11.4086 2.49347 10.2727 2.24749 9.03609C2.00152 7.79946 2.12777 6.51767 2.61028 5.35279C3.09279 4.18792 3.90989 3.19229 4.95825 2.4918C6.00661 1.7913 7.23915 1.41742 8.5 1.41742C9.76086 1.41742 10.9934 1.7913 12.0418 2.4918C13.0901 3.19229 13.9072 4.18792 14.3897 5.35279C14.8722 6.51767 14.9985 7.79946 14.7525 9.03609C14.5065 10.2727 13.8994 11.4086 13.0078 12.3002ZM7.79167 7.08403H5.66667V8.5007H7.79167V10.6257H9.20834V8.5007H11.3333V7.08403H9.20834V4.95903H7.79167V7.08403Z" fill="url(#paint0_linear_98_2831)"/>
</g>
<defs>
<linearGradient id="paint0_linear_98_2831" x1="14.875" y1="1.41742" x2="1.15918" y2="11.7751" gradientUnits="userSpaceOnUse">
<stop stop-color="#158942"/>
<stop offset="1" stop-color="#00702B"/>
</linearGradient>
</defs>
</svg>
