<svg width="8" height="9" viewBox="0 0 8 9" fill="none" xmlns="http://www.w3.org/2000/svg">
<g id="SVG" clip-path="url(#clip0_0_413)">
<path id="Vector" d="M6.22234 4.18784L2.66224 0.627804C2.5799 0.545398 2.46999 0.5 2.35278 0.5C2.23558 0.5 2.12566 0.545398 2.04332 0.627804L1.78115 0.889915C1.61055 1.06071 1.61055 1.3383 1.78115 1.50884L4.77065 4.49834L1.77783 7.49116C1.69549 7.57357 1.65002 7.68342 1.65002 7.80056C1.65002 7.91783 1.69549 8.02768 1.77783 8.11015L2.04 8.3722C2.12241 8.4546 2.23226 8.5 2.34947 8.5C2.46667 8.5 2.57659 8.4546 2.65893 8.3722L6.22234 4.80891C6.30488 4.72624 6.35021 4.61587 6.34995 4.49854C6.35021 4.38075 6.30488 4.27044 6.22234 4.18784Z" fill="white"/>
</g>
<defs>
<clipPath id="clip0_0_413">
<rect width="8" height="8" fill="white" transform="translate(0 0.5)"/>
</clipPath>
</defs>
</svg>
