<svg width="8" height="17" viewBox="0 0 8 17" fill="none" xmlns="http://www.w3.org/2000/svg">
<g clip-path="url(#clip0_0_1781)">
<path d="M6.22247 8.18784L2.66237 4.6278C2.58003 4.5454 2.47011 4.5 2.3529 4.5C2.2357 4.5 2.12578 4.5454 2.04344 4.6278L1.78127 4.88992C1.61067 5.06071 1.61067 5.3383 1.78127 5.50884L4.77077 8.49834L1.77795 11.4912C1.69561 11.5736 1.65015 11.6834 1.65015 11.8006C1.65015 11.9178 1.69561 12.0277 1.77795 12.1101L2.04013 12.3722C2.12253 12.4546 2.23239 12.5 2.34959 12.5C2.46679 12.5 2.57671 12.4546 2.65905 12.3722L6.22247 8.80891C6.305 8.72624 6.35034 8.61587 6.35008 8.49854C6.35034 8.38075 6.305 8.27044 6.22247 8.18784Z" fill="#000401"/>
</g>
<defs>
<clipPath id="clip0_0_1781">
<rect width="8" height="8" fill="white" transform="translate(0 4.5)"/>
</clipPath>
</defs>
</svg>
