<svg width="8" height="9" viewBox="0 0 8 9" fill="none" xmlns="http://www.w3.org/2000/svg">
<g clip-path="url(#clip0_3121_10930)">
<path d="M6.22271 4.18784L2.66261 0.627804C2.58027 0.545398 2.47035 0.5 2.35315 0.5C2.23595 0.5 2.12603 0.545398 2.04369 0.627804L1.78151 0.889915C1.61091 1.06071 1.61091 1.3383 1.78151 1.50884L4.77102 4.49834L1.77819 7.49116C1.69585 7.57357 1.65039 7.68342 1.65039 7.80056C1.65039 7.91783 1.69585 8.02768 1.77819 8.11015L2.04037 8.3722C2.12278 8.4546 2.23263 8.5 2.34983 8.5C2.46703 8.5 2.57695 8.4546 2.65929 8.3722L6.22271 4.80891C6.30525 4.72624 6.35058 4.61587 6.35032 4.49854C6.35058 4.38075 6.30525 4.27044 6.22271 4.18784Z" fill="#000401"/>
</g>
<defs>
<clipPath id="clip0_3121_10930">
<rect width="8" height="8" fill="white" transform="translate(0 0.5)"/>
</clipPath>
</defs>
</svg>
