<svg width="13" height="12" viewBox="0 0 13 12" fill="none" xmlns="http://www.w3.org/2000/svg">
<path d="M11.7228 2.13556H0.618414C0.454774 2.13556 0.297837 2.0706 0.182126 1.95496C0.066415 1.83933 0.0014093 1.68249 0.0014093 1.51895C0.0014093 1.35542 0.066415 1.19858 0.182126 1.08294C0.297837 0.967308 0.454774 0.902344 0.618414 0.902344H11.7228C11.8865 0.902344 12.0434 0.967308 12.1591 1.08294C12.2748 1.19858 12.3398 1.35542 12.3398 1.51895C12.3398 1.68249 12.2748 1.83933 12.1591 1.95496C12.0434 2.0706 11.8865 2.13556 11.7228 2.13556ZM7.62066 4.81706C7.62022 4.65367 7.55507 4.49709 7.43946 4.38155C7.32384 4.266 7.16716 4.2009 7.00366 4.20045H0.615052C0.451412 4.20045 0.294474 4.26542 0.178763 4.38106C0.0630526 4.49669 -0.00195312 4.65353 -0.00195312 4.81706C-0.00195312 4.9806 0.0630526 5.13744 0.178763 5.25307C0.294474 5.36871 0.451412 5.43368 0.615052 5.43368H7.00366C7.16716 5.43323 7.32384 5.36813 7.43946 5.25258C7.55507 5.13704 7.62022 4.98046 7.62066 4.81706ZM9.50026 8.10005C9.49981 7.93666 9.43467 7.78007 9.31905 7.66453C9.20344 7.54899 9.04676 7.48389 8.88325 7.48344H0.618414C0.454774 7.48344 0.297837 7.54841 0.182126 7.66404C0.066415 7.77968 0.0014093 7.93652 0.0014093 8.10005C0.0014093 8.26359 0.066415 8.42043 0.182126 8.53606C0.297837 8.6517 0.454774 8.71666 0.618414 8.71666H8.88493C9.04815 8.71578 9.2044 8.65048 9.31965 8.53498C9.4349 8.41949 9.49982 8.26316 9.50026 8.10005ZM11.7825 11.383C11.7821 11.2196 11.7169 11.0631 11.6013 10.9475C11.4857 10.832 11.329 10.7669 11.1655 10.7664H0.664648C0.501008 10.7664 0.34407 10.8314 0.228359 10.947C0.112648 11.0627 0.0476426 11.2195 0.0476426 11.383C0.0476426 11.5466 0.112648 11.7034 0.228359 11.8191C0.34407 11.9347 0.501008 11.9997 0.664648 11.9997H11.1672C11.3307 11.9992 11.4874 11.9341 11.603 11.8186C11.7186 11.703 11.7837 11.5464 11.7842 11.383H11.7825Z" fill="#2B2F2C"/>
</svg>
