<svg width="160" height="154" viewBox="0 0 160 154" fill="none" xmlns="http://www.w3.org/2000/svg">
<path d="M65.7673 67.9836C63.3987 67.9836 61.0437 69.6786 55.1562 73.0685C43.3949 79.8483 44.5451 77.8526 44.5451 91.4122C44.5451 104.972 43.3949 102.976 55.1562 109.756C66.9175 116.536 64.6172 116.536 76.3785 109.756C88.1397 102.976 86.9896 104.972 86.9896 91.4122C86.9896 77.8526 88.1397 79.8483 76.3785 73.0685C70.5047 69.6786 68.136 67.9836 65.7673 67.9836Z" fill="#E39F17" fill-opacity="0.9"/>
<path d="M43.3429 107.143C40.9742 107.143 38.6192 108.838 32.7317 112.228C20.9705 119.007 22.1206 117.012 22.1206 130.571C22.1206 144.131 20.9705 142.135 32.7317 148.915C44.493 155.695 42.1927 155.695 53.954 148.915C65.7153 142.135 64.5651 144.131 64.5651 130.571C64.5651 117.012 65.7153 119.007 53.954 112.228C48.0802 108.838 45.7115 107.143 43.3429 107.143Z" fill="#E39F17" fill-opacity="0.37"/>
<path d="M43.3429 28.8245C40.9742 28.8245 38.6192 30.5194 32.7317 33.9093C20.9705 40.6891 22.1206 38.6934 22.1206 52.253C22.1206 65.8126 20.9705 63.817 32.7317 70.5968C44.493 77.3766 42.1927 77.3766 53.954 70.5968C65.7153 63.817 64.5651 65.8126 64.5651 52.253C64.5651 38.6934 65.7153 40.6891 53.954 33.9093C48.0802 30.5194 45.7115 28.8245 43.3429 28.8245Z" fill="#E39F17" fill-opacity="0.9"/>
<path d="M21.2531 -10C18.8844 -10 16.5294 -8.30505 10.6419 -4.91515C-1.11933 1.86465 0.0307764 -0.131021 0.0307764 13.4286C0.0307764 26.9882 -1.11933 24.9925 10.6419 31.7723C22.4032 38.5521 20.1029 38.5521 31.8642 31.7723C43.6255 24.9925 42.4753 26.9882 42.4753 13.4286C42.4753 -0.131021 43.6255 1.86465 31.8642 -4.91515C25.9904 -8.30505 23.6217 -10 21.2531 -10Z" fill="#E39F17" fill-opacity="0.37"/>
<path d="M154.796 67.9836C152.427 67.9836 150.072 69.6786 144.185 73.0685C132.424 79.8483 133.574 77.8526 133.574 91.4122C133.574 104.972 132.424 102.976 144.185 109.756C155.946 116.536 153.646 116.536 165.407 109.756C177.168 102.976 176.018 104.972 176.018 91.4122C176.018 77.8526 177.168 79.8483 165.407 73.0685C159.533 69.6786 157.165 67.9836 154.796 67.9836Z" fill="#E39F17" fill-opacity="0.37"/>
<path d="M87.8571 107.143C85.4885 107.143 83.1335 108.838 77.246 112.228C65.4847 119.007 66.6349 117.012 66.6349 130.571C66.6349 144.131 65.4847 142.135 77.246 148.915C89.0073 155.695 86.707 155.695 98.4683 148.915C110.23 142.135 109.079 144.131 109.079 130.571C109.079 117.012 110.23 119.007 98.4683 112.228C92.5945 108.838 90.2258 107.143 87.8571 107.143Z" fill="#E39F17" fill-opacity="0.37"/>
<path d="M132.371 107.143C130.003 107.143 127.648 108.838 121.76 112.228C109.999 119.007 111.149 117.012 111.149 130.571C111.149 144.131 109.999 142.135 121.76 148.915C133.522 155.695 131.221 155.695 142.983 148.915C154.744 142.135 153.594 144.131 153.594 130.571C153.594 117.012 154.744 119.007 142.983 112.228C137.109 108.838 134.74 107.143 132.371 107.143Z" fill="#E39F17" fill-opacity="0.37"/>
<path d="M87.8571 28.8245C85.4885 28.8245 83.1335 30.5194 77.246 33.9093C65.4847 40.6891 66.6349 38.6934 66.6349 52.253C66.6349 65.8126 65.4847 63.817 77.246 70.5968C89.0073 77.3766 86.707 77.3766 98.4683 70.5968C110.23 63.817 109.079 65.8126 109.079 52.253C109.079 38.6934 110.23 40.6891 98.4683 33.9093C92.5945 30.5194 90.2258 28.8245 87.8571 28.8245Z" fill="#E39F17" fill-opacity="0.37"/>
<path d="M65.7673 -10C63.3987 -10 61.0437 -8.30505 55.1562 -4.91515C43.3949 1.86465 44.5451 -0.131021 44.5451 13.4286C44.5451 26.9882 43.3949 24.9925 55.1562 31.7723C66.9175 38.5521 64.6172 38.5521 76.3785 31.7723C88.1397 24.9925 86.9896 26.9882 86.9896 13.4286C86.9896 -0.131021 88.1397 1.86465 76.3785 -4.91515C70.5047 -8.30505 68.136 -10 65.7673 -10Z" fill="#E39F17" fill-opacity="0.37"/>
</svg>
