<svg width="160" height="154" viewBox="0 0 160 154" fill="none" xmlns="http://www.w3.org/2000/svg">
<path d="M65.7667 67.9834C63.3981 67.9834 61.0431 69.6783 55.1556 73.0682C43.3943 79.848 44.5444 77.8524 44.5444 91.412C44.5444 104.972 43.3943 102.976 55.1556 109.756C66.9168 116.535 64.6166 116.535 76.3779 109.756C88.1391 102.976 86.989 104.972 86.989 91.412C86.989 77.8524 88.1391 79.848 76.3779 73.0682C70.5041 69.6783 68.1354 67.9834 65.7667 67.9834Z" fill="#855FCE" fill-opacity="0.41"/>
<path d="M43.3429 107.143C40.9742 107.143 38.6192 108.838 32.7318 112.227C20.9705 119.007 22.1206 117.012 22.1206 130.571C22.1206 144.131 20.9705 142.135 32.7318 148.915C44.493 155.695 42.1928 155.695 53.954 148.915C65.7153 142.135 64.5652 144.131 64.5652 130.571C64.5652 117.012 65.7153 119.007 53.954 112.227C48.0803 108.838 45.7116 107.143 43.3429 107.143Z" fill="#E6DFF8"/>
<path d="M43.3429 28.8242C40.9742 28.8242 38.6192 30.5192 32.7318 33.9091C20.9705 40.6889 22.1206 38.6932 22.1206 52.2528C22.1206 65.8124 20.9705 63.8167 32.7318 70.5965C44.493 77.3763 42.1928 77.3763 53.954 70.5965C65.7153 63.8167 64.5652 65.8124 64.5652 52.2528C64.5652 38.6932 65.7153 40.6889 53.954 33.9091C48.0803 30.5192 45.7116 28.8242 43.3429 28.8242Z" fill="#855FCE" fill-opacity="0.41"/>
<path d="M21.2531 -10C18.8844 -10 16.5294 -8.30505 10.6419 -4.91515C-1.11933 1.86465 0.0307764 -0.131021 0.0307764 13.4286C0.0307764 26.9882 -1.11933 24.9925 10.6419 31.7723C22.4032 38.5521 20.1029 38.5521 31.8642 31.7723C43.6255 24.9925 42.4753 26.9882 42.4753 13.4286C42.4753 -0.131021 43.6255 1.86465 31.8642 -4.91515C25.9904 -8.30505 23.6217 -10 21.2531 -10Z" fill="#E6DFF8"/>
<path d="M154.796 67.9834C152.427 67.9834 150.072 69.6783 144.185 73.0682C132.424 79.848 133.574 77.8524 133.574 91.412C133.574 104.972 132.424 102.976 144.185 109.756C155.946 116.535 153.646 116.535 165.407 109.756C177.168 102.976 176.018 104.972 176.018 91.412C176.018 77.8524 177.168 79.848 165.407 73.0682C159.533 69.6783 157.165 67.9834 154.796 67.9834Z" fill="#C5B2E9"/>
<path d="M87.8566 107.143C85.4879 107.143 83.1329 108.838 77.2454 112.227C65.4842 119.007 66.6343 117.012 66.6343 130.571C66.6343 144.131 65.4842 142.135 77.2454 148.915C89.0067 155.695 86.7065 155.695 98.4677 148.915C110.229 142.135 109.079 144.131 109.079 130.571C109.079 117.012 110.229 119.007 98.4677 112.227C92.5939 108.838 90.2253 107.143 87.8566 107.143Z" fill="#E6DFF8"/>
<path d="M132.372 107.143C130.004 107.143 127.649 108.838 121.761 112.227C110 119.007 111.15 117.012 111.15 130.571C111.15 144.131 110 142.135 121.761 148.915C133.522 155.695 131.222 155.695 142.983 148.915C154.745 142.135 153.594 144.131 153.594 130.571C153.594 117.012 154.745 119.007 142.983 112.227C137.11 108.838 134.741 107.143 132.372 107.143Z" fill="#E6DFF8"/>
<path d="M87.8566 28.8242C85.4879 28.8242 83.1329 30.5192 77.2454 33.9091C65.4842 40.6889 66.6343 38.6932 66.6343 52.2528C66.6343 65.8124 65.4842 63.8167 77.2454 70.5965C89.0067 77.3763 86.7065 77.3763 98.4677 70.5965C110.229 63.8167 109.079 65.8124 109.079 52.2528C109.079 38.6932 110.229 40.6889 98.4677 33.9091C92.5939 30.5192 90.2253 28.8242 87.8566 28.8242Z" fill="#E6DFF8"/>
<path d="M65.7667 -10C63.3981 -10 61.0431 -8.30505 55.1556 -4.91515C43.3943 1.86465 44.5444 -0.131021 44.5444 13.4286C44.5444 26.9882 43.3943 24.9925 55.1556 31.7723C66.9168 38.5521 64.6166 38.5521 76.3779 31.7723C88.1391 24.9925 86.989 26.9882 86.989 13.4286C86.989 -0.131021 88.1391 1.86465 76.3779 -4.91515C70.5041 -8.30505 68.1354 -10 65.7667 -10Z" fill="#E6DFF8"/>
</svg>
