<svg width="708" height="964" viewBox="0 0 708 964" fill="none" xmlns="http://www.w3.org/2000/svg">
<g clip-path="url(#clip0_3121_4046)">
<rect width="708" height="964" fill="#E8F3EC"/>
<g clip-path="url(#clip1_3121_4046)">
<rect width="1360" height="972" transform="translate(-416)" fill="#E8F3EC"/>
<path d="M1332.57 936.23C1192.46 936.23 1091.83 1185.84 865.106 1185.84C638.38 1185.84 554.312 749.023 315.485 749.023C175.373 749.023 74.7472 998.632 -151.979 998.632C-378.706 998.632 -462.773 561.815 -701.601 561.815" stroke="#9FCFB2" stroke-opacity="0.29" stroke-width="2.5" stroke-linecap="round" stroke-linejoin="round" stroke-dasharray="2 8 8 8"/>
<path d="M1334.51 955.67C1194.4 955.67 1093.78 1205.28 867.05 1205.28C640.323 1205.28 556.256 768.463 317.428 768.463C177.316 768.463 76.6906 1018.07 -150.036 1018.07C-376.763 1018.07 -460.83 581.256 -699.657 581.256" stroke="#9FCFB2" stroke-opacity="0.29" stroke-width="2.5" stroke-linecap="round" stroke-linejoin="round" stroke-dasharray="2 8 8 8"/>
<path d="M1334.51 975.111C1194.4 975.111 1093.78 1224.72 867.05 1224.72C640.323 1224.72 556.256 787.903 317.428 787.903C177.316 787.903 76.6906 1037.51 -150.036 1037.51C-376.763 1037.51 -460.83 600.696 -699.657 600.696" stroke="#9FCFB2" stroke-opacity="0.29" stroke-width="2.5" stroke-linecap="round" stroke-linejoin="round" stroke-dasharray="2 8 8 8"/>
<path d="M1336.46 994.55C1196.34 994.55 1095.72 1244.16 868.992 1244.16C642.265 1244.16 558.198 807.343 319.371 807.343C179.259 807.343 78.633 1056.95 -148.094 1056.95C-374.82 1056.95 -458.888 620.136 -697.715 620.136" stroke="#9FCFB2" stroke-opacity="0.29" stroke-width="2.5" stroke-linecap="round" stroke-linejoin="round" stroke-dasharray="2 8 8 8"/>
<path d="M1340.34 1013.99C1200.23 1013.99 1099.6 1263.6 872.878 1263.6C646.151 1263.6 562.084 826.783 323.257 826.783C183.145 826.783 82.5187 1076.39 -144.208 1076.39C-370.935 1076.39 -455.002 639.576 -693.829 639.576" stroke="#9FCFB2" stroke-opacity="0.29" stroke-width="2.5" stroke-linecap="round" stroke-linejoin="round" stroke-dasharray="2 8 8 8"/>
<path d="M1342.29 1033.43C1202.17 1033.43 1101.55 1283.04 874.821 1283.04C648.094 1283.04 564.027 846.223 325.2 846.223C185.088 846.223 84.4621 1095.83 -142.265 1095.83C-368.991 1095.83 -453.058 659.016 -691.886 659.016" stroke="#9FCFB2" stroke-opacity="0.29" stroke-width="2.5" stroke-linecap="round" stroke-linejoin="round" stroke-dasharray="2 8 8 8"/>
<path d="M1348.11 1052.87C1208 1052.87 1107.38 1302.48 880.649 1302.48C653.923 1302.48 569.855 865.663 331.028 865.663C190.916 865.663 90.2902 1115.27 -136.436 1115.27C-363.163 1115.27 -447.23 678.456 -686.058 678.456" stroke="#9FCFB2" stroke-opacity="0.29" stroke-width="2.5" stroke-linecap="round" stroke-linejoin="round" stroke-dasharray="2 8 8 8"/>
<path d="M1352 1072.31C1211.89 1072.31 1111.26 1321.92 884.535 1321.92C657.808 1321.92 573.741 885.104 334.914 885.104C194.802 885.104 94.176 1134.71 -132.551 1134.71C-359.277 1134.71 -443.345 697.896 -682.172 697.896" stroke="#9FCFB2" stroke-opacity="0.29" stroke-width="2.5" stroke-linecap="round" stroke-linejoin="round" stroke-dasharray="2 8 8 8"/>
<path d="M1357.83 1091.75C1217.72 1091.75 1117.09 1341.36 890.363 1341.36C663.636 1341.36 579.569 904.543 340.742 904.543C200.63 904.543 100.004 1154.15 -126.723 1154.15C-353.449 1154.15 -437.516 717.336 -676.344 717.336" stroke="#9FCFB2" stroke-opacity="0.29" stroke-width="2.5" stroke-linecap="round" stroke-linejoin="round" stroke-dasharray="2 8 8 8"/>
<path d="M1363.66 1111.19C1223.54 1111.19 1122.92 1360.8 896.192 1360.8C669.466 1360.8 585.398 923.983 346.571 923.983C206.459 923.983 105.833 1173.59 -120.894 1173.59C-347.62 1173.59 -431.687 736.775 -670.515 736.775" stroke="#9FCFB2" stroke-opacity="0.29" stroke-width="2.5" stroke-linecap="round" stroke-linejoin="round" stroke-dasharray="2 8 8 8"/>
<path d="M1369.48 1130.63C1229.37 1130.63 1128.75 1380.24 902.02 1380.24C675.294 1380.24 591.226 943.423 352.399 943.423C212.287 943.423 111.661 1193.03 -115.065 1193.03C-341.792 1193.03 -425.859 756.216 -664.687 756.216" stroke="#9FCFB2" stroke-opacity="0.29" stroke-width="2.5" stroke-linecap="round" stroke-linejoin="round" stroke-dasharray="2 8 8 8"/>
<path d="M1377.26 1150.07C1237.14 1150.07 1136.52 1399.68 909.792 1399.68C683.065 1399.68 598.998 962.864 360.171 962.864C220.059 962.864 119.433 1212.47 -107.294 1212.47C-334.021 1212.47 -418.088 775.656 -656.915 775.656" stroke="#9FCFB2" stroke-opacity="0.29" stroke-width="2.5" stroke-linecap="round" stroke-linejoin="round" stroke-dasharray="2 8 8 8"/>
<path d="M1385.03 1169.51C1244.92 1169.51 1144.29 1419.12 917.563 1419.12C690.837 1419.12 606.769 982.303 367.942 982.303C227.83 982.303 127.204 1231.91 -99.5224 1231.91C-326.249 1231.91 -410.316 795.096 -649.144 795.096" stroke="#9FCFB2" stroke-opacity="0.29" stroke-width="2.5" stroke-linecap="round" stroke-linejoin="round" stroke-dasharray="2 8 8 8"/>
<path d="M1392.8 1188.95C1252.69 1188.95 1152.06 1438.56 925.335 1438.56C698.608 1438.56 614.541 1001.74 375.714 1001.74C235.602 1001.74 134.976 1251.35 -91.7509 1251.35C-318.478 1251.35 -402.545 814.536 -641.372 814.536" stroke="#9FCFB2" stroke-opacity="0.29" stroke-width="2.5" stroke-linecap="round" stroke-linejoin="round" stroke-dasharray="2 8 8 8"/>
<path d="M1402.51 1208.39C1262.4 1208.39 1161.78 1458 935.05 1458C708.323 1458 624.256 1021.18 385.428 1021.18C245.316 1021.18 144.691 1270.79 -82.0361 1270.79C-308.763 1270.79 -392.83 833.976 -631.657 833.976" stroke="#9FCFB2" stroke-opacity="0.29" stroke-width="2.5" stroke-linecap="round" stroke-linejoin="round" stroke-dasharray="2 8 8 8"/>
<path d="M1412.23 1227.83C1272.12 1227.83 1171.49 1477.44 944.764 1477.44C718.037 1477.44 633.97 1040.62 395.142 1040.62C255.03 1040.62 154.404 1290.23 -72.3222 1290.23C-299.049 1290.23 -383.116 853.416 -621.943 853.416" stroke="#9FCFB2" stroke-opacity="0.29" stroke-width="2.5" stroke-linecap="round" stroke-linejoin="round" stroke-dasharray="2 8 8 8"/>
<path d="M1421.94 1247.27C1281.83 1247.27 1181.2 1496.88 954.478 1496.88C727.751 1496.88 643.684 1060.06 404.856 1060.06C264.744 1060.06 164.118 1309.67 -62.6083 1309.67C-289.335 1309.67 -373.402 872.855 -612.229 872.855" stroke="#9FCFB2" stroke-opacity="0.29" stroke-width="2.5" stroke-linecap="round" stroke-linejoin="round" stroke-dasharray="2 8 8 8"/>
<path d="M1433.6 1266.71C1293.49 1266.71 1192.86 1516.32 966.135 1516.32C739.408 1516.32 655.341 1079.5 416.513 1079.5C276.401 1079.5 175.776 1329.11 -50.9511 1329.11C-277.678 1329.11 -361.745 892.296 -600.572 892.296" stroke="#9FCFB2" stroke-opacity="0.29" stroke-width="2.5" stroke-linecap="round" stroke-linejoin="round" stroke-dasharray="2 8 8 8"/>
<path d="M1443.31 1286.15C1303.2 1286.15 1202.58 1535.76 975.849 1535.76C749.123 1535.76 665.056 1098.94 426.228 1098.94C286.116 1098.94 185.49 1348.55 -41.2363 1348.55C-267.963 1348.55 -352.03 911.735 -590.857 911.735" stroke="#9FCFB2" stroke-opacity="0.29" stroke-width="2.5" stroke-linecap="round" stroke-linejoin="round" stroke-dasharray="2 8 8 8"/>
<path d="M1456.91 1305.59C1316.8 1305.59 1216.18 1555.2 989.449 1555.2C762.722 1555.2 678.655 1118.38 439.828 1118.38C299.716 1118.38 199.09 1367.99 -27.6367 1367.99C-254.363 1367.99 -338.431 931.176 -577.258 931.176" stroke="#9FCFB2" stroke-opacity="0.29" stroke-width="2.5" stroke-linecap="round" stroke-linejoin="round" stroke-dasharray="2 8 8 8"/>
<path d="M1468.57 1325.03C1328.46 1325.03 1227.83 1574.64 1001.11 1574.64C774.38 1574.64 690.312 1137.82 451.485 1137.82C311.373 1137.82 210.747 1387.43 -15.9794 1387.43C-242.706 1387.43 -326.773 950.616 -565.601 950.616" stroke="#9FCFB2" stroke-opacity="0.29" stroke-width="2.5" stroke-linecap="round" stroke-linejoin="round" stroke-dasharray="2 8 8 8"/>
<path d="M1332.57 -249.61C1192.46 -249.61 1091.83 -0.000362635 865.106 -0.000362635C638.38 -0.000362635 554.312 -436.817 315.485 -436.817C175.373 -436.817 74.7472 -187.208 -151.979 -187.208C-378.706 -187.208 -462.773 -624.024 -701.601 -624.024" stroke="#9FCFB2" stroke-opacity="0.29" stroke-width="2.5" stroke-linecap="round" stroke-linejoin="round" stroke-dasharray="2 8 8 8"/>
<path d="M1344.23 -230.17C1204.12 -230.17 1103.49 19.44 876.764 19.44C650.037 19.44 565.97 -417.377 327.142 -417.377C187.03 -417.377 86.4045 -167.767 -140.322 -167.767C-367.049 -167.767 -451.116 -604.584 -689.943 -604.584" stroke="#9FCFB2" stroke-opacity="0.29" stroke-width="2.5" stroke-linecap="round" stroke-linejoin="round" stroke-dasharray="2 8 8 8"/>
<path d="M1355.89 -210.73C1215.77 -210.73 1115.15 38.8795 888.421 38.8795C661.694 38.8795 577.627 -397.937 338.8 -397.937C198.688 -397.937 98.0617 -148.328 -128.665 -148.328C-355.392 -148.328 -439.459 -585.145 -678.286 -585.145" stroke="#9FCFB2" stroke-opacity="0.29" stroke-width="2.5" stroke-linecap="round" stroke-linejoin="round" stroke-dasharray="2 8 8 8"/>
<path d="M1367.54 -191.29C1227.43 -191.29 1126.8 58.3199 900.078 58.3199C673.351 58.3199 589.284 -378.497 350.457 -378.497C210.345 -378.497 109.719 -128.887 -117.008 -128.887C-343.734 -128.887 -427.802 -565.704 -666.629 -565.704" stroke="#9FCFB2" stroke-opacity="0.29" stroke-width="2.5" stroke-linecap="round" stroke-linejoin="round" stroke-dasharray="2 8 8 8"/>
<path d="M1379.2 -171.849C1239.09 -171.849 1138.46 77.7603 911.735 77.7603C685.008 77.7603 600.941 -359.056 362.114 -359.056C222.002 -359.056 121.376 -109.447 -105.351 -109.447C-332.077 -109.447 -416.144 -546.264 -654.972 -546.264" stroke="#9FCFB2" stroke-opacity="0.29" stroke-width="2.5" stroke-linecap="round" stroke-linejoin="round" stroke-dasharray="2 8 8 8"/>
<path d="M1388.91 -152.41C1248.8 -152.41 1148.18 97.1998 921.449 97.1998C694.722 97.1998 610.655 -339.617 371.828 -339.617C231.716 -339.617 131.09 -90.0074 -95.6367 -90.0074C-322.363 -90.0074 -406.431 -526.824 -645.258 -526.824" stroke="#9FCFB2" stroke-opacity="0.29" stroke-width="2.5" stroke-linecap="round" stroke-linejoin="round" stroke-dasharray="2 8 8 8"/>
<path d="M1400.57 -132.969C1260.46 -132.969 1159.83 116.64 933.106 116.64C706.38 116.64 622.312 -320.177 383.485 -320.177C243.373 -320.177 142.747 -70.567 -83.9794 -70.567C-310.706 -70.567 -394.773 -507.384 -633.601 -507.384" stroke="#9FCFB2" stroke-opacity="0.29" stroke-width="2.5" stroke-linecap="round" stroke-linejoin="round" stroke-dasharray="2 8 8 8"/>
<path d="M1412.23 -113.53C1272.12 -113.53 1171.49 136.08 944.764 136.08C718.037 136.08 633.97 -300.737 395.142 -300.737C255.03 -300.737 154.404 -51.1275 -72.3222 -51.1275C-299.049 -51.1275 -383.116 -487.944 -621.943 -487.944" stroke="#9FCFB2" stroke-opacity="0.29" stroke-width="2.5" stroke-linecap="round" stroke-linejoin="round" stroke-dasharray="2 8 8 8"/>
<path d="M1423.89 -94.0895C1283.77 -94.0895 1183.15 155.52 956.421 155.52C729.694 155.52 645.627 -281.297 406.8 -281.297C266.688 -281.297 166.062 -31.6871 -60.665 -31.6871C-287.392 -31.6871 -371.459 -468.504 -610.286 -468.504" stroke="#9FCFB2" stroke-opacity="0.29" stroke-width="2.5" stroke-linecap="round" stroke-linejoin="round" stroke-dasharray="2 8 8 8"/>
<path d="M1431.66 -74.65C1291.54 -74.65 1190.92 174.96 964.192 174.96C737.466 174.96 653.398 -261.857 414.571 -261.857C274.459 -261.857 173.833 -12.2476 -52.8935 -12.2476C-279.62 -12.2476 -363.687 -449.064 -602.515 -449.064" stroke="#9FCFB2" stroke-opacity="0.29" stroke-width="2.5" stroke-linecap="round" stroke-linejoin="round" stroke-dasharray="2 8 8 8"/>
<path d="M1441.37 -55.2096C1301.26 -55.2096 1200.63 194.4 973.906 194.4C747.18 194.4 663.112 -242.417 424.285 -242.417C284.173 -242.417 183.547 7.19278 -43.1796 7.19278C-269.906 7.19278 -353.973 -429.624 -592.801 -429.624" stroke="#9FCFB2" stroke-opacity="0.29" stroke-width="2.5" stroke-linecap="round" stroke-linejoin="round" stroke-dasharray="2 8 8 8"/>
<path d="M1449.14 -35.7701C1309.03 -35.7701 1208.4 213.839 981.678 213.839C754.951 213.839 670.884 -222.977 432.056 -222.977C291.944 -222.977 191.319 26.6323 -35.4081 26.6323C-262.135 26.6323 -346.202 -410.185 -585.029 -410.185" stroke="#9FCFB2" stroke-opacity="0.29" stroke-width="2.5" stroke-linecap="round" stroke-linejoin="round" stroke-dasharray="2 8 8 8"/>
<path d="M1458.86 -16.3297C1318.74 -16.3297 1218.12 233.28 991.392 233.28C764.666 233.28 680.599 -203.537 441.771 -203.537C301.659 -203.537 201.033 46.0727 -25.6933 46.0727C-252.42 46.0727 -336.487 -390.744 -575.314 -390.744" stroke="#9FCFB2" stroke-opacity="0.29" stroke-width="2.5" stroke-linecap="round" stroke-linejoin="round" stroke-dasharray="2 8 8 8"/>
<path d="M1466.63 3.10971C1326.52 3.10971 1225.89 252.719 999.164 252.719C772.437 252.719 688.37 -184.097 449.543 -184.097C309.431 -184.097 208.805 65.5121 -17.9218 65.5121C-244.649 65.5121 -328.716 -371.305 -567.543 -371.305" stroke="#9FCFB2" stroke-opacity="0.29" stroke-width="2.5" stroke-linecap="round" stroke-linejoin="round" stroke-dasharray="2 8 8 8"/>
<path d="M1472.46 22.5502C1332.34 22.5502 1231.72 272.16 1004.99 272.16C778.265 272.16 694.198 -164.657 455.371 -164.657C315.259 -164.657 214.633 84.9526 -12.0936 84.9526C-238.82 84.9526 -322.888 -351.864 -561.715 -351.864" stroke="#9FCFB2" stroke-opacity="0.29" stroke-width="2.5" stroke-linecap="round" stroke-linejoin="round" stroke-dasharray="2 8 8 8"/>
<path d="M1478.29 41.9906C1338.17 41.9906 1237.55 291.6 1010.82 291.6C784.095 291.6 700.027 -145.217 461.2 -145.217C321.088 -145.217 220.462 104.393 -6.26454 104.393C-232.991 104.393 -317.058 -332.424 -555.886 -332.424" stroke="#9FCFB2" stroke-opacity="0.29" stroke-width="2.5" stroke-linecap="round" stroke-linejoin="round" stroke-dasharray="2 8 8 8"/>
<path d="M1484.11 61.43C1344 61.43 1243.38 311.04 1016.65 311.04C789.923 311.04 705.855 -125.777 467.028 -125.777C326.916 -125.777 226.29 123.832 -0.436469 123.832C-227.163 123.832 -311.23 -312.984 -550.058 -312.984" stroke="#9FCFB2" stroke-opacity="0.29" stroke-width="2.5" stroke-linecap="round" stroke-linejoin="round" stroke-dasharray="2 8 8 8"/>
<path d="M1489.94 80.8705C1349.83 80.8705 1249.2 330.48 1022.48 330.48C795.751 330.48 711.683 -106.337 472.856 -106.337C332.744 -106.337 232.118 143.273 5.39166 143.273C-221.335 143.273 -305.402 -293.544 -544.229 -293.544" stroke="#9FCFB2" stroke-opacity="0.29" stroke-width="2.5" stroke-linecap="round" stroke-linejoin="round" stroke-dasharray="2 8 8 8"/>
<path d="M1493.83 100.31C1353.72 100.31 1253.09 349.92 1026.36 349.92C799.636 349.92 715.569 -86.8973 476.742 -86.8973C336.63 -86.8973 236.004 162.712 9.2774 162.712C-217.449 162.712 -301.516 -274.104 -540.344 -274.104" stroke="#9FCFB2" stroke-opacity="0.29" stroke-width="2.5" stroke-linecap="round" stroke-linejoin="round" stroke-dasharray="2 8 8 8"/>
<path d="M1497.71 119.75C1357.6 119.75 1256.98 369.36 1030.25 369.36C803.522 369.36 719.455 -67.4569 480.628 -67.4569C340.516 -67.4569 239.89 182.153 13.1631 182.153C-213.564 182.153 -297.631 -254.664 -536.458 -254.664" stroke="#9FCFB2" stroke-opacity="0.29" stroke-width="2.5" stroke-linecap="round" stroke-linejoin="round" stroke-dasharray="2 8 8 8"/>
<path d="M1497.71 139.19C1357.6 139.19 1256.98 388.799 1030.25 388.799C803.522 388.799 719.455 -48.0174 480.628 -48.0174C340.516 -48.0174 239.89 201.592 13.1631 201.592C-213.564 201.592 -297.631 -235.225 -536.458 -235.225" stroke="#9FCFB2" stroke-opacity="0.29" stroke-width="2.5" stroke-linecap="round" stroke-linejoin="round" stroke-dasharray="2 8 8 8"/>
<path d="M1501.6 158.63C1361.49 158.63 1260.86 408.24 1034.13 408.24C807.408 408.24 723.341 -28.577 484.513 -28.577C344.401 -28.577 243.776 221.033 17.0489 221.033C-209.678 221.033 -293.745 -215.784 -532.572 -215.784" stroke="#9FCFB2" stroke-opacity="0.29" stroke-width="2.5" stroke-linecap="round" stroke-linejoin="round" stroke-dasharray="2 8 8 8"/>
<path d="M1501.6 178.071C1361.49 178.071 1260.86 427.68 1034.13 427.68C807.408 427.68 723.341 -9.13653 484.513 -9.13653C344.401 -9.13653 243.776 240.473 17.0489 240.473C-209.678 240.473 -293.745 -196.344 -532.572 -196.344" stroke="#9FCFB2" stroke-opacity="0.29" stroke-width="2.5" stroke-linecap="round" stroke-linejoin="round" stroke-dasharray="2 8 8 8"/>
<path d="M1501.6 197.51C1361.49 197.51 1260.86 447.12 1034.13 447.12C807.408 447.12 723.341 10.3029 484.513 10.3029C344.401 10.3029 243.776 259.912 17.0489 259.912C-209.678 259.912 -293.745 -176.904 -532.572 -176.904" stroke="#9FCFB2" stroke-opacity="0.29" stroke-width="2.5" stroke-linecap="round" stroke-linejoin="round" stroke-dasharray="2 8 8 8"/>
<path d="M1501.6 216.951C1361.49 216.951 1260.86 466.56 1034.13 466.56C807.408 466.56 723.341 29.7433 484.513 29.7433C344.401 29.7433 243.776 279.353 17.0489 279.353C-209.678 279.353 -293.745 -157.464 -532.572 -157.464" stroke="#9FCFB2" stroke-opacity="0.29" stroke-width="2.5" stroke-linecap="round" stroke-linejoin="round" stroke-dasharray="2 8 8 8"/>
<path d="M1501.6 236.39C1361.49 236.39 1260.86 486 1034.13 486C807.408 486 723.341 49.1828 484.513 49.1828C344.401 49.1828 243.776 298.792 17.0489 298.792C-209.678 298.792 -293.745 -138.024 -532.572 -138.024" stroke="#9FCFB2" stroke-opacity="0.29" stroke-width="2.5" stroke-linecap="round" stroke-linejoin="round" stroke-dasharray="2 8 8 8"/>
<path d="M1497.71 255.83C1357.6 255.83 1256.98 505.44 1030.25 505.44C803.522 505.44 719.455 68.6232 480.628 68.6232C340.516 68.6232 239.89 318.233 13.1631 318.233C-213.564 318.233 -297.631 -118.584 -536.458 -118.584" stroke="#9FCFB2" stroke-opacity="0.29" stroke-width="2.5" stroke-linecap="round" stroke-linejoin="round" stroke-dasharray="2 8 8 8"/>
<path d="M1497.71 275.27C1357.6 275.27 1256.98 524.879 1030.25 524.879C803.522 524.879 719.455 88.0627 480.628 88.0627C340.516 88.0627 239.89 337.672 13.1631 337.672C-213.564 337.672 -297.631 -99.1445 -536.458 -99.1445" stroke="#9FCFB2" stroke-opacity="0.29" stroke-width="2.5" stroke-linecap="round" stroke-linejoin="round" stroke-dasharray="2 8 8 8"/>
<path d="M1497.71 294.71C1357.6 294.71 1256.98 544.32 1030.25 544.32C803.522 544.32 719.455 107.503 480.628 107.503C340.516 107.503 239.89 357.113 13.1631 357.113C-213.564 357.113 -297.631 -79.7041 -536.458 -79.7041" stroke="#9FCFB2" stroke-opacity="0.29" stroke-width="2.5" stroke-linecap="round" stroke-linejoin="round" stroke-dasharray="2 8 8 8"/>
<path d="M1493.83 314.151C1353.72 314.151 1253.09 563.76 1026.36 563.76C799.636 563.76 715.569 126.944 476.742 126.944C336.63 126.944 236.004 376.553 9.2774 376.553C-217.449 376.553 -301.516 -60.2637 -540.344 -60.2637" stroke="#9FCFB2" stroke-opacity="0.29" stroke-width="2.5" stroke-linecap="round" stroke-linejoin="round" stroke-dasharray="2 8 8 8"/>
<path d="M1493.83 333.59C1353.72 333.59 1253.09 583.2 1026.36 583.2C799.636 583.2 715.569 146.383 476.742 146.383C336.63 146.383 236.004 395.993 9.2774 395.993C-217.449 395.993 -301.516 -40.8242 -540.344 -40.8242" stroke="#9FCFB2" stroke-opacity="0.29" stroke-width="2.5" stroke-linecap="round" stroke-linejoin="round" stroke-dasharray="2 8 8 8"/>
<path d="M1489.94 353.031C1349.83 353.031 1249.2 602.64 1022.48 602.64C795.751 602.64 711.683 165.823 472.856 165.823C332.744 165.823 232.118 415.433 5.39166 415.433C-221.335 415.433 -305.402 -21.3838 -544.229 -21.3838" stroke="#9FCFB2" stroke-opacity="0.29" stroke-width="2.5" stroke-linecap="round" stroke-linejoin="round" stroke-dasharray="2 8 8 8"/>
<path d="M1484.11 372.47C1344 372.47 1243.38 622.08 1016.65 622.08C789.923 622.08 705.855 185.263 467.028 185.263C326.916 185.263 226.29 434.872 -0.436469 434.872C-227.163 434.872 -311.23 -1.94434 -550.058 -1.94434" stroke="#9FCFB2" stroke-opacity="0.29" stroke-width="2.5" stroke-linecap="round" stroke-linejoin="round" stroke-dasharray="2 8 8 8"/>
<path d="M1484.11 391.91C1344 391.91 1243.38 641.52 1016.65 641.52C789.923 641.52 705.855 204.703 467.028 204.703C326.916 204.703 226.29 454.313 -0.436469 454.313C-227.163 454.313 -311.23 17.4961 -550.058 17.4961" stroke="#9FCFB2" stroke-opacity="0.29" stroke-width="2.5" stroke-linecap="round" stroke-linejoin="round" stroke-dasharray="2 8 8 8"/>
<path d="M1478.29 411.35C1338.17 411.35 1237.55 660.96 1010.82 660.96C784.095 660.96 700.027 224.143 461.2 224.143C321.088 224.143 220.462 473.752 -6.26454 473.752C-232.991 473.752 -317.058 36.9355 -555.886 36.9355" stroke="#9FCFB2" stroke-opacity="0.29" stroke-width="2.5" stroke-linecap="round" stroke-linejoin="round" stroke-dasharray="2 8 8 8"/>
<path d="M1472.46 430.79C1332.34 430.79 1231.72 680.4 1004.99 680.4C778.265 680.4 694.198 243.583 455.371 243.583C315.259 243.583 214.633 493.193 -12.0936 493.193C-238.82 493.193 -322.888 56.376 -561.715 56.376" stroke="#9FCFB2" stroke-opacity="0.29" stroke-width="2.5" stroke-linecap="round" stroke-linejoin="round" stroke-dasharray="2 8 8 8"/>
<path d="M1470.51 450.23C1330.4 450.23 1229.78 699.839 1003.05 699.839C776.323 699.839 692.256 263.023 453.428 263.023C313.316 263.023 212.691 512.632 -14.0361 512.632C-240.763 512.632 -324.83 75.8154 -563.657 75.8154" stroke="#9FCFB2" stroke-opacity="0.29" stroke-width="2.5" stroke-linecap="round" stroke-linejoin="round" stroke-dasharray="2 8 8 8"/>
<path d="M1466.63 469.67C1326.52 469.67 1225.89 719.28 999.164 719.28C772.437 719.28 688.37 282.463 449.543 282.463C309.431 282.463 208.805 532.073 -17.9218 532.073C-244.649 532.073 -328.716 95.2559 -567.543 95.2559" stroke="#9FCFB2" stroke-opacity="0.29" stroke-width="2.5" stroke-linecap="round" stroke-linejoin="round" stroke-dasharray="2 8 8 8"/>
<path d="M1458.86 489.11C1318.74 489.11 1218.12 738.719 991.392 738.719C764.666 738.719 680.599 301.902 441.771 301.902C301.659 301.902 201.033 551.512 -25.6933 551.512C-252.42 551.512 -336.487 114.695 -575.314 114.695" stroke="#9FCFB2" stroke-opacity="0.29" stroke-width="2.5" stroke-linecap="round" stroke-linejoin="round" stroke-dasharray="2 8 8 8"/>
<path d="M1453.03 508.55C1312.92 508.55 1212.29 758.16 985.563 758.16C758.837 758.16 674.769 321.343 435.942 321.343C295.83 321.343 195.204 570.953 -31.5224 570.953C-258.249 570.953 -342.316 134.136 -581.144 134.136" stroke="#9FCFB2" stroke-opacity="0.29" stroke-width="2.5" stroke-linecap="round" stroke-linejoin="round" stroke-dasharray="2 8 8 8"/>
<path d="M1445.26 527.991C1305.14 527.991 1204.52 777.6 977.792 777.6C751.065 777.6 666.998 340.783 428.171 340.783C288.059 340.783 187.433 590.393 -39.2939 590.393C-266.021 590.393 -350.088 153.576 -588.915 153.576" stroke="#9FCFB2" stroke-opacity="0.29" stroke-width="2.5" stroke-linecap="round" stroke-linejoin="round" stroke-dasharray="2 8 8 8"/>
<path d="M1439.43 547.43C1299.32 547.43 1198.69 797.04 971.964 797.04C745.237 797.04 661.17 360.223 422.343 360.223C282.231 360.223 181.605 609.832 -45.122 609.832C-271.849 609.832 -355.916 173.016 -594.743 173.016" stroke="#9FCFB2" stroke-opacity="0.29" stroke-width="2.5" stroke-linecap="round" stroke-linejoin="round" stroke-dasharray="2 8 8 8"/>
<path d="M1431.66 566.87C1291.54 566.87 1190.92 816.48 964.192 816.48C737.466 816.48 653.398 379.663 414.571 379.663C274.459 379.663 173.833 629.273 -52.8935 629.273C-279.62 629.273 -363.687 192.456 -602.515 192.456" stroke="#9FCFB2" stroke-opacity="0.29" stroke-width="2.5" stroke-linecap="round" stroke-linejoin="round" stroke-dasharray="2 8 8 8"/>
<path d="M1423.89 586.31C1283.77 586.31 1183.15 835.92 956.421 835.92C729.694 835.92 645.627 399.103 406.8 399.103C266.688 399.103 166.062 648.712 -60.665 648.712C-287.392 648.712 -371.459 211.896 -610.286 211.896" stroke="#9FCFB2" stroke-opacity="0.29" stroke-width="2.5" stroke-linecap="round" stroke-linejoin="round" stroke-dasharray="2 8 8 8"/>
<path d="M1418.06 605.75C1277.94 605.75 1177.32 855.36 950.592 855.36C723.865 855.36 639.798 418.543 400.97 418.543C260.858 418.543 160.233 668.153 -66.4941 668.153C-293.221 668.153 -377.288 231.336 -616.115 231.336" stroke="#9FCFB2" stroke-opacity="0.29" stroke-width="2.5" stroke-linecap="round" stroke-linejoin="round" stroke-dasharray="2 8 8 8"/>
<path d="M1408.34 625.19C1268.23 625.19 1167.6 874.799 940.878 874.799C714.151 874.799 630.084 437.983 391.257 437.983C251.145 437.983 150.519 687.592 -76.208 687.592C-302.935 687.592 -387.002 250.775 -625.829 250.775" stroke="#9FCFB2" stroke-opacity="0.29" stroke-width="2.5" stroke-linecap="round" stroke-linejoin="round" stroke-dasharray="2 8 8 8"/>
<path d="M1400.57 644.63C1260.46 644.63 1159.83 894.24 933.106 894.24C706.38 894.24 622.312 457.423 383.485 457.423C243.373 457.423 142.747 707.033 -83.9794 707.033C-310.706 707.033 -394.773 270.216 -633.601 270.216" stroke="#9FCFB2" stroke-opacity="0.29" stroke-width="2.5" stroke-linecap="round" stroke-linejoin="round" stroke-dasharray="2 8 8 8"/>
<path d="M1392.8 664.071C1252.69 664.071 1152.06 913.68 925.335 913.68C698.608 913.68 614.541 476.863 375.714 476.863C235.602 476.863 134.976 726.473 -91.7509 726.473C-318.478 726.473 -402.545 289.656 -641.372 289.656" stroke="#9FCFB2" stroke-opacity="0.29" stroke-width="2.5" stroke-linecap="round" stroke-linejoin="round" stroke-dasharray="2 8 8 8"/>
<path d="M1386.97 683.51C1246.86 683.51 1146.23 933.12 919.507 933.12C692.78 933.12 608.713 496.303 369.885 496.303C229.773 496.303 129.148 745.913 -97.5791 745.913C-324.306 745.913 -408.373 309.096 -647.2 309.096" stroke="#9FCFB2" stroke-opacity="0.29" stroke-width="2.5" stroke-linecap="round" stroke-linejoin="round" stroke-dasharray="2 8 8 8"/>
<path d="M1381.14 702.951C1241.03 702.951 1140.4 952.56 913.678 952.56C686.951 952.56 602.884 515.743 364.056 515.743C223.944 515.743 123.319 765.353 -103.408 765.353C-330.135 765.353 -414.202 328.536 -653.029 328.536" stroke="#9FCFB2" stroke-opacity="0.29" stroke-width="2.5" stroke-linecap="round" stroke-linejoin="round" stroke-dasharray="2 8 8 8"/>
<path d="M1371.43 722.39C1231.32 722.39 1130.69 972 903.964 972C677.237 972 593.17 535.183 354.343 535.183C214.231 535.183 113.605 784.792 -113.122 784.792C-339.849 784.792 -423.916 347.976 -662.743 347.976" stroke="#9FCFB2" stroke-opacity="0.29" stroke-width="2.5" stroke-linecap="round" stroke-linejoin="round" stroke-dasharray="2 8 8 8"/>
<path d="M1365.6 741.83C1225.49 741.83 1124.86 991.44 898.135 991.44C671.408 991.44 587.341 554.623 348.513 554.623C208.401 554.623 107.776 804.233 -118.951 804.233C-345.678 804.233 -429.745 367.416 -668.572 367.416" stroke="#9FCFB2" stroke-opacity="0.29" stroke-width="2.5" stroke-linecap="round" stroke-linejoin="round" stroke-dasharray="2 8 8 8"/>
<path d="M1359.77 761.27C1219.66 761.27 1119.03 1010.88 892.306 1010.88C665.58 1010.88 581.513 574.063 342.685 574.063C202.573 574.063 101.947 823.672 -124.779 823.672C-351.506 823.672 -435.573 386.855 -674.4 386.855" stroke="#9FCFB2" stroke-opacity="0.29" stroke-width="2.5" stroke-linecap="round" stroke-linejoin="round" stroke-dasharray="2 8 8 8"/>
<path d="M1353.94 780.71C1213.83 780.71 1113.2 1030.32 886.477 1030.32C659.751 1030.32 575.683 593.503 336.856 593.503C196.744 593.503 96.1183 843.113 -130.608 843.113C-357.335 843.113 -441.402 406.296 -680.229 406.296" stroke="#9FCFB2" stroke-opacity="0.29" stroke-width="2.5" stroke-linecap="round" stroke-linejoin="round" stroke-dasharray="2 8 8 8"/>
<path d="M1350.06 800.15C1209.94 800.15 1109.32 1049.76 882.592 1049.76C655.865 1049.76 571.798 612.943 332.97 612.943C192.858 612.943 92.2326 862.552 -134.494 862.552C-361.221 862.552 -445.288 425.735 -684.115 425.735" stroke="#9FCFB2" stroke-opacity="0.29" stroke-width="2.5" stroke-linecap="round" stroke-linejoin="round" stroke-dasharray="2 8 8 8"/>
<path d="M1344.23 819.59C1204.12 819.59 1103.49 1069.2 876.764 1069.2C650.037 1069.2 565.97 632.383 327.142 632.383C187.03 632.383 86.4045 881.993 -140.322 881.993C-367.049 881.993 -451.116 445.176 -689.943 445.176" stroke="#9FCFB2" stroke-opacity="0.29" stroke-width="2.5" stroke-linecap="round" stroke-linejoin="round" stroke-dasharray="2 8 8 8"/>
<path d="M1340.34 839.031C1200.23 839.031 1099.6 1088.64 872.878 1088.64C646.151 1088.64 562.084 651.823 323.257 651.823C183.145 651.823 82.5187 901.433 -144.208 901.433C-370.935 901.433 -455.002 464.616 -693.829 464.616" stroke="#9FCFB2" stroke-opacity="0.29" stroke-width="2.5" stroke-linecap="round" stroke-linejoin="round" stroke-dasharray="2 8 8 8"/>
<path d="M1336.46 858.47C1196.34 858.47 1095.72 1108.08 868.992 1108.08C642.265 1108.08 558.198 671.263 319.371 671.263C179.259 671.263 78.633 920.872 -148.094 920.872C-374.82 920.872 -458.888 484.056 -697.715 484.056" stroke="#9FCFB2" stroke-opacity="0.29" stroke-width="2.5" stroke-linecap="round" stroke-linejoin="round" stroke-dasharray="2 8 8 8"/>
<path d="M1336.46 877.911C1196.34 877.911 1095.72 1127.52 868.992 1127.52C642.265 1127.52 558.198 690.703 319.371 690.703C179.259 690.703 78.633 940.313 -148.094 940.313C-374.82 940.313 -458.888 503.496 -697.715 503.496" stroke="#9FCFB2" stroke-opacity="0.29" stroke-width="2.5" stroke-linecap="round" stroke-linejoin="round" stroke-dasharray="2 8 8 8"/>
<path d="M1332.57 897.35C1192.46 897.35 1091.83 1146.96 865.106 1146.96C638.38 1146.96 554.312 710.143 315.485 710.143C175.373 710.143 74.7472 959.752 -151.979 959.752C-378.706 959.752 -462.773 522.936 -701.601 522.936" stroke="#9FCFB2" stroke-opacity="0.29" stroke-width="2.5" stroke-linecap="round" stroke-linejoin="round" stroke-dasharray="2 8 8 8"/>
<path d="M1332.57 916.79C1192.46 916.79 1091.83 1166.4 865.106 1166.4C638.38 1166.4 554.312 729.583 315.485 729.583C175.373 729.583 74.7472 979.193 -151.979 979.193C-378.706 979.193 -462.773 542.376 -701.601 542.376" stroke="#9FCFB2" stroke-opacity="0.29" stroke-width="2.5" stroke-linecap="round" stroke-linejoin="round" stroke-dasharray="2 8 8 8"/>
</g>
</g>
<defs>
<clipPath id="clip0_3121_4046">
<rect width="708" height="964" fill="white"/>
</clipPath>
<clipPath id="clip1_3121_4046">
<rect width="1360" height="972" fill="white" transform="translate(-416)"/>
</clipPath>
</defs>
</svg>
