<svg width="192" height="12" viewBox="0 0 192 12" fill="none" xmlns="http://www.w3.org/2000/svg">
<path d="M93.5622 12C89.7683 10.0258 86.9528 6.12875 86.7639 4C86.5579 1.6309 88.1545 0 90.1631 0C92.412 0 93.5622 1.80258 93.5622 1.80258C93.5622 1.80258 94.6953 0 96.9614 0C98.9699 0 100.567 1.6309 100.361 4C100.172 6.12875 97.3734 10.0429 93.5622 12Z" fill="url(#paint0_linear_0_345)"/>
<path d="M77.648 6.06012C78.4549 4.51506 80.0343 3.36484 80.9099 3.29618C81.8713 3.21034 82.5407 3.86269 82.5407 4.68673C82.5407 5.5966 81.8026 6.07728 81.8026 6.07728C81.8026 6.07728 82.5407 6.5408 82.5407 7.46783C82.5407 8.29187 81.8713 8.92707 80.9099 8.84123C80.0343 8.77256 78.4549 7.62234 77.648 6.07728V6.06012Z" fill="url(#paint1_linear_0_345)"/>
<path d="M65.2703 6.02573C65.7166 5.16736 66.5921 4.54933 67.0728 4.49783C67.605 4.44633 67.9656 4.80685 67.9656 5.2532C67.9656 5.75105 67.5536 6.00857 67.5536 6.00857C67.5536 6.00857 67.9656 6.26608 67.9656 6.76394C67.9656 7.21029 67.605 7.57081 67.0728 7.5193C66.5921 7.48497 65.7166 6.84978 65.2703 5.99141V6.02573Z" fill="url(#paint2_linear_0_345)"/>
<path d="M1.83687 6.04285C1.52786 6.62654 0.944181 7.0557 0.618001 7.07287C0.257486 7.10721 0 6.86686 0 6.55785C0 6.2145 0.274684 6.04285 0.274684 6.04285C0.274684 6.04285 0 5.87117 0 5.52782C0 5.21881 0.257486 4.97846 0.618001 5.01279C0.944181 5.04713 1.54502 5.47632 1.83687 6.04285Z" fill="url(#paint3_linear_0_345)"/>
<path d="M1.69955 5.88839L74.6266 5.3562C75.0043 5.3562 75.2961 5.64805 75.2961 6.00857C75.2961 6.38625 75.0043 6.6781 74.6437 6.6781L1.71674 6.14591C1.71674 6.14591 1.57937 6.07724 1.57937 6.00857C1.57937 5.9399 1.64807 5.87123 1.71674 5.87123L1.69955 5.88839Z" fill="url(#paint4_linear_0_345)"/>
<path d="M109.494 6.06012C108.687 4.51506 107.107 3.36484 106.232 3.29618C105.27 3.21034 104.601 3.86269 104.601 4.68673C104.601 5.5966 105.339 6.07728 105.339 6.07728C105.339 6.07728 104.601 6.5408 104.601 7.46783C104.601 8.29187 105.27 8.92707 106.232 8.84123C107.107 8.77256 108.687 7.62234 109.494 6.07728V6.06012Z" fill="url(#paint5_linear_0_345)"/>
<path d="M121.871 6.02573C121.425 5.16736 120.549 4.54933 120.069 4.49783C119.536 4.44633 119.176 4.80685 119.176 5.2532C119.176 5.75105 119.588 6.00857 119.588 6.00857C119.588 6.00857 119.176 6.26608 119.176 6.76394C119.176 7.21029 119.536 7.57081 120.069 7.5193C120.549 7.48497 121.425 6.84978 121.871 5.99141V6.02573Z" fill="url(#paint6_linear_0_345)"/>
<path d="M189.511 6.04285C189.82 6.62654 190.403 7.0557 190.73 7.07287C191.09 7.10721 191.348 6.86686 191.348 6.55785C191.348 6.2145 191.073 6.04285 191.073 6.04285C191.073 6.04285 191.348 5.87117 191.348 5.52782C191.348 5.21881 191.09 4.97846 190.73 5.01279C190.403 5.04713 189.803 5.47632 189.511 6.04285Z" fill="url(#paint7_linear_0_345)"/>
<path d="M189.665 6.18031L112.515 6.71252C112.138 6.71252 111.846 6.42067 111.846 6.06015C111.846 5.68247 112.138 5.39062 112.498 5.39062C112.498 5.39062 112.498 5.39062 112.515 5.39062L189.665 5.92281C189.665 5.92281 189.803 5.99148 189.803 6.06015C189.803 6.12882 189.734 6.19749 189.665 6.19749V6.18031Z" fill="url(#paint8_linear_0_345)"/>
<defs>
<linearGradient id="paint0_linear_0_345" x1="100.378" y1="-6.59891e-07" x2="89.2666" y2="11.5071" gradientUnits="userSpaceOnUse">
<stop stop-color="#158942"/>
<stop offset="1" stop-color="#00702B"/>
</linearGradient>
<linearGradient id="paint1_linear_0_345" x1="82.5407" y1="3.28857" x2="77.5115" y2="7.32254" gradientUnits="userSpaceOnUse">
<stop stop-color="#158942"/>
<stop offset="1" stop-color="#00702B"/>
</linearGradient>
<linearGradient id="paint2_linear_0_345" x1="67.9656" y1="4.49292" x2="65.2178" y2="6.72007" gradientUnits="userSpaceOnUse">
<stop stop-color="#158942"/>
<stop offset="1" stop-color="#00702B"/>
</linearGradient>
<linearGradient id="paint3_linear_0_345" x1="1.83687" y1="5.00952" x2="-0.036329" y2="6.52723" gradientUnits="userSpaceOnUse">
<stop stop-color="#158942"/>
<stop offset="1" stop-color="#00702B"/>
</linearGradient>
<linearGradient id="paint4_linear_0_345" x1="75.2961" y1="5.3562" x2="75.2479" y2="7.80486" gradientUnits="userSpaceOnUse">
<stop stop-color="#158942"/>
<stop offset="1" stop-color="#00702B"/>
</linearGradient>
<linearGradient id="paint5_linear_0_345" x1="109.494" y1="3.28857" x2="104.464" y2="7.32254" gradientUnits="userSpaceOnUse">
<stop stop-color="#158942"/>
<stop offset="1" stop-color="#00702B"/>
</linearGradient>
<linearGradient id="paint6_linear_0_345" x1="121.871" y1="4.49292" x2="119.123" y2="6.72007" gradientUnits="userSpaceOnUse">
<stop stop-color="#158942"/>
<stop offset="1" stop-color="#00702B"/>
</linearGradient>
<linearGradient id="paint7_linear_0_345" x1="191.348" y1="5.00952" x2="189.474" y2="6.52728" gradientUnits="userSpaceOnUse">
<stop stop-color="#158942"/>
<stop offset="1" stop-color="#00702B"/>
</linearGradient>
<linearGradient id="paint8_linear_0_345" x1="189.803" y1="5.39062" x2="189.757" y2="7.83939" gradientUnits="userSpaceOnUse">
<stop stop-color="#158942"/>
<stop offset="1" stop-color="#00702B"/>
</linearGradient>
</defs>
</svg>
