<svg width="19" height="19" viewBox="0 0 19 19" fill="none" xmlns="http://www.w3.org/2000/svg">
<mask id="mask0_0_1868" style="mask-type:alpha" maskUnits="userSpaceOnUse" x="0" y="0" width="19" height="19">
<g clip-path="url(#clip0_0_1868)">
<g clip-path="url(#clip1_0_1868)">
<path d="M18.1906 5.80538L16.0968 12.3986C16.0272 12.6248 15.8871 12.8227 15.697 12.9636C15.5069 13.1044 15.2768 13.1808 15.0401 13.1816H6.9605C6.7293 13.1828 6.50308 13.1145 6.31116 12.9856C6.11924 12.8566 5.97049 12.673 5.88418 12.4585L2.79259 4.1816H1.01283C0.810236 4.17424 0.61839 4.08858 0.477663 3.94265C0.336937 3.79671 0.258301 3.60188 0.258301 3.39915C0.258301 3.19642 0.336937 3.00159 0.477663 2.85565C0.61839 2.70972 0.810236 2.62406 1.01283 2.6167H3.34108C3.504 2.61867 3.66245 2.67024 3.79532 2.76454C3.92819 2.85884 4.02917 2.99139 4.0848 3.14453L7.27348 11.6146H14.7106L16.3737 6.33218H7.15572C7.05058 6.336 6.94574 6.31859 6.84748 6.28099C6.74921 6.24339 6.65953 6.18637 6.58379 6.11334C6.50806 6.0403 6.44782 5.95275 6.40667 5.85592C6.36553 5.75908 6.34432 5.65494 6.34432 5.54973C6.34432 5.44452 6.36553 5.34038 6.40667 5.24354C6.44782 5.14671 6.50806 5.05916 6.58379 4.98612C6.65953 4.91309 6.74921 4.85607 6.84748 4.81847C6.94574 4.78087 7.05058 4.76346 7.15572 4.76728H17.4469C17.5701 4.76916 17.6911 4.8003 17.8 4.85813C17.9088 4.91596 18.0023 4.99882 18.0729 5.09988C18.1489 5.19875 18.1995 5.31485 18.22 5.4379C18.2406 5.56095 18.2305 5.68716 18.1906 5.80538ZM7.35198 14.2187C7.05837 14.2191 6.77399 14.3214 6.54728 14.5079C6.32057 14.6945 6.16554 14.9539 6.1086 15.2419C6.05165 15.53 6.09631 15.8289 6.23497 16.0877C6.37363 16.3465 6.59771 16.5492 6.86906 16.6614C7.14041 16.7735 7.44225 16.7882 7.72317 16.7028C8.00409 16.6174 8.24673 16.4372 8.40977 16.1931C8.5728 15.9489 8.64615 15.6557 8.61733 15.3635C8.5885 15.0713 8.45928 14.7982 8.25167 14.5905C8.01184 14.3538 7.68893 14.2204 7.35198 14.2187ZM14.376 14.2187C14.0824 14.2191 13.798 14.3214 13.5713 14.5079C13.3446 14.6945 13.1895 14.9539 13.1326 15.2419C13.0756 15.53 13.1203 15.8289 13.259 16.0877C13.3976 16.3465 13.6217 16.5492 13.8931 16.6614C14.1644 16.7735 14.4662 16.7882 14.7472 16.7028C15.0281 16.6174 15.2707 16.4372 15.4338 16.1931C15.5968 15.9489 15.6701 15.6557 15.6413 15.3635C15.6125 15.0713 15.4833 14.7982 15.2757 14.5905C15.0358 14.3538 14.7129 14.2204 14.376 14.2187Z" fill="black"/>
</g>
</g>
</mask>
<g mask="url(#mask0_0_1868)">
<rect x="0.22998" y="0.689941" width="18" height="18" fill="white"/>
</g>
<defs>
<clipPath id="clip0_0_1868">
<rect width="18" height="18" fill="white" transform="translate(0.22998 0.689941)"/>
</clipPath>
<clipPath id="clip1_0_1868">
<rect width="18" height="14.1461" fill="white" transform="translate(0.22998 2.6167)"/>
</clipPath>
</defs>
</svg>
