<svg width="18" height="18" viewBox="0 0 18 18" fill="none" xmlns="http://www.w3.org/2000/svg">
<mask id="mask0_28_343" style="mask-type:alpha" maskUnits="userSpaceOnUse" x="0" y="0" width="18" height="18">
<g clip-path="url(#clip0_28_343)">
<path d="M17.9606 5.11544L15.8669 11.7087C15.7973 11.9348 15.6572 12.1328 15.4671 12.2736C15.2769 12.4145 15.0468 12.4909 14.8102 12.4917H6.73052C6.49932 12.4929 6.2731 12.4246 6.08118 12.2956C5.88926 12.1667 5.7405 11.9831 5.6542 11.7686L2.56261 3.49166H0.782854C0.580255 3.4843 0.38841 3.39864 0.247683 3.25271C0.106956 3.10677 0.0283203 2.91194 0.0283203 2.70921C0.0283203 2.50648 0.106956 2.31165 0.247683 2.16571C0.38841 2.01978 0.580255 1.93412 0.782854 1.92676H3.1111C3.27402 1.92873 3.43247 1.9803 3.56534 2.0746C3.69821 2.1689 3.79919 2.30145 3.85482 2.45459L7.0435 10.9247H14.4807L16.1437 5.64224H6.92574C6.8206 5.64606 6.71576 5.62865 6.6175 5.59105C6.51923 5.55345 6.42955 5.49643 6.35381 5.42339C6.27808 5.35036 6.21784 5.26281 6.17669 5.16597C6.13555 5.06914 6.11434 4.965 6.11434 4.85979C6.11434 4.75457 6.13555 4.65044 6.17669 4.5536C6.21784 4.45677 6.27808 4.36922 6.35381 4.29618C6.42955 4.22315 6.51923 4.16613 6.6175 4.12853C6.71576 4.09093 6.8206 4.07352 6.92574 4.07734H17.2169C17.3401 4.07922 17.4612 4.11036 17.57 4.16819C17.6788 4.22602 17.7724 4.30888 17.8429 4.40994C17.919 4.50881 17.9695 4.62491 17.99 4.74796C18.0106 4.87101 18.0005 4.99722 17.9606 5.11544ZM7.122 13.5287C6.82839 13.5292 6.54401 13.6314 6.3173 13.818C6.09059 14.0046 5.93556 14.264 5.87862 14.552C5.82167 14.84 5.86633 15.1389 6.00499 15.3977C6.14365 15.6565 6.36773 15.8593 6.63908 15.9714C6.91043 16.0836 7.21227 16.0982 7.49319 16.0128C7.77411 15.9274 8.01675 15.7473 8.17979 15.5031C8.34282 15.2589 8.41617 14.9658 8.38735 14.6736C8.35852 14.3814 8.2293 14.1082 8.02169 13.9006C7.78186 13.6639 7.45895 13.5304 7.122 13.5287ZM14.146 13.5287C13.8524 13.5292 13.568 13.6314 13.3413 13.818C13.1146 14.0046 12.9595 14.264 12.9026 14.552C12.8457 14.84 12.8903 15.1389 13.029 15.3977C13.1676 15.6565 13.3917 15.8593 13.6631 15.9714C13.9344 16.0836 14.2363 16.0982 14.5172 16.0128C14.7981 15.9274 15.0407 15.7473 15.2038 15.5031C15.3668 15.2589 15.4402 14.9658 15.4113 14.6736C15.3825 14.3814 15.2533 14.1082 15.0457 13.9006C14.8059 13.6639 14.4829 13.5304 14.146 13.5287Z" fill="black"/>
</g>
</mask>
<g mask="url(#mask0_28_343)">
<rect width="18" height="18" fill="white"/>
</g>
<defs>
<clipPath id="clip0_28_343">
<rect width="18" height="14.1461" fill="white" transform="translate(0 1.92676)"/>
</clipPath>
</defs>
</svg>
