<svg width="20" height="20" viewBox="0 0 20 20" fill="none" xmlns="http://www.w3.org/2000/svg">
<g id="Group">
<path id="Vector" d="M14.1666 2.49967H17.5C17.721 2.49967 17.9329 2.58747 18.0892 2.74375C18.2455 2.90003 18.3333 3.11199 18.3333 3.33301V16.6663C18.3333 16.8874 18.2455 17.0993 18.0892 17.2556C17.9329 17.4119 17.721 17.4997 17.5 17.4997H2.49996C2.27895 17.4997 2.06698 17.4119 1.9107 17.2556C1.75442 17.0993 1.66663 16.8874 1.66663 16.6663V3.33301C1.66663 3.11199 1.75442 2.90003 1.9107 2.74375C2.06698 2.58747 2.27895 2.49967 2.49996 2.49967H5.83329V0.833008H7.49996V2.49967H12.5V0.833008H14.1666V2.49967ZM3.33329 7.49967V15.833H16.6666V7.49967H3.33329ZM4.99996 10.833H9.16663V14.1663H4.99996V10.833Z" fill="#158942"/>
</g>
</svg>
