<svg width="26" height="26" viewBox="0 0 26 26" fill="none" xmlns="http://www.w3.org/2000/svg">
<circle cx="12.6808" cy="12.673" r="12.173" fill="#158942" stroke="white"/>
<g clip-path="url(#clip0_3813_16429)">
<path d="M10.9876 7.59961H14.3671L15.4936 8.7261H17.7466C17.896 8.7261 18.0392 8.78544 18.1448 8.89107C18.2505 8.9967 18.3098 9.13996 18.3098 9.28934V17.1748C18.3098 17.3242 18.2505 17.4674 18.1448 17.573C18.0392 17.6787 17.896 17.738 17.7466 17.738H7.60817C7.45878 17.738 7.31552 17.6787 7.20989 17.573C7.10426 17.4674 7.04492 17.3242 7.04492 17.1748V9.28934C7.04492 9.13996 7.10426 8.9967 7.20989 8.89107C7.31552 8.78544 7.45878 8.7261 7.60817 8.7261H9.86115L10.9876 7.59961ZM12.6774 16.6115C13.5737 16.6115 14.4332 16.2555 15.067 15.6217C15.7008 14.9879 16.0568 14.1283 16.0568 13.2321C16.0568 12.3358 15.7008 11.4762 15.067 10.8424C14.4332 10.2086 13.5737 9.85259 12.6774 9.85259C11.7811 9.85259 10.9215 10.2086 10.2877 10.8424C9.65395 11.4762 9.2979 12.3358 9.2979 13.2321C9.2979 14.1283 9.65395 14.9879 10.2877 15.6217C10.9215 16.2555 11.7811 16.6115 12.6774 16.6115ZM12.6774 15.485C12.0798 15.485 11.5068 15.2477 11.0843 14.8252C10.6618 14.4026 10.4244 13.8296 10.4244 13.2321C10.4244 12.6345 10.6618 12.0615 11.0843 11.639C11.5068 11.2164 12.0798 10.9791 12.6774 10.9791C13.2749 10.9791 13.848 11.2164 14.2705 11.639C14.693 12.0615 14.9303 12.6345 14.9303 13.2321C14.9303 13.8296 14.693 14.4026 14.2705 14.8252C13.848 15.2477 13.2749 15.485 12.6774 15.485Z" fill="white"/>
</g>
<defs>
<clipPath id="clip0_3813_16429">
<rect width="13.5179" height="13.5179" fill="white" transform="translate(5.91797 5.91016)"/>
</clipPath>
</defs>
</svg>
