<svg width="23" height="23" viewBox="0 0 23 23" fill="none" xmlns="http://www.w3.org/2000/svg">
<path d="M4.16719 5.68112L0.789062 2.30404L2.26302 0.830078L5.6401 4.2082H21.5172C21.6795 4.20819 21.8397 4.24613 21.9848 4.319C22.1298 4.39187 22.2559 4.49764 22.3528 4.62789C22.4498 4.75813 22.515 4.90923 22.5431 5.06913C22.5713 5.22903 22.5617 5.3933 22.5151 5.54883L20.0151 13.8822C19.9508 14.0968 19.819 14.285 19.6392 14.4188C19.4594 14.5526 19.2413 14.6249 19.0172 14.6249H6.25052V16.7082H17.7089V18.7915H5.20885C4.93259 18.7915 4.66763 18.6818 4.47228 18.4864C4.27693 18.2911 4.16719 18.0261 4.16719 17.7499V5.68112ZM5.72969 22.9582C5.31529 22.9582 4.91786 22.7936 4.62483 22.5006C4.33181 22.2075 4.16719 21.8101 4.16719 21.3957C4.16719 20.9813 4.33181 20.5839 4.62483 20.2908C4.91786 19.9978 5.31529 19.8332 5.72969 19.8332C6.14409 19.8332 6.54152 19.9978 6.83454 20.2908C7.12757 20.5839 7.29219 20.9813 7.29219 21.3957C7.29219 21.8101 7.12757 22.2075 6.83454 22.5006C6.54152 22.7936 6.14409 22.9582 5.72969 22.9582ZM18.2297 22.9582C17.8153 22.9582 17.4179 22.7936 17.1248 22.5006C16.8318 22.2075 16.6672 21.8101 16.6672 21.3957C16.6672 20.9813 16.8318 20.5839 17.1248 20.2908C17.4179 19.9978 17.8153 19.8332 18.2297 19.8332C18.6441 19.8332 19.0415 19.9978 19.3345 20.2908C19.6276 20.5839 19.7922 20.9813 19.7922 21.3957C19.7922 21.8101 19.6276 22.2075 19.3345 22.5006C19.0415 22.7936 18.6441 22.9582 18.2297 22.9582Z" fill="#158942"/>
</svg>
