<svg width="18" height="18" viewBox="0 0 18 18" fill="none" xmlns="http://www.w3.org/2000/svg">
<mask id="mask0_3121_5160" style="mask-type:alpha" maskUnits="userSpaceOnUse" x="0" y="0" width="18" height="18">
<g clip-path="url(#clip0_3121_5160)">
<path d="M17.9606 5.11569L15.8669 11.7089C15.7973 11.9351 15.6572 12.133 15.4671 12.2739C15.2769 12.4148 15.0468 12.4911 14.8102 12.4919H6.73052C6.49932 12.4931 6.2731 12.4248 6.08118 12.2959C5.88926 12.1669 5.7405 11.9833 5.6542 11.7688L2.56261 3.4919H0.782854C0.580255 3.48454 0.38841 3.39888 0.247683 3.25295C0.106956 3.10702 0.0283203 2.91219 0.0283203 2.70945C0.0283203 2.50672 0.106956 2.31189 0.247683 2.16596C0.38841 2.02002 0.580255 1.93436 0.782854 1.927H3.1111C3.27402 1.92897 3.43247 1.98054 3.56534 2.07484C3.69821 2.16914 3.79919 2.30169 3.85482 2.45483L7.0435 10.9249H14.4807L16.1437 5.64248H6.92574C6.8206 5.64631 6.71576 5.6289 6.6175 5.59129C6.51923 5.55369 6.42955 5.49667 6.35381 5.42364C6.27808 5.3506 6.21784 5.26305 6.17669 5.16622C6.13555 5.06938 6.11434 4.96525 6.11434 4.86003C6.11434 4.75482 6.13555 4.65068 6.17669 4.55385C6.21784 4.45701 6.27808 4.36946 6.35381 4.29643C6.42955 4.22339 6.51923 4.16637 6.6175 4.12877C6.71576 4.09117 6.8206 4.07376 6.92574 4.07758H17.2169C17.3401 4.07947 17.4612 4.11061 17.57 4.16843C17.6788 4.22626 17.7724 4.30912 17.8429 4.41019C17.919 4.50906 17.9695 4.62515 17.99 4.7482C18.0106 4.87125 18.0005 4.99747 17.9606 5.11569ZM7.122 13.529C6.82839 13.5294 6.54401 13.6317 6.3173 13.8182C6.09059 14.0048 5.93556 14.2642 5.87862 14.5522C5.82167 14.8403 5.86633 15.1392 6.00499 15.398C6.14365 15.6568 6.36773 15.8595 6.63908 15.9717C6.91043 16.0838 7.21227 16.0985 7.49319 16.0131C7.77411 15.9277 8.01675 15.7476 8.17979 15.5034C8.34282 15.2592 8.41617 14.966 8.38735 14.6738C8.35852 14.3816 8.2293 14.1085 8.02169 13.9008C7.78186 13.6641 7.45895 13.5307 7.122 13.529ZM14.146 13.529C13.8524 13.5294 13.568 13.6317 13.3413 13.8182C13.1146 14.0048 12.9595 14.2642 12.9026 14.5522C12.8457 14.8403 12.8903 15.1392 13.029 15.398C13.1676 15.6568 13.3917 15.8595 13.6631 15.9717C13.9344 16.0838 14.2363 16.0985 14.5172 16.0131C14.7981 15.9277 15.0407 15.7476 15.2038 15.5034C15.3668 15.2592 15.4402 14.966 15.4113 14.6738C15.3825 14.3816 15.2533 14.1085 15.0457 13.9008C14.8059 13.6641 14.4829 13.5307 14.146 13.529Z" fill="black"/>
</g>
</mask>
<g mask="url(#mask0_3121_5160)">
<rect width="18" height="18" fill="white"/>
</g>
<defs>
<clipPath id="clip0_3121_5160">
<rect width="18" height="14.1461" fill="white" transform="translate(0 1.927)"/>
</clipPath>
</defs>
</svg>
