<svg width="18" height="18" viewBox="0 0 18 18" fill="none" xmlns="http://www.w3.org/2000/svg">
<g id="Group">
<path id="Vector" d="M15.75 15H17.25V16.5H0.75V15H2.25V2.25C2.25 2.05109 2.32902 1.86032 2.46967 1.71967C2.61032 1.57902 2.80109 1.5 3 1.5H15C15.1989 1.5 15.3897 1.57902 15.5303 1.71967C15.671 1.86032 15.75 2.05109 15.75 2.25V15ZM8.25 6H6.75V7.5H8.25V9H9.75V7.5H11.25V6H9.75V4.5H8.25V6ZM10.5 15H12V10.5H6V15H7.5V12H10.5V15Z" fill="url(#paint0_linear_56_2347)"/>
</g>
<defs>
<linearGradient id="paint0_linear_56_2347" x1="17.25" y1="1.5" x2="3.35177" y2="15.436" gradientUnits="userSpaceOnUse">
<stop stop-color="#158942"/>
<stop offset="1" stop-color="#00702B"/>
</linearGradient>
</defs>
</svg>
