<svg width="60" height="60" viewBox="0 0 60 60" fill="none" xmlns="http://www.w3.org/2000/svg">
<rect x="0.5" y="0.5" width="59" height="59" rx="7.5" fill="#FFF5F5" stroke="#FFECEC"/>
<g clip-path="url(#clip0_3813_16455)">
<path fill-rule="evenodd" clip-rule="evenodd" d="M22.4525 14.0234H33.9288C34.8806 14.0234 35.7494 14.4122 36.3687 15.0359C36.9969 15.6647 37.38 16.5291 37.38 17.4766V21.8672H36.1856V17.4434H20.1894V41.1828H36.1856V32.2009H37.38V42.5259C37.38 43.4784 36.9919 44.3478 36.3687 44.9659C35.7394 45.5953 34.8756 45.9778 33.9288 45.9778H22.4525C21.4994 45.9778 20.6306 45.5903 20.0119 44.9659C19.3831 44.3384 19 43.4741 19 42.5259V17.4716C19 16.5191 19.3875 15.6497 20.0119 15.0303C20.64 14.4028 21.4994 14.0234 22.4525 14.0234ZM40.75 24.2459V29.0697C40.75 29.3978 40.4825 29.6659 40.1537 29.6659H36.8069L35.4069 30.9116C35.2663 31.0691 35.0006 30.9716 35.0006 30.7566L34.9306 29.6659H33.905C33.5775 29.6659 33.3088 29.3972 33.3088 29.0697V24.2459C33.3088 23.9197 33.5787 23.6503 33.905 23.6503H40.1537C40.48 23.6503 40.75 23.9191 40.75 24.2459ZM35.1825 26.1947C35.0138 26.1947 34.8763 26.0578 34.8763 25.8891C34.8763 25.7203 35.0138 25.5828 35.1825 25.5828H39.125C39.2938 25.5828 39.4306 25.7203 39.4306 25.8891C39.4306 26.0578 39.2938 26.1947 39.125 26.1947H35.1825ZM35.1825 27.8259C35.0138 27.8259 34.8763 27.6891 34.8763 27.5203C34.8763 27.3509 35.0138 27.2141 35.1825 27.2141H38.3975C38.5662 27.2141 38.7031 27.3509 38.7031 27.5203C38.7031 27.6891 38.5662 27.8259 38.3975 27.8259H35.1825ZM21.8056 18.7709H23.4731C23.6394 18.7709 23.7756 18.9072 23.7756 19.0734V19.3953L24.7387 18.8166V20.6428L23.7756 20.1234V20.5422C23.7756 20.7084 23.6394 20.8441 23.4731 20.8441H21.8056C21.6388 20.8441 21.5031 20.7084 21.5031 20.5422V19.0734C21.5033 18.9933 21.5352 18.9164 21.5919 18.8597C21.6486 18.803 21.7254 18.7711 21.8056 18.7709ZM26.7463 31.7697L28.3337 32.8759L29.8237 31.6347C29.7412 31.5084 29.6569 31.3422 29.5913 31.1691C30.2531 31.6341 30.3963 32.6116 30.3744 33.4016C30.3713 33.5009 30.3681 33.5297 30.3663 33.5628C29.95 33.6559 29.6538 34.0253 29.6538 34.4516C29.6538 34.7028 29.7556 34.9309 29.9206 35.0953C30.2419 35.4166 30.71 35.4897 31.1225 35.1678C31.3356 35.0009 31.4725 34.7416 31.4725 34.4503C31.4725 34.2972 31.4319 34.1591 31.3619 34.0372C31.2087 33.7722 31.0425 33.6941 30.7881 33.5672C30.77 33.5578 30.7887 33.5191 30.7919 33.4109C30.8056 32.9328 30.7719 32.4272 30.6425 31.9734C30.755 32.0322 30.8725 32.0791 30.9931 32.1184C31.3938 32.2128 31.9175 32.2222 32.3837 32.3522C34.6269 32.9791 34.4981 33.8172 34.8 36.4291C34.7681 36.7634 34.5787 36.9559 34.2056 36.9841H22.1737C21.8012 36.9559 21.6112 36.7622 21.5794 36.4291C21.7506 33.5528 22.5456 32.5084 25.1975 32.1197C25.4338 32.0853 25.6569 32.0397 25.8544 31.9866C25.7613 32.2703 25.7094 32.5547 25.6931 32.8009C25.5862 32.8791 25.3206 32.9703 25.2362 33.0722C25.0885 33.2482 24.9567 33.4371 24.8425 33.6366C24.8238 33.6684 24.8137 33.7047 24.8137 33.7409C24.8137 33.7697 24.8444 33.7991 24.8313 33.8241L24.8119 33.8616C24.5469 34.3778 24.3738 34.9459 24.4563 35.1909C24.4944 35.3072 24.5869 35.3834 24.7231 35.4259C24.8595 35.4615 25.0008 35.4742 25.1413 35.4634C25.1969 35.5147 25.28 35.5534 25.3556 35.5534C25.3985 35.5534 25.4407 35.5427 25.4784 35.5221C25.516 35.5015 25.5479 35.4719 25.5711 35.4358C25.5943 35.3997 25.6081 35.3584 25.6112 35.3156C25.6142 35.2728 25.6065 35.23 25.5887 35.1909C25.4837 34.9491 25.1569 35.0141 25.1206 35.1434C25.1163 35.1578 25.12 35.1641 25.1137 35.1753C25.0919 35.1766 25.07 35.1778 25.0481 35.1778C24.9681 35.1778 24.8875 35.1697 24.81 35.1491C24.7644 35.1372 24.7375 35.1191 24.7319 35.0997C24.6725 34.9284 24.8344 34.4528 25.0681 33.9934C25.0775 33.9747 25.0869 33.9559 25.0969 33.9378C25.1419 33.9212 25.1796 33.8891 25.2031 33.8472C25.304 33.6699 25.4205 33.5019 25.5512 33.3453C25.5919 33.2972 25.7206 33.2216 25.8169 33.1872C25.8694 33.1691 25.9 33.1553 25.9425 33.1878C25.9975 33.2291 26.0487 33.2759 26.0944 33.3278C26.2338 33.4853 26.3569 33.6584 26.4619 33.8409C26.4856 33.8822 26.5425 33.8909 26.5675 33.9316C26.8369 34.3684 26.9894 34.8703 26.9531 35.0609C26.945 35.1059 26.9081 35.1328 26.85 35.1516C26.7631 35.1741 26.6725 35.1872 26.5825 35.1891C26.5656 35.1547 26.5781 35.1728 26.5681 35.1391C26.5462 35.0641 26.4275 35.0297 26.3431 35.0266C26.2369 35.0234 26.1425 35.0934 26.1 35.1909C26.0256 35.3609 26.1438 35.5534 26.3331 35.5534C26.4031 35.5534 26.4769 35.5203 26.5312 35.4778C26.5431 35.4778 26.5556 35.4784 26.5675 35.4784C26.6944 35.4784 26.8219 35.4634 26.9425 35.4259C27.0975 35.3766 27.2069 35.2791 27.2381 35.1141C27.2831 34.8653 27.1025 34.3153 26.8356 33.8172C26.8463 33.7909 26.8519 33.7628 26.8519 33.7347C26.8519 33.6972 26.8419 33.6603 26.8231 33.6278C26.7031 33.4205 26.5628 33.2256 26.4044 33.0459C26.32 32.9503 26.1331 32.9228 26.1137 32.7966C26.0625 32.4666 26.205 32.0578 26.4187 31.7028C26.6412 31.4259 26.5419 31.3809 26.9488 31.2209C26.8381 31.1384 26.7331 31.0416 26.6287 30.9509C26.2175 30.5959 25.8738 30.2941 25.8081 29.5666C25.1975 29.5122 24.9306 28.2741 25.3756 27.8916C25.2294 27.7947 25.6469 25.7003 24.6025 25.3847C26.2775 23.3153 28.1163 22.9347 29.6569 24.2022C31.2594 24.2859 32.0319 26.6034 30.9425 27.8509C31.4831 27.9722 31.2806 28.9022 31.0519 29.2466C30.9187 29.4478 30.7419 29.5809 30.5369 29.5684C30.5231 30.2322 30.1981 30.5391 29.7744 30.9372C29.5037 31.1928 29.3013 31.3872 28.935 31.5184C28.5031 31.6722 27.945 31.6691 27.5112 31.5209C27.3412 31.4628 27.1275 31.3759 26.9775 31.2828C26.9125 31.4728 26.835 31.6328 26.7463 31.7697ZM30.5744 34.0428C30.6292 34.0428 30.6834 34.0536 30.7341 34.0746C30.7847 34.0956 30.8307 34.1264 30.8694 34.1651C30.9081 34.2039 30.9388 34.2499 30.9597 34.3006C30.9806 34.3512 30.9913 34.4055 30.9913 34.4603C30.9913 34.6903 30.805 34.8772 30.5744 34.8772C30.3438 34.8772 30.1569 34.6903 30.1569 34.4603C30.1569 34.3496 30.2009 34.2434 30.2792 34.1651C30.3575 34.0868 30.4636 34.0428 30.5744 34.0428ZM28.8744 31.1766C29.1588 31.0616 29.325 30.8928 29.5387 30.6897C29.9456 30.3078 30.2456 30.0259 30.1881 29.3409C30.1856 29.3041 30.195 29.2659 30.2163 29.2328C30.2415 29.1953 30.2805 29.1692 30.3249 29.1603C30.3693 29.1514 30.4154 29.1604 30.4531 29.1853C30.5681 29.2616 30.6825 29.1866 30.7681 29.0578C30.8819 28.8853 31.0387 28.3916 30.8975 28.2097C30.8575 28.1578 30.7481 28.1784 30.5387 28.3378C30.5012 28.3703 30.4506 28.3866 30.3975 28.3778C30.3754 28.374 30.3542 28.3659 30.3352 28.3539C30.3162 28.3419 30.2998 28.3263 30.2868 28.308C30.2739 28.2896 30.2647 28.2689 30.2598 28.247C30.2548 28.2251 30.2543 28.2024 30.2581 28.1803C30.4075 27.3084 30.3325 26.7678 30.1419 26.4091C29.9756 26.0972 29.7094 25.9134 29.4269 25.7628C28.7975 26.2434 28.3544 26.2984 27.9125 26.3528C27.5487 26.3972 27.1856 26.4428 26.705 26.7753C26.4775 26.9328 26.3256 27.1234 26.2488 27.3447C26.1706 27.5678 26.165 27.8291 26.2288 28.1234C26.2431 28.1753 26.2325 28.2341 26.1956 28.2784C26.1363 28.3516 26.0275 28.3616 25.955 28.3016C25.7456 28.1284 25.6263 28.1116 25.5744 28.1747C25.3781 28.4128 25.5738 29.3216 25.9181 29.2159L25.9637 29.2091C26.009 29.208 26.0528 29.2249 26.0856 29.256C26.1184 29.2872 26.1375 29.3301 26.1388 29.3753C26.1556 30.0853 26.4694 30.3628 26.8519 30.6922C27.1025 30.9097 27.2937 31.0859 27.6213 31.1978C28.0244 31.3353 28.4719 31.3009 28.8744 31.1766ZM28.1856 42.2628C28.9669 42.2628 29.605 42.8916 29.605 43.6816C29.605 44.4634 28.9762 45.1016 28.1856 45.1016C27.4044 45.1016 26.7656 44.4734 26.7656 43.6816C26.7656 42.9016 27.3944 42.2628 28.1856 42.2628Z" fill="#FF4D4D"/>
</g>
<defs>
<clipPath id="clip0_3813_16455">
<rect width="21.75" height="32" fill="white" transform="translate(19 14)"/>
</clipPath>
</defs>
</svg>
