<svg width="581" height="372" viewBox="0 0 581 372" fill="none" xmlns="http://www.w3.org/2000/svg">
<path fill-rule="evenodd" clip-rule="evenodd" d="M104.231 260.277C109.501 257.186 109.501 249.567 104.231 246.476L4.51835 187.988C0.742874 185.774 -0.55194 180.936 1.61253 177.132L80.8879 37.7918C83.0916 33.9184 88.0357 32.5924 91.8819 34.8433L191.217 92.9751C196.548 96.0949 203.253 92.2528 203.257 86.0758L203.31 7.70244C203.312 3.28625 206.893 -0.292236 211.31 -0.292236H369.69C374.107 -0.292236 377.687 3.28624 377.69 7.70244L377.743 86.0757C377.747 92.2527 384.452 96.0949 389.783 92.975L489.117 34.8433C492.963 32.5924 497.907 33.9184 500.111 37.7918L579.387 177.132C581.552 180.936 580.257 185.774 576.482 187.988L476.768 246.476C471.498 249.567 471.498 257.186 476.768 260.277L576.482 318.765C580.257 320.979 581.552 325.817 579.387 329.621L500.111 468.961C497.907 472.835 492.963 474.161 489.117 471.91L389.763 413.766C384.436 410.649 377.735 414.482 377.722 420.654L377.702 430.054C377.693 434.466 374.114 438.037 369.702 438.037H211.298C206.886 438.037 203.307 434.466 203.298 430.054L203.278 420.654C203.265 414.482 196.564 410.649 191.237 413.766L91.8819 471.91C88.0357 474.161 83.0916 472.835 80.8879 468.961L1.61251 329.621C-0.551951 325.817 0.742855 320.979 4.51833 318.765L104.231 260.277Z" fill="white" fill-opacity="0.14"/>
</svg>
