<svg width="24" height="24" viewBox="0 0 24 24" fill="none" xmlns="http://www.w3.org/2000/svg">
<path id="Vector" fill-rule="evenodd" clip-rule="evenodd" d="M5.622 18.2947C5.21979 18.5411 4.9176 18.9217 4.76883 19.3693C4.62005 19.8169 4.63426 20.3027 4.80895 20.7408C4.98363 21.1789 5.30755 21.5412 5.72348 21.7637C6.13941 21.9862 6.62057 22.0545 7.08197 21.9565C7.54338 21.8586 7.95532 21.6007 8.24503 21.2285C8.53474 20.8563 8.68357 20.3937 8.66522 19.9223C8.64688 19.451 8.46254 19.0013 8.14478 18.6527C7.82702 18.3042 7.39628 18.0791 6.92867 18.0173C6.90369 17.9279 6.8808 17.8379 6.86 17.7473C6.76921 17.3354 6.69802 16.9194 6.64667 16.5007C6.59155 16.0774 6.56039 15.6514 6.55333 15.2247C6.55225 15.1075 6.55559 14.9903 6.56333 14.8733C6.81978 14.7996 7.07644 14.7336 7.33333 14.6753C7.62733 14.6087 7.802 14.9553 7.94267 15.2367L8 15.3493H15.8327C15.9853 15.06 16.3313 14.5987 16.6667 14.6753C17.0249 14.7571 17.3824 14.8533 17.7393 14.964L17.7373 14.9647C17.736 14.9633 17.736 14.9638 17.7373 14.966C17.74 14.9753 17.7547 15.0193 17.7693 15.1127C17.7862 15.2211 17.7973 15.36 17.8027 15.5293C17.812 15.8653 17.7927 16.274 17.7533 16.686C17.7133 17.0973 17.654 17.4953 17.5873 17.8093C17.5727 17.8791 17.558 17.9427 17.5433 18H16.6667C16.5429 18.0001 16.4216 18.0346 16.3163 18.0997C16.2111 18.1648 16.126 18.2579 16.0707 18.3687L15.404 19.702C15.3576 19.7945 15.3334 19.8965 15.3333 20V21.3333C15.3333 21.5101 15.4036 21.6797 15.5286 21.8047C15.6536 21.9298 15.8232 22 16 22H17.3333V20.6667H16.6667V20.1573L17.0787 19.3333H18.9213L19.3333 20.1573V20.6667H18.6667V22H20C20.1768 22 20.3464 21.9298 20.4714 21.8047C20.5964 21.6797 20.6667 21.5101 20.6667 21.3333V20C20.6666 19.8965 20.6424 19.7945 20.596 19.702L19.9293 18.3687C19.874 18.2579 19.7889 18.1648 19.6837 18.0997C19.5784 18.0346 19.4571 18.0001 19.3333 18H18.9093C18.9807 17.6447 19.04 17.23 19.08 16.814C19.124 16.3647 19.1467 15.8987 19.1353 15.492L19.1347 15.4733C21.7933 16.5967 24 18.444 24 20.38V24H0V20.38C0 18.3587 2.40667 16.4333 5.22067 15.3287C5.228 15.7433 5.26733 16.212 5.324 16.666C5.38533 17.156 5.46867 17.6433 5.56067 18.0447C5.58067 18.1304 5.60111 18.2138 5.622 18.2947ZM6.66667 20.6767C7.02533 20.6767 7.33333 20.3833 7.33333 20C7.33333 19.6173 7.02533 19.3233 6.66667 19.3233C6.308 19.3233 6 19.6167 6 20C6 20.3827 6.308 20.6767 6.66667 20.6767ZM12 12C13.4145 12 14.771 11.4381 15.7712 10.4379C16.7714 9.43771 17.3333 8.08115 17.3333 6.66667C17.3333 5.25218 16.7714 3.89562 15.7712 2.89543C14.771 1.89524 13.4145 1.33333 12 1.33333C10.5855 1.33333 9.22896 1.89524 8.22876 2.89543C7.22857 3.89562 6.66667 5.25218 6.66667 6.66667C6.66667 8.08115 7.22857 9.43771 8.22876 10.4379C9.22896 11.4381 10.5855 12 12 12ZM12 13.3333C15.682 13.3333 18.6667 10.3487 18.6667 6.66667C18.6667 2.98467 15.682 0 12 0C8.318 0 5.33333 2.98467 5.33333 6.66667C5.33333 10.3487 8.318 13.3333 12 13.3333Z" fill="url(#paint0_linear_3121_9321)"/>
<defs>
<linearGradient id="paint0_linear_3121_9321" x1="24" y1="-1.31978e-06" x2="1.85774" y2="20.1841" gradientUnits="userSpaceOnUse">
<stop stop-color="#158942"/>
<stop offset="1" stop-color="#00702B"/>
</linearGradient>
</defs>
</svg>
