<svg width="66" height="193" viewBox="0 0 66 193" fill="none" xmlns="http://www.w3.org/2000/svg">
<path fill-rule="evenodd" clip-rule="evenodd" d="M124.746 184.013H124.722C123.7 184.013 122.804 184.418 122.057 185.001C121.914 185.115 121.734 185.181 121.605 185.31C120.889 186.03 120.475 187.015 120.385 188.09C120.376 188.21 120.316 188.315 120.316 188.438C120.316 188.984 120.445 189.495 120.628 189.975C120.688 190.131 120.763 190.266 120.838 190.413C120.999 190.728 121.194 191.02 121.428 191.287C121.542 191.419 121.644 191.554 121.773 191.671C122.126 191.992 122.516 192.274 122.959 192.47H122.962C123.511 192.713 124.11 192.86 124.746 192.86C126.715 192.86 128.324 191.551 128.896 189.765C129.049 189.356 129.154 188.93 129.157 188.462C129.157 188.453 129.163 188.447 129.163 188.438C129.163 185.991 127.185 184.013 124.746 184.013ZM186.543 131.266C186.114 131.086 185.638 131.017 185.149 130.984C185.062 130.981 184.994 130.933 184.904 130.933H184.88C182.44 130.933 180.474 132.913 180.474 135.359C180.474 135.953 180.6 136.514 180.813 137.024C180.963 137.391 181.209 137.685 181.439 137.994C181.535 138.111 181.589 138.255 181.691 138.363C182.425 139.143 183.438 139.623 184.571 139.713C184.577 139.713 184.583 139.716 184.589 139.719V139.716C184.697 139.725 184.793 139.779 184.904 139.779C187.343 139.779 189.321 137.799 189.321 135.359C189.321 133.498 188.167 131.92 186.543 131.266ZM34.5084 53.0807H34.4844C32.045 53.0807 30.079 55.0613 30.079 57.5041C30.079 59.9439 32.069 61.9275 34.5084 61.9275C36.9449 61.9275 38.9258 59.9439 38.9258 57.5041C38.9258 55.0613 36.9449 53.0807 34.5084 53.0807ZM34.5084 157.473H34.4844C32.045 157.473 30.079 159.451 30.079 161.898C30.079 164.338 32.069 166.319 34.5084 166.319C36.9449 166.319 38.9258 164.338 38.9258 161.898C38.9258 159.451 36.9449 157.473 34.5084 157.473ZM64.5875 88.4679C67.0269 88.4679 69.0049 86.4842 69.0049 84.0445C69.0049 81.5987 67.0269 79.6211 64.5875 79.6211H64.5665C62.124 79.6211 60.1581 81.5987 60.1581 84.0445C60.1581 86.4842 62.148 88.4679 64.5875 88.4679ZM34.5084 26.5404H34.4844C32.045 26.5404 30.079 28.521 30.079 30.9637C30.079 33.4065 32.069 35.3871 34.5084 35.3871C36.9449 35.3871 38.9258 33.4065 38.9258 30.9637C38.9258 28.521 36.9449 26.5404 34.5084 26.5404ZM34.5084 104.392H34.4844C32.045 104.392 30.079 106.373 30.079 108.815C30.079 111.258 32.069 113.239 34.5084 113.239C36.9449 113.239 38.9258 111.258 38.9258 108.815C38.9258 106.373 36.9449 104.392 34.5084 104.392ZM34.5084 130.933H34.4844C32.045 130.933 30.079 132.913 30.079 135.359C30.079 137.799 32.069 139.779 34.5084 139.779C36.9449 139.779 38.9258 137.799 38.9258 135.359C38.9258 132.913 36.9449 130.933 34.5084 130.933ZM64.5875 35.3871C67.0269 35.3871 69.0049 33.4065 69.0049 30.9637C69.0049 28.521 67.0269 26.5404 64.5875 26.5404H64.5665C62.124 26.5404 60.1581 28.521 60.1581 30.9637C60.1581 33.4065 62.148 35.3871 64.5875 35.3871ZM64.5875 61.9275C67.0269 61.9275 69.0049 59.9439 69.0049 57.5041C69.0049 55.0613 67.0269 53.0807 64.5875 53.0807H64.5665C62.124 53.0807 60.1581 55.0613 60.1581 57.5041C60.1581 59.9439 62.148 61.9275 64.5875 61.9275ZM64.5875 8.84678C67.0269 8.84678 69.0049 6.86616 69.0049 4.42339C69.0049 1.98062 67.0269 0 64.5875 0H64.5665C62.124 0 60.1581 1.98062 60.1581 4.42339C60.1581 6.86616 62.148 8.84678 64.5875 8.84678ZM34.5084 79.6211H34.4844C32.045 79.6211 30.079 81.5987 30.079 84.0445C30.079 86.4842 32.069 88.4679 34.5084 88.4679C36.9449 88.4679 38.9258 86.4842 38.9258 84.0445C38.9258 81.5987 36.9449 79.6211 34.5084 79.6211ZM4.43238 104.392H4.40541C1.96595 104.392 0 106.373 0 108.815C0 111.258 1.99292 113.239 4.43238 113.239C6.87184 113.239 8.84678 111.258 8.84678 108.815C8.84678 106.373 6.87184 104.392 4.43238 104.392ZM4.43238 79.6211H4.40541C1.96595 79.6211 0 81.5987 0 84.0445C0 86.4842 1.99292 88.4679 4.43238 88.4679C6.87184 88.4679 8.84678 86.4842 8.84678 84.0445C8.84678 81.5987 6.87184 79.6211 4.43238 79.6211ZM4.43088 130.933H4.4039C3.84929 130.933 3.33066 131.059 2.848 131.251C2.60217 131.344 2.39831 131.494 2.17647 131.629C1.9906 131.746 1.80173 131.851 1.63385 131.998C1.34306 132.235 1.11522 132.511 0.893372 132.817C0.851401 132.88 0.809431 132.937 0.76746 133.006C0.527629 133.378 0.350753 133.768 0.230838 134.207L0.22784 134.21V134.213C0.125911 134.585 0 134.951 0 135.359C0 137.099 1.03427 138.573 2.50024 139.293V139.296H2.50324C3.08783 139.581 3.71739 139.77 4.4069 139.773C4.41589 139.773 4.42189 139.779 4.43088 139.779C6.87117 139.779 8.84678 137.799 8.84678 135.359C8.84678 134.747 8.72386 134.165 8.49902 133.636C7.83049 132.049 6.2596 130.933 4.43088 130.933ZM154.825 79.6211H154.801C152.361 79.6211 150.395 81.5987 150.395 84.0445C150.395 86.4842 152.385 88.4679 154.825 88.4679C157.264 88.4679 159.242 86.4842 159.242 84.0445C159.242 81.5987 157.264 79.6211 154.825 79.6211ZM4.43088 53.0807H4.4039C3.90026 53.0807 3.43558 53.1917 2.99789 53.3658C2.59917 53.5038 2.25142 53.7109 1.91565 53.951C1.91265 53.951 1.91265 53.951 1.90966 53.954C0.779452 54.7552 0 56.0096 0 57.5041C0 57.6932 0.083941 57.8522 0.107924 58.0383H0.104926C0.104926 58.0443 0.107924 58.0473 0.110922 58.0503C0.248825 59.1276 0.731485 60.0789 1.50194 60.7691C1.60687 60.8652 1.73878 60.9192 1.8497 61.0032C2.15249 61.2253 2.44328 61.4563 2.80003 61.5974C3.30068 61.8045 3.84629 61.9275 4.43088 61.9275C6.2596 61.9275 7.83049 60.8141 8.49902 59.2236C8.72386 58.6955 8.84678 58.1133 8.84678 57.5041C8.84678 56.8949 8.72386 56.3127 8.49902 55.7846C7.83049 54.1941 6.2596 53.0807 4.43088 53.0807ZM154.825 104.392H154.801C152.361 104.392 150.395 106.373 150.395 108.815C150.395 111.258 152.385 113.239 154.825 113.239C157.264 113.239 159.242 111.258 159.242 108.815C159.242 106.373 157.264 104.392 154.825 104.392ZM154.825 53.0807H154.801C152.361 53.0807 150.395 55.0613 150.395 57.5041C150.395 59.9439 152.385 61.9275 154.825 61.9275C157.264 61.9275 159.242 59.9439 159.242 57.5041C159.242 55.0613 157.264 53.0807 154.825 53.0807ZM154.825 157.473H154.801C152.361 157.473 150.395 159.451 150.395 161.898C150.395 164.338 152.385 166.319 154.825 166.319C157.264 166.319 159.242 164.338 159.242 161.898C159.242 159.451 157.264 157.473 154.825 157.473ZM154.825 130.933H154.801C152.361 130.933 150.395 132.913 150.395 135.359C150.395 137.799 152.385 139.779 154.825 139.779C157.264 139.779 159.242 137.799 159.242 135.359C159.242 132.913 157.264 130.933 154.825 130.933ZM124.747 8.84678C127.186 8.84678 129.163 6.86616 129.163 4.42339C129.163 4.42339 129.16 4.42039 129.16 4.41739C129.16 3.70016 128.95 3.04896 128.645 2.44877C128.615 2.39175 128.576 2.34974 128.543 2.29572C128.222 1.72854 127.785 1.25739 127.255 0.879276H127.252C126.53 0.366115 125.697 0 124.747 0H124.723C122.284 0 120.316 1.98062 120.316 4.42339C120.316 6.86616 122.308 8.84678 124.747 8.84678ZM154.825 26.5404H154.801C152.361 26.5404 150.395 28.521 150.395 30.9637C150.395 33.4065 152.385 35.3871 154.825 35.3871C157.264 35.3871 159.242 33.4065 159.242 30.9637C159.242 28.521 157.264 26.5404 154.825 26.5404ZM124.746 53.0807H124.722C122.282 53.0807 120.316 55.0613 120.316 57.5041C120.316 59.9439 122.306 61.9275 124.746 61.9275C127.185 61.9275 129.163 59.9439 129.163 57.5041C129.163 55.0613 127.185 53.0807 124.746 53.0807ZM124.746 130.933H124.722C122.282 130.933 120.316 132.913 120.316 135.359C120.316 137.799 122.306 139.779 124.746 139.779C127.185 139.779 129.163 137.799 129.163 135.359C129.163 132.913 127.185 130.933 124.746 130.933ZM124.746 104.392H124.722C122.282 104.392 120.316 106.373 120.316 108.815C120.316 111.258 122.306 113.239 124.746 113.239C127.185 113.239 129.163 111.258 129.163 108.815C129.163 106.373 127.185 104.392 124.746 104.392ZM124.746 79.6211H124.722C122.282 79.6211 120.316 81.5987 120.316 84.0445C120.316 86.4842 122.306 88.4679 124.746 88.4679C127.185 88.4679 129.163 86.4842 129.163 84.0445C129.163 81.5987 127.185 79.6211 124.746 79.6211ZM124.746 157.473H124.722C122.282 157.473 120.316 159.451 120.316 161.898C120.316 164.338 122.306 166.319 124.746 166.319C127.185 166.319 129.163 164.338 129.163 161.898C129.163 159.451 127.185 157.473 124.746 157.473ZM64.5875 113.239C67.0269 113.239 69.0049 111.258 69.0049 108.815C69.0049 106.373 67.0269 104.392 64.5875 104.392H64.5665C62.124 104.392 60.1581 106.373 60.1581 108.815C60.1581 111.258 62.148 113.239 64.5875 113.239ZM67.7102 185.31C67.5784 185.178 67.3985 185.112 67.2517 185.001C66.5055 184.418 65.6094 184.013 64.5875 184.013H64.5635C62.124 184.013 60.1581 185.991 60.1581 188.438C60.1581 189.639 60.6466 190.719 61.4258 191.518C61.4288 191.521 61.4288 191.524 61.4318 191.524C62.2349 192.346 63.3498 192.86 64.5875 192.86C64.8212 192.86 65.022 192.764 65.2468 192.728C65.2498 192.728 65.2528 192.725 65.2558 192.725C66.2987 192.563 67.2097 192.082 67.872 191.323C67.9799 191.206 68.0429 191.062 68.1358 190.933C68.3366 190.647 68.5493 190.377 68.6812 190.05C68.879 189.561 68.9959 189.026 68.9989 188.456C68.9989 188.45 69.0049 188.447 69.0049 188.438C69.0049 187.315 68.5523 186.319 67.8661 185.538C67.8031 185.466 67.7761 185.373 67.7102 185.31ZM183.181 61.5795C183.712 61.8045 184.294 61.9275 184.905 61.9275C185.55 61.9275 186.152 61.7745 186.704 61.5255C186.722 61.5165 186.734 61.5015 186.752 61.4925C187.291 61.2405 187.756 60.8865 188.149 60.4485C188.862 59.6656 189.321 58.6456 189.321 57.5056C189.321 55.0637 187.342 53.0807 184.905 53.0807H184.881C182.441 53.0807 180.474 55.0637 180.474 57.5056C180.474 59.3356 181.592 60.9075 183.181 61.5795ZM184.905 88.4679C187.342 88.4679 189.321 86.4842 189.321 84.0445C189.321 81.5987 187.342 79.6211 184.905 79.6211H184.881C182.441 79.6211 180.474 81.5987 180.474 84.0445C180.474 86.4842 182.462 88.4679 184.905 88.4679ZM184.905 113.239C187.342 113.239 189.321 111.258 189.321 108.815C189.321 106.373 187.342 104.392 184.905 104.392H184.881C182.441 104.392 180.474 106.373 180.474 108.815C180.474 111.258 182.462 113.239 184.905 113.239ZM94.6665 53.0807H94.6455C92.2061 53.0807 90.2371 55.0613 90.2371 57.5041C90.2371 59.9439 92.2271 61.9275 94.6665 61.9275C97.106 61.9275 99.0839 59.9439 99.0839 57.5041C99.0839 55.0613 97.106 53.0807 94.6665 53.0807ZM94.6665 26.5404H94.6455C92.2061 26.5404 90.2371 28.521 90.2371 30.9637C90.2371 33.4065 92.2271 35.3871 94.6665 35.3871C97.106 35.3871 99.0839 33.4065 99.0839 30.9637C99.0839 28.521 97.106 26.5404 94.6665 26.5404ZM94.6665 0H94.6455C92.2061 0 90.2371 1.98062 90.2371 4.42339C90.2371 6.86616 92.2271 8.84678 94.6665 8.84678C97.106 8.84678 99.0839 6.86616 99.0839 4.42339C99.0839 1.98062 97.106 0 94.6665 0ZM64.5875 166.319C67.0269 166.319 69.0049 164.338 69.0049 161.898C69.0049 159.451 67.0269 157.473 64.5875 157.473H64.5665C62.124 157.473 60.1581 159.451 60.1581 161.898C60.1581 164.338 62.148 166.319 64.5875 166.319ZM64.5875 139.779C67.0269 139.779 69.0049 137.799 69.0049 135.359C69.0049 132.913 67.0269 130.933 64.5875 130.933H64.5665C62.124 130.933 60.1581 132.913 60.1581 135.359C60.1581 137.799 62.148 139.779 64.5875 139.779ZM94.6665 79.6211H94.6455C92.2061 79.6211 90.2371 81.5987 90.2371 84.0445C90.2371 86.4842 92.2271 88.4679 94.6665 88.4679C97.106 88.4679 99.0839 86.4842 99.0839 84.0445C99.0839 81.5987 97.106 79.6211 94.6665 79.6211ZM124.746 26.5404H124.722C122.282 26.5404 120.316 28.521 120.316 30.9637C120.316 33.4065 122.306 35.3871 124.746 35.3871C127.185 35.3871 129.163 33.4065 129.163 30.9637C129.163 28.521 127.185 26.5404 124.746 26.5404ZM94.6665 157.473H94.6455C92.2061 157.473 90.2371 159.451 90.2371 161.898C90.2371 164.338 92.2271 166.319 94.6665 166.319C97.106 166.319 99.0839 164.338 99.0839 161.898C99.0839 159.451 97.106 157.473 94.6665 157.473ZM94.6665 184.013H94.6455C92.2061 184.013 90.2371 185.994 90.2371 188.438C90.2371 190.881 92.2271 192.86 94.6665 192.86C97.106 192.86 99.0839 190.881 99.0839 188.438C99.0839 185.994 97.106 184.013 94.6665 184.013ZM94.6665 130.933H94.6455C92.2061 130.933 90.2371 132.913 90.2371 135.359C90.2371 137.799 92.2271 139.779 94.6665 139.779C97.106 139.779 99.0839 137.799 99.0839 135.359C99.0839 132.913 97.106 130.933 94.6665 130.933ZM94.6665 104.392H94.6455C92.2061 104.392 90.2371 106.373 90.2371 108.815C90.2371 111.258 92.2271 113.239 94.6665 113.239C97.106 113.239 99.0839 111.258 99.0839 108.815C99.0839 106.373 97.106 104.392 94.6665 104.392Z" fill="#158942" fill-opacity="0.22"/>
</svg>
