<svg width="70" height="193" viewBox="0 0 70 193" fill="none" xmlns="http://www.w3.org/2000/svg">
<path fill-rule="evenodd" clip-rule="evenodd" d="M4.74557 184.013H4.7216C3.69966 184.013 2.80359 184.418 2.05737 185.001C1.91352 185.115 1.7337 185.181 1.60484 185.31C0.888588 186.03 0.475021 187.015 0.385117 188.09C0.376122 188.21 0.316185 188.315 0.316185 188.438C0.316185 188.984 0.445053 189.495 0.627861 189.975C0.687798 190.131 0.762718 190.266 0.837639 190.413C0.999474 190.728 1.19427 191.02 1.42802 191.287C1.54191 191.419 1.6438 191.554 1.77267 191.671C2.1263 191.992 2.51589 192.274 2.95943 192.47H2.96243C3.51086 192.713 4.11023 192.86 4.74557 192.86C6.71452 192.86 8.32384 191.551 8.89624 189.765C9.04909 189.356 9.15398 188.93 9.15697 188.462C9.15697 188.453 9.16296 188.447 9.16296 188.438C9.16296 185.991 7.18502 184.013 4.74557 184.013ZM66.543 131.266C66.1144 131.086 65.6379 131.017 65.1494 130.984C65.0625 130.981 64.9936 130.933 64.9037 130.933H64.8797C62.4402 130.933 60.4743 132.913 60.4743 135.359C60.4743 135.953 60.6001 136.514 60.8129 137.024C60.9628 137.391 61.2085 137.685 61.4393 137.994C61.5352 138.111 61.5891 138.255 61.691 138.363C62.4252 139.143 63.4382 139.623 64.571 139.713C64.577 139.713 64.583 139.716 64.589 139.719V139.716C64.6969 139.725 64.7928 139.779 64.9037 139.779C67.3431 139.779 69.321 137.799 69.321 135.359C69.321 133.498 68.1673 131.92 66.543 131.266ZM-85.4916 53.0807H-85.5156C-87.955 53.0807 -89.921 55.0613 -89.921 57.5041C-89.921 59.9439 -87.931 61.9275 -85.4916 61.9275C-83.0551 61.9275 -81.0742 59.9439 -81.0742 57.5041C-81.0742 55.0613 -83.0551 53.0807 -85.4916 53.0807ZM-85.4916 157.473H-85.5156C-87.955 157.473 -89.921 159.451 -89.921 161.898C-89.921 164.338 -87.931 166.319 -85.4916 166.319C-83.0551 166.319 -81.0742 164.338 -81.0742 161.898C-81.0742 159.451 -83.0551 157.473 -85.4916 157.473ZM-55.4125 88.4679C-52.9731 88.4679 -50.9951 86.4842 -50.9951 84.0445C-50.9951 81.5987 -52.9731 79.6211 -55.4125 79.6211H-55.4335C-57.876 79.6211 -59.8419 81.5987 -59.8419 84.0445C-59.8419 86.4842 -57.852 88.4679 -55.4125 88.4679ZM-85.4916 26.5404H-85.5156C-87.955 26.5404 -89.921 28.521 -89.921 30.9637C-89.921 33.4065 -87.931 35.3871 -85.4916 35.3871C-83.0551 35.3871 -81.0742 33.4065 -81.0742 30.9637C-81.0742 28.521 -83.0551 26.5404 -85.4916 26.5404ZM-85.4916 104.392H-85.5156C-87.955 104.392 -89.921 106.373 -89.921 108.815C-89.921 111.258 -87.931 113.239 -85.4916 113.239C-83.0551 113.239 -81.0742 111.258 -81.0742 108.815C-81.0742 106.373 -83.0551 104.392 -85.4916 104.392ZM-85.4916 130.933H-85.5156C-87.955 130.933 -89.921 132.913 -89.921 135.359C-89.921 137.799 -87.931 139.779 -85.4916 139.779C-83.0551 139.779 -81.0742 137.799 -81.0742 135.359C-81.0742 132.913 -83.0551 130.933 -85.4916 130.933ZM-55.4125 35.3871C-52.9731 35.3871 -50.9951 33.4065 -50.9951 30.9637C-50.9951 28.521 -52.9731 26.5404 -55.4125 26.5404H-55.4335C-57.876 26.5404 -59.8419 28.521 -59.8419 30.9637C-59.8419 33.4065 -57.852 35.3871 -55.4125 35.3871ZM-55.4125 61.9275C-52.9731 61.9275 -50.9951 59.9439 -50.9951 57.5041C-50.9951 55.0613 -52.9731 53.0807 -55.4125 53.0807H-55.4335C-57.876 53.0807 -59.8419 55.0613 -59.8419 57.5041C-59.8419 59.9439 -57.852 61.9275 -55.4125 61.9275ZM-55.4125 8.84678C-52.9731 8.84678 -50.9951 6.86616 -50.9951 4.42339C-50.9951 1.98062 -52.9731 0 -55.4125 0H-55.4335C-57.876 0 -59.8419 1.98062 -59.8419 4.42339C-59.8419 6.86616 -57.852 8.84678 -55.4125 8.84678ZM-85.4916 79.6211H-85.5156C-87.955 79.6211 -89.921 81.5987 -89.921 84.0445C-89.921 86.4842 -87.931 88.4679 -85.4916 88.4679C-83.0551 88.4679 -81.0742 86.4842 -81.0742 84.0445C-81.0742 81.5987 -83.0551 79.6211 -85.4916 79.6211ZM-115.568 104.392H-115.595C-118.034 104.392 -120 106.373 -120 108.815C-120 111.258 -118.007 113.239 -115.568 113.239C-113.128 113.239 -111.153 111.258 -111.153 108.815C-111.153 106.373 -113.128 104.392 -115.568 104.392ZM-115.568 79.6211H-115.595C-118.034 79.6211 -120 81.5987 -120 84.0445C-120 86.4842 -118.007 88.4679 -115.568 88.4679C-113.128 88.4679 -111.153 86.4842 -111.153 84.0445C-111.153 81.5987 -113.128 79.6211 -115.568 79.6211ZM-115.569 130.933H-115.596C-116.151 130.933 -116.669 131.059 -117.152 131.251C-117.398 131.344 -117.602 131.494 -117.824 131.629C-118.009 131.746 -118.198 131.851 -118.366 131.998C-118.657 132.235 -118.885 132.511 -119.107 132.817C-119.149 132.88 -119.191 132.937 -119.233 133.006C-119.472 133.378 -119.649 133.768 -119.769 134.207L-119.772 134.21V134.213C-119.874 134.585 -120 134.951 -120 135.359C-120 137.099 -118.966 138.573 -117.5 139.293V139.296H-117.497C-116.912 139.581 -116.283 139.77 -115.593 139.773C-115.584 139.773 -115.578 139.779 -115.569 139.779C-113.129 139.779 -111.153 137.799 -111.153 135.359C-111.153 134.747 -111.276 134.165 -111.501 133.636C-112.17 132.049 -113.74 130.933 -115.569 130.933ZM34.8246 79.6211H34.8007C32.3612 79.6211 30.3952 81.5987 30.3952 84.0445C30.3952 86.4842 32.3852 88.4679 34.8246 88.4679C37.2641 88.4679 39.242 86.4842 39.242 84.0445C39.242 81.5987 37.2641 79.6211 34.8246 79.6211ZM-115.569 53.0807H-115.596C-116.1 53.0807 -116.564 53.1917 -117.002 53.3658C-117.401 53.5038 -117.749 53.7109 -118.084 53.951C-118.087 53.951 -118.087 53.951 -118.09 53.954C-119.221 54.7552 -120 56.0096 -120 57.5041C-120 57.6932 -119.916 57.8522 -119.892 58.0383H-119.895C-119.895 58.0443 -119.892 58.0473 -119.889 58.0503C-119.751 59.1276 -119.269 60.0789 -118.498 60.7691C-118.393 60.8652 -118.261 60.9192 -118.15 61.0032C-117.848 61.2253 -117.557 61.4563 -117.2 61.5974C-116.699 61.8045 -116.154 61.9275 -115.569 61.9275C-113.74 61.9275 -112.17 60.8141 -111.501 59.2236C-111.276 58.6955 -111.153 58.1133 -111.153 57.5041C-111.153 56.8949 -111.276 56.3127 -111.501 55.7846C-112.17 54.1941 -113.74 53.0807 -115.569 53.0807ZM34.8246 104.392H34.8007C32.3612 104.392 30.3952 106.373 30.3952 108.815C30.3952 111.258 32.3852 113.239 34.8246 113.239C37.2641 113.239 39.242 111.258 39.242 108.815C39.242 106.373 37.2641 104.392 34.8246 104.392ZM34.8246 53.0807H34.8007C32.3612 53.0807 30.3952 55.0613 30.3952 57.5041C30.3952 59.9439 32.3852 61.9275 34.8246 61.9275C37.2641 61.9275 39.242 59.9439 39.242 57.5041C39.242 55.0613 37.2641 53.0807 34.8246 53.0807ZM34.8246 157.473H34.8007C32.3612 157.473 30.3952 159.451 30.3952 161.898C30.3952 164.338 32.3852 166.319 34.8246 166.319C37.2641 166.319 39.242 164.338 39.242 161.898C39.242 159.451 37.2641 157.473 34.8246 157.473ZM34.8246 130.933H34.8007C32.3612 130.933 30.3952 132.913 30.3952 135.359C30.3952 137.799 32.3852 139.779 34.8246 139.779C37.2641 139.779 39.242 137.799 39.242 135.359C39.242 132.913 37.2641 130.933 34.8246 130.933ZM4.74706 8.84678C7.18569 8.84678 9.16296 6.86616 9.16296 4.42339C9.16296 4.42339 9.15997 4.42039 9.15997 4.41739C9.15997 3.70016 8.95026 3.04896 8.64468 2.44877C8.61472 2.39175 8.57578 2.34974 8.54282 2.29572C8.22226 1.72854 7.78487 1.25739 7.2546 0.879276H7.2516C6.5296 0.366115 5.69675 0 4.74706 0H4.7231C2.28446 0 0.316185 1.98062 0.316185 4.42339C0.316185 6.86616 2.30843 8.84678 4.74706 8.84678ZM34.8246 26.5404H34.8007C32.3612 26.5404 30.3952 28.521 30.3952 30.9637C30.3952 33.4065 32.3852 35.3871 34.8246 35.3871C37.2641 35.3871 39.242 33.4065 39.242 30.9637C39.242 28.521 37.2641 26.5404 34.8246 26.5404ZM4.74557 53.0807H4.7216C2.28214 53.0807 0.316185 55.0613 0.316185 57.5041C0.316185 59.9439 2.30611 61.9275 4.74557 61.9275C7.18502 61.9275 9.16296 59.9439 9.16296 57.5041C9.16296 55.0613 7.18502 53.0807 4.74557 53.0807ZM4.74557 130.933H4.7216C2.28214 130.933 0.316185 132.913 0.316185 135.359C0.316185 137.799 2.30611 139.779 4.74557 139.779C7.18502 139.779 9.16296 137.799 9.16296 135.359C9.16296 132.913 7.18502 130.933 4.74557 130.933ZM4.74557 104.392H4.7216C2.28214 104.392 0.316185 106.373 0.316185 108.815C0.316185 111.258 2.30611 113.239 4.74557 113.239C7.18502 113.239 9.16296 111.258 9.16296 108.815C9.16296 106.373 7.18502 104.392 4.74557 104.392ZM4.74557 79.6211H4.7216C2.28214 79.6211 0.316185 81.5987 0.316185 84.0445C0.316185 86.4842 2.30611 88.4679 4.74557 88.4679C7.18502 88.4679 9.16296 86.4842 9.16296 84.0445C9.16296 81.5987 7.18502 79.6211 4.74557 79.6211ZM4.74557 157.473H4.7216C2.28214 157.473 0.316185 159.451 0.316185 161.898C0.316185 164.338 2.30611 166.319 4.74557 166.319C7.18502 166.319 9.16296 164.338 9.16296 161.898C9.16296 159.451 7.18502 157.473 4.74557 157.473ZM-55.4125 113.239C-52.9731 113.239 -50.9951 111.258 -50.9951 108.815C-50.9951 106.373 -52.9731 104.392 -55.4125 104.392H-55.4335C-57.876 104.392 -59.8419 106.373 -59.8419 108.815C-59.8419 111.258 -57.852 113.239 -55.4125 113.239ZM-52.2898 185.31C-52.4216 185.178 -52.6015 185.112 -52.7483 185.001C-53.4945 184.418 -54.3906 184.013 -55.4125 184.013H-55.4365C-57.876 184.013 -59.8419 185.991 -59.8419 188.438C-59.8419 189.639 -59.3534 190.719 -58.5742 191.518C-58.5712 191.521 -58.5712 191.524 -58.5682 191.524C-57.7651 192.346 -56.6502 192.86 -55.4125 192.86C-55.1788 192.86 -54.978 192.764 -54.7532 192.728C-54.7502 192.728 -54.7472 192.725 -54.7442 192.725C-53.7013 192.563 -52.7903 192.082 -52.128 191.323C-52.0201 191.206 -51.9571 191.062 -51.8642 190.933C-51.6634 190.647 -51.4507 190.377 -51.3188 190.05C-51.121 189.561 -51.0041 189.026 -51.0011 188.456C-51.0011 188.45 -50.9951 188.447 -50.9951 188.438C-50.9951 187.315 -51.4477 186.319 -52.1339 185.538C-52.1969 185.466 -52.2239 185.373 -52.2898 185.31ZM63.1814 61.5795C63.712 61.8045 64.2936 61.9275 64.9052 61.9275C65.5497 61.9275 66.1523 61.7745 66.7039 61.5255C66.7219 61.5165 66.7339 61.5015 66.7519 61.4925C67.2915 61.2405 67.7561 60.8865 68.1489 60.4485C68.8624 59.6656 69.321 58.6456 69.321 57.5056C69.321 55.0637 67.3424 53.0807 64.9052 53.0807H64.8812C62.4409 53.0807 60.4743 55.0637 60.4743 57.5056C60.4743 59.3356 61.5925 60.9075 63.1814 61.5795ZM64.9052 88.4679C67.3424 88.4679 69.321 86.4842 69.321 84.0445C69.321 81.5987 67.3424 79.6211 64.9052 79.6211H64.8812C62.4409 79.6211 60.4743 81.5987 60.4743 84.0445C60.4743 86.4842 62.4619 88.4679 64.9052 88.4679ZM64.9052 113.239C67.3424 113.239 69.321 111.258 69.321 108.815C69.321 106.373 67.3424 104.392 64.9052 104.392H64.8812C62.4409 104.392 60.4743 106.373 60.4743 108.815C60.4743 111.258 62.4619 113.239 64.9052 113.239ZM-25.3335 53.0807H-25.3545C-27.7939 53.0807 -29.7629 55.0613 -29.7629 57.5041C-29.7629 59.9439 -27.7729 61.9275 -25.3335 61.9275C-22.894 61.9275 -20.9161 59.9439 -20.9161 57.5041C-20.9161 55.0613 -22.894 53.0807 -25.3335 53.0807ZM-25.3335 26.5404H-25.3545C-27.7939 26.5404 -29.7629 28.521 -29.7629 30.9637C-29.7629 33.4065 -27.7729 35.3871 -25.3335 35.3871C-22.894 35.3871 -20.9161 33.4065 -20.9161 30.9637C-20.9161 28.521 -22.894 26.5404 -25.3335 26.5404ZM-25.3335 0H-25.3545C-27.7939 0 -29.7629 1.98062 -29.7629 4.42339C-29.7629 6.86616 -27.7729 8.84678 -25.3335 8.84678C-22.894 8.84678 -20.9161 6.86616 -20.9161 4.42339C-20.9161 1.98062 -22.894 0 -25.3335 0ZM-55.4125 166.319C-52.9731 166.319 -50.9951 164.338 -50.9951 161.898C-50.9951 159.451 -52.9731 157.473 -55.4125 157.473H-55.4335C-57.876 157.473 -59.8419 159.451 -59.8419 161.898C-59.8419 164.338 -57.852 166.319 -55.4125 166.319ZM-55.4125 139.779C-52.9731 139.779 -50.9951 137.799 -50.9951 135.359C-50.9951 132.913 -52.9731 130.933 -55.4125 130.933H-55.4335C-57.876 130.933 -59.8419 132.913 -59.8419 135.359C-59.8419 137.799 -57.852 139.779 -55.4125 139.779ZM-25.3335 79.6211H-25.3545C-27.7939 79.6211 -29.7629 81.5987 -29.7629 84.0445C-29.7629 86.4842 -27.7729 88.4679 -25.3335 88.4679C-22.894 88.4679 -20.9161 86.4842 -20.9161 84.0445C-20.9161 81.5987 -22.894 79.6211 -25.3335 79.6211ZM4.74557 26.5404H4.7216C2.28214 26.5404 0.316185 28.521 0.316185 30.9637C0.316185 33.4065 2.30611 35.3871 4.74557 35.3871C7.18502 35.3871 9.16296 33.4065 9.16296 30.9637C9.16296 28.521 7.18502 26.5404 4.74557 26.5404ZM-25.3335 157.473H-25.3545C-27.7939 157.473 -29.7629 159.451 -29.7629 161.898C-29.7629 164.338 -27.7729 166.319 -25.3335 166.319C-22.894 166.319 -20.9161 164.338 -20.9161 161.898C-20.9161 159.451 -22.894 157.473 -25.3335 157.473ZM-25.3335 184.013H-25.3545C-27.7939 184.013 -29.7629 185.994 -29.7629 188.438C-29.7629 190.881 -27.7729 192.86 -25.3335 192.86C-22.894 192.86 -20.9161 190.881 -20.9161 188.438C-20.9161 185.994 -22.894 184.013 -25.3335 184.013ZM-25.3335 130.933H-25.3545C-27.7939 130.933 -29.7629 132.913 -29.7629 135.359C-29.7629 137.799 -27.7729 139.779 -25.3335 139.779C-22.894 139.779 -20.9161 137.799 -20.9161 135.359C-20.9161 132.913 -22.894 130.933 -25.3335 130.933ZM-25.3335 104.392H-25.3545C-27.7939 104.392 -29.7629 106.373 -29.7629 108.815C-29.7629 111.258 -27.7729 113.239 -25.3335 113.239C-22.894 113.239 -20.9161 111.258 -20.9161 108.815C-20.9161 106.373 -22.894 104.392 -25.3335 104.392Z" fill="#158942" fill-opacity="0.22"/>
</svg>
