<svg width="22" height="22" viewBox="0 0 22 22" fill="none" xmlns="http://www.w3.org/2000/svg">
<g id="Group">
<path id="Vector" d="M1.08301 11C1.94467 6.30667 6.05776 2.75 11.0004 2.75C15.9431 2.75 20.0553 6.30667 20.9178 11C20.0562 15.6933 15.9431 19.25 11.0004 19.25C6.05776 19.25 1.94559 15.6933 1.08301 11ZM11.0004 15.5833C12.216 15.5833 13.3818 15.1004 14.2413 14.2409C15.1009 13.3814 15.5838 12.2156 15.5838 11C15.5838 9.78442 15.1009 8.61864 14.2413 7.75909C13.3818 6.89955 12.216 6.41667 11.0004 6.41667C9.78485 6.41667 8.61906 6.89955 7.75952 7.75909C6.89998 8.61864 6.41709 9.78442 6.41709 11C6.41709 12.2156 6.89998 13.3814 7.75952 14.2409C8.61906 15.1004 9.78485 15.5833 11.0004 15.5833ZM11.0004 13.75C10.2711 13.75 9.57161 13.4603 9.05588 12.9445C8.54016 12.4288 8.25043 11.7293 8.25043 11C8.25043 10.2707 8.54016 9.57118 9.05588 9.05546C9.57161 8.53973 10.2711 8.25 11.0004 8.25C11.7298 8.25 12.4292 8.53973 12.945 9.05546C13.4607 9.57118 13.7504 10.2707 13.7504 11C13.7504 11.7293 13.4607 12.4288 12.945 12.9445C12.4292 13.4603 11.7298 13.75 11.0004 13.75Z" fill="#969897"/>
</g>
</svg>
