<svg width="20" height="20" viewBox="0 0 20 20" fill="none" xmlns="http://www.w3.org/2000/svg">
<g clip-path="url(#clip0_3121_9323)">
<path d="M3.3335 18.3333C3.3335 16.5651 4.03588 14.8694 5.28612 13.6192C6.53636 12.369 8.23205 11.6666 10.0002 11.6666C11.7683 11.6666 13.464 12.369 14.7142 13.6192C15.9645 14.8694 16.6668 16.5651 16.6668 18.3333H3.3335ZM10.0002 10.8333C7.23766 10.8333 5.00016 8.59575 5.00016 5.83325C5.00016 3.07075 7.23766 0.833252 10.0002 0.833252C12.7627 0.833252 15.0002 3.07075 15.0002 5.83325C15.0002 8.59575 12.7627 10.8333 10.0002 10.8333Z" fill="url(#paint0_linear_3121_9323)"/>
</g>
<defs>
<linearGradient id="paint0_linear_3121_9323" x1="16.6668" y1="0.833251" x2="1.47288" y2="11.3858" gradientUnits="userSpaceOnUse">
<stop stop-color="#158942"/>
<stop offset="1" stop-color="#00702B"/>
</linearGradient>
<clipPath id="clip0_3121_9323">
<rect width="20" height="20" fill="white"/>
</clipPath>
</defs>
</svg>
