<svg width="13" height="13" viewBox="0 0 13 13" fill="none" xmlns="http://www.w3.org/2000/svg">
<path d="M6.5 0.25C8.19813 0.25 8.41 0.25625 9.07625 0.2875C9.74188 0.31875 10.195 0.423125 10.5938 0.578125C11.0063 0.736875 11.3538 0.951875 11.7013 1.29875C12.0191 1.61119 12.265 1.98912 12.4219 2.40625C12.5763 2.80438 12.6813 3.25813 12.7125 3.92375C12.7419 4.59 12.75 4.80188 12.75 6.5C12.75 8.19813 12.7438 8.41 12.7125 9.07625C12.6813 9.74188 12.5763 10.195 12.4219 10.5938C12.2654 11.0111 12.0195 11.3891 11.7013 11.7013C11.3887 12.019 11.0108 12.2648 10.5938 12.4219C10.1956 12.5763 9.74188 12.6813 9.07625 12.7125C8.41 12.7419 8.19813 12.75 6.5 12.75C4.80188 12.75 4.59 12.7438 3.92375 12.7125C3.25813 12.6813 2.805 12.5763 2.40625 12.4219C1.98895 12.2653 1.61095 12.0193 1.29875 11.7013C0.980879 11.3889 0.734957 11.0109 0.578125 10.5938C0.423125 10.1956 0.31875 9.74188 0.2875 9.07625C0.258125 8.41 0.25 8.19813 0.25 6.5C0.25 4.80188 0.25625 4.59 0.2875 3.92375C0.31875 3.2575 0.423125 2.805 0.578125 2.40625C0.734523 1.98886 0.980502 1.61083 1.29875 1.29875C1.61104 0.98077 1.98902 0.734831 2.40625 0.578125C2.805 0.423125 3.2575 0.31875 3.92375 0.2875C4.59 0.258125 4.80188 0.25 6.5 0.25ZM6.5 3.375C5.6712 3.375 4.87634 3.70424 4.29029 4.29029C3.70424 4.87634 3.375 5.6712 3.375 6.5C3.375 7.3288 3.70424 8.12366 4.29029 8.70971C4.87634 9.29576 5.6712 9.625 6.5 9.625C7.3288 9.625 8.12366 9.29576 8.70971 8.70971C9.29576 8.12366 9.625 7.3288 9.625 6.5C9.625 5.6712 9.29576 4.87634 8.70971 4.29029C8.12366 3.70424 7.3288 3.375 6.5 3.375V3.375ZM10.5625 3.21875C10.5625 3.01155 10.4802 2.81284 10.3337 2.66632C10.1872 2.51981 9.98845 2.4375 9.78125 2.4375C9.57405 2.4375 9.37534 2.51981 9.22882 2.66632C9.08231 2.81284 9 3.01155 9 3.21875C9 3.42595 9.08231 3.62466 9.22882 3.77118C9.37534 3.91769 9.57405 4 9.78125 4C9.98845 4 10.1872 3.91769 10.3337 3.77118C10.4802 3.62466 10.5625 3.42595 10.5625 3.21875ZM6.5 4.625C6.99728 4.625 7.4742 4.82254 7.82583 5.17418C8.17746 5.52581 8.375 6.00272 8.375 6.5C8.375 6.99728 8.17746 7.4742 7.82583 7.82583C7.4742 8.17746 6.99728 8.375 6.5 8.375C6.00272 8.375 5.52581 8.17746 5.17418 7.82583C4.82254 7.4742 4.625 6.99728 4.625 6.5C4.625 6.00272 4.82254 5.52581 5.17418 5.17418C5.52581 4.82254 6.00272 4.625 6.5 4.625V4.625Z" fill="url(#paint0_linear_22_110)"/>
<defs>
<linearGradient id="paint0_linear_22_110" x1="12.75" y1="0.249999" x2="1.21757" y2="10.7626" gradientUnits="userSpaceOnUse">
<stop stop-color="#158942"/>
<stop offset="1" stop-color="#00702B"/>
</linearGradient>
</defs>
</svg>
