<svg width="12" height="12" viewBox="0 0 12 12" fill="none" xmlns="http://www.w3.org/2000/svg">
<path fill-rule="evenodd" clip-rule="evenodd" d="M0.5 6C0.5 3.80297 0.5 2.70446 1.02353 1.91323C1.25732 1.5599 1.5599 1.25732 1.91323 1.02353C2.70446 0.5 3.80297 0.5 6 0.5C8.19703 0.5 9.29554 0.5 10.0868 1.02353C10.4401 1.25732 10.7427 1.5599 10.9765 1.91323C11.5 2.70446 11.5 3.80297 11.5 6C11.5 8.19703 11.5 9.29554 10.9765 10.0868C10.7427 10.4401 10.4401 10.7427 10.0868 10.9765C9.29554 11.5 8.19703 11.5 6 11.5C3.80297 11.5 2.70446 11.5 1.91323 10.9765C1.5599 10.7427 1.25732 10.4401 1.02353 10.0868C0.5 9.29554 0.5 8.19703 0.5 6ZM8.84732 6.00014C8.84732 7.57272 7.57249 8.84755 5.9999 8.84755C4.42732 8.84755 3.15249 7.57272 3.15249 6.00014C3.15249 4.42755 4.42732 3.15272 5.9999 3.15272C7.57249 3.15272 8.84732 4.42755 8.84732 6.00014ZM5.9999 7.8842C7.04044 7.8842 7.88396 7.04067 7.88396 6.00014C7.88396 4.9596 7.04044 4.11608 5.9999 4.11608C4.95937 4.11608 4.11584 4.9596 4.11584 6.00014C4.11584 7.04067 4.95937 7.8842 5.9999 7.8842ZM8.95978 3.67872C9.32929 3.67872 9.62884 3.37918 9.62884 3.00967C9.62884 2.64015 9.32929 2.34061 8.95978 2.34061C8.59027 2.34061 8.29072 2.64015 8.29072 3.00967C8.29072 3.37918 8.59027 3.67872 8.95978 3.67872Z" fill="url(#paint0_linear_860_5)"/>
<defs>
<linearGradient id="paint0_linear_860_5" x1="11.5" y1="0.499999" x2="1.35146" y2="9.75105" gradientUnits="userSpaceOnUse">
<stop stop-color="#158942"/>
<stop offset="1" stop-color="#00702B"/>
</linearGradient>
</defs>
</svg>
