<svg width="25" height="25" viewBox="0 0 25 25" fill="none" xmlns="http://www.w3.org/2000/svg">
<circle cx="12.5" cy="12.5" r="12" stroke="url(#paint0_linear_3121_4041)"/>
<g clip-path="url(#clip0_3121_4041)">
<path d="M12.2646 9.51375C11.7171 9.51375 10.8696 8.89125 9.97711 8.91375C8.79961 8.92875 7.71961 9.59625 7.11211 10.6537C5.88961 12.7762 6.79711 15.9113 7.98961 17.6362C8.57461 18.4762 9.26461 19.4212 10.1796 19.3912C11.0571 19.3537 11.3871 18.8212 12.4521 18.8212C13.5096 18.8212 13.8096 19.3912 14.7396 19.3687C15.6846 19.3537 16.2846 18.5138 16.8621 17.6663C17.5296 16.6912 17.8071 15.7463 17.8221 15.6938C17.7996 15.6862 15.9846 14.9887 15.9621 12.8887C15.9471 11.1337 17.3946 10.2937 17.4621 10.2562C16.6371 9.04875 15.3696 8.91375 14.9271 8.88375C13.7721 8.79375 12.8046 9.51375 12.2646 9.51375ZM14.2146 7.74375C14.7021 7.15875 15.0246 6.34125 14.9346 5.53125C14.2371 5.56125 13.3971 5.99625 12.8946 6.58125C12.4446 7.09875 12.0546 7.93125 12.1596 8.72625C12.9321 8.78625 13.7271 8.32875 14.2146 7.74375Z" fill="url(#paint1_linear_3121_4041)"/>
</g>
<defs>
<linearGradient id="paint0_linear_3121_4041" x1="25" y1="-1.37477e-06" x2="1.93515" y2="21.0251" gradientUnits="userSpaceOnUse">
<stop stop-color="#158942"/>
<stop offset="1" stop-color="#00702B"/>
</linearGradient>
<linearGradient id="paint1_linear_3121_4041" x1="17.8221" y1="5.53125" x2="5.52811" y2="14.6602" gradientUnits="userSpaceOnUse">
<stop stop-color="#158942"/>
<stop offset="1" stop-color="#00702B"/>
</linearGradient>
<clipPath id="clip0_3121_4041">
<rect width="15" height="15" fill="white" transform="translate(5 5)"/>
</clipPath>
</defs>
</svg>
