<svg width="80" height="80" viewBox="0 0 80 80" fill="none" xmlns="http://www.w3.org/2000/svg">
<g id="left-quotes-sign 2" opacity="0.08" clip-path="url(#clip0_0_1194)">
<g id="Group">
<g id="Group_2">
<path id="Vector" d="M79.9852 26.5328C79.9852 17.4017 72.5835 10 63.4526 10C54.3216 10 46.9198 17.4017 46.9198 26.5328C46.9198 35.6638 54.3216 43.0654 63.4526 43.0654C65.3291 43.0654 67.1254 42.7382 68.807 42.1618C65.0865 63.5001 48.4467 77.2609 63.8717 65.9355C80.9758 53.3769 80.0036 27.038 79.9844 26.5553C79.9844 26.5478 79.9852 26.5411 79.9852 26.5328Z" fill="#158942"/>
<path id="Vector_2" d="M43.6134 26.5328C43.6134 17.4017 36.2117 10 27.0806 10C17.9496 10 10.5479 17.4017 10.5479 26.5328C10.5479 35.6638 17.9497 43.0654 27.0808 43.0654C28.9574 43.0654 30.7536 42.7382 32.4352 42.1618C28.7147 63.5001 12.0749 77.2609 27.4999 65.9355C44.6039 53.3769 43.6318 27.038 43.6126 26.5553C43.6126 26.5478 43.6134 26.5411 43.6134 26.5328Z" fill="#158942"/>
</g>
</g>
</g>
<defs>
<clipPath id="clip0_0_1194">
<rect width="80" height="80" fill="white" transform="translate(80 80) rotate(-180)"/>
</clipPath>
</defs>
</svg>
