<svg width="12" height="12" viewBox="0 0 12 12" fill="none" xmlns="http://www.w3.org/2000/svg">
<path d="M0.5 1.97883C0.5 1.62609 0.623877 1.33509 0.871622 1.10582C1.11937 0.876537 1.44144 0.761902 1.83784 0.761902C2.22716 0.761902 2.54215 0.87477 2.78282 1.10053C3.03056 1.33333 3.15444 1.63667 3.15444 2.01058C3.15444 2.3492 3.03411 2.63138 2.79344 2.85714C2.54569 3.08994 2.22008 3.20635 1.8166 3.20635H1.80598C1.41666 3.20635 1.10168 3.08994 0.861004 2.85714C0.620331 2.62434 0.5 2.33156 0.5 1.97883ZM0.638031 11.2381V4.16931H2.99517V11.2381H0.638031ZM4.30116 11.2381H6.6583V7.291C6.6583 7.04408 6.68662 6.8536 6.74324 6.71957C6.84234 6.47971 6.99276 6.27688 7.1945 6.11111C7.39624 5.94532 7.64929 5.86243 7.95367 5.86243C8.74646 5.86243 9.14286 6.39505 9.14286 7.46031V11.2381H11.5V7.18518C11.5 6.14109 11.2523 5.3492 10.7568 4.80952C10.2613 4.26984 9.6065 4 8.79247 4C7.87934 4 7.16795 4.39153 6.6583 5.1746V5.19576H6.64768L6.6583 5.1746V4.16931H4.30116C4.31531 4.39505 4.32239 5.09699 4.32239 6.27513C4.32239 7.45325 4.31531 9.10757 4.30116 11.2381Z" fill="url(#paint0_linear_0_1012)"/>
<defs>
<linearGradient id="paint0_linear_0_1012" x1="11.5" y1="0.761901" x2="1.80257" y2="10.0437" gradientUnits="userSpaceOnUse">
<stop stop-color="#158942"/>
<stop offset="1" stop-color="#00702B"/>
</linearGradient>
</defs>
</svg>
