<svg width="20" height="20" viewBox="0 0 20 20" fill="none" xmlns="http://www.w3.org/2000/svg">
<g id="Group">
<path id="Vector" d="M5 6.66732V5.83398C5 4.5079 5.52678 3.23613 6.46447 2.29845C7.40215 1.36077 8.67392 0.833984 10 0.833984C11.3261 0.833984 12.5979 1.36077 13.5355 2.29845C14.4732 3.23613 15 4.5079 15 5.83398V6.66732H16.6667C16.8877 6.66732 17.0996 6.75512 17.2559 6.9114C17.4122 7.06768 17.5 7.27964 17.5 7.50065V17.5007C17.5 17.7217 17.4122 17.9336 17.2559 18.0899C17.0996 18.2462 16.8877 18.334 16.6667 18.334H3.33333C3.11232 18.334 2.90036 18.2462 2.74408 18.0899C2.5878 17.9336 2.5 17.7217 2.5 17.5007V7.50065C2.5 7.27964 2.5878 7.06768 2.74408 6.9114C2.90036 6.75512 3.11232 6.66732 3.33333 6.66732H5ZM15.8333 8.33398H4.16667V16.6673H15.8333V8.33398ZM9.16667 13.1107C8.84893 12.9272 8.6006 12.644 8.4602 12.3051C8.3198 11.9661 8.29517 11.5903 8.39012 11.2359C8.48508 10.8815 8.69432 10.5684 8.9854 10.345C9.27647 10.1217 9.63311 10.0006 10 10.0006C10.3669 10.0006 10.7235 10.1217 11.0146 10.345C11.3057 10.5684 11.5149 10.8815 11.6099 11.2359C11.7048 11.5903 11.6802 11.9661 11.5398 12.3051C11.3994 12.644 11.1511 12.9272 10.8333 13.1107V15.0007H9.16667V13.1107ZM6.66667 6.66732H13.3333V5.83398C13.3333 4.94993 12.9821 4.10208 12.357 3.47696C11.7319 2.85184 10.8841 2.50065 10 2.50065C9.11594 2.50065 8.2681 2.85184 7.64298 3.47696C7.01786 4.10208 6.66667 4.94993 6.66667 5.83398V6.66732Z" fill="#158942"/>
</g>
</svg>
