<svg width="20" height="20" viewBox="0 0 20 20" fill="none" xmlns="http://www.w3.org/2000/svg">
<g id="Group">
<path id="Vector" d="M4.16732 18.3327C3.9463 18.3327 3.73434 18.2449 3.57806 18.0886C3.42178 17.9323 3.33398 17.7204 3.33398 17.4993V2.49935C3.33398 2.27834 3.42178 2.06637 3.57806 1.91009C3.73434 1.75381 3.9463 1.66602 4.16732 1.66602H15.834C16.055 1.66602 16.267 1.75381 16.4232 1.91009C16.5795 2.06637 16.6673 2.27834 16.6673 2.49935V4.99935H15.0007V3.33268H5.00065V16.666H15.0007V14.9993H16.6673V17.4993C16.6673 17.7204 16.5795 17.9323 16.4232 18.0886C16.267 18.2449 16.055 18.3327 15.834 18.3327H4.16732ZM15.0007 13.3327V10.8327H9.16732V9.16602H15.0007V6.66602L19.1673 9.99935L15.0007 13.3327Z" fill="#FF4848"/>
</g>
</svg>
