<svg width="21" height="21" viewBox="0 0 21 21" fill="none" xmlns="http://www.w3.org/2000/svg">
<g clip-path="url(#clip0_3121_5137)">
<path d="M15.5983 15.306L10.2949 20.6093L4.99159 15.306C3.94271 14.2571 3.22841 12.9207 2.93903 11.4658C2.64965 10.011 2.79818 8.50298 3.36584 7.13254C3.9335 5.7621 4.89479 4.59076 6.12816 3.76666C7.36153 2.94255 8.81157 2.50269 10.2949 2.50269C11.7783 2.50269 13.2283 2.94255 14.4617 3.76666C15.6951 4.59076 16.6564 5.7621 17.224 7.13254C17.7917 8.50298 17.9402 10.011 17.6508 11.4658C17.3614 12.9207 16.6471 14.2571 15.5983 15.306ZM10.2949 13.336C11.179 13.336 12.0268 12.9848 12.6519 12.3596C13.2771 11.7345 13.6283 10.8867 13.6283 10.0026C13.6283 9.11857 13.2771 8.27072 12.6519 7.6456C12.0268 7.02048 11.179 6.66929 10.2949 6.66929C9.41087 6.66929 8.56302 7.02048 7.9379 7.6456C7.31278 8.27072 6.96159 9.11857 6.96159 10.0026C6.96159 10.8867 7.31278 11.7345 7.9379 12.3596C8.56302 12.9848 9.41087 13.336 10.2949 13.336ZM10.2949 11.6693C9.8529 11.6693 9.42898 11.4937 9.11642 11.1811C8.80385 10.8686 8.62826 10.4446 8.62826 10.0026C8.62826 9.56059 8.80385 9.13667 9.11642 8.82411C9.42898 8.51155 9.8529 8.33595 10.2949 8.33595C10.737 8.33595 11.1609 8.51155 11.4734 8.82411C11.786 9.13667 11.9616 9.56059 11.9616 10.0026C11.9616 10.4446 11.786 10.8686 11.4734 11.1811C11.1609 11.4937 10.737 11.6693 10.2949 11.6693Z" fill="#6B6D6C"/>
</g>
<defs>
<clipPath id="clip0_3121_5137">
<rect width="20" height="20" fill="white" transform="translate(0.294922 0.835938)"/>
</clipPath>
</defs>
</svg>
