<svg width="10" height="11" viewBox="0 0 10 11" fill="none" xmlns="http://www.w3.org/2000/svg">
<path id="Vector" d="M7.7782 7.77815L4.55635 11L1.33451 7.77815C0.697295 7.14094 0.26335 6.32907 0.0875469 5.44523C-0.0882563 4.56138 0.00197788 3.64526 0.346839 2.8127C0.6917 1.98014 1.2757 1.26854 2.02499 0.767879C2.77427 0.267224 3.65519 0 4.55635 0C5.45751 0 6.33843 0.267224 7.08772 0.767879C7.837 1.26854 8.421 1.98014 8.76586 2.8127C9.11073 3.64526 9.20096 4.56138 9.02516 5.44523C8.84935 6.32907 8.41541 7.14094 7.7782 7.77815ZM4.55635 5.56883C4.82489 5.56883 5.08243 5.46215 5.27231 5.27227C5.4622 5.08239 5.56887 4.82485 5.56887 4.55631C5.56887 4.28777 5.4622 4.03023 5.27231 3.84035C5.08243 3.65046 4.82489 3.54379 4.55635 3.54379C4.28781 3.54379 4.03027 3.65046 3.84039 3.84035C3.65051 4.03023 3.54383 4.28777 3.54383 4.55631C3.54383 4.82485 3.65051 5.08239 3.84039 5.27227C4.03027 5.46215 4.28781 5.56883 4.55635 5.56883Z" fill="#158942"/>
</svg>
