<svg width="60" height="60" viewBox="0 0 60 60" fill="none" xmlns="http://www.w3.org/2000/svg">
<rect x="0.5" y="0.5" width="59" height="59" rx="7.5" fill="#EDFFF0" stroke="#DCFFE2"/>
<g clip-path="url(#clip0_3813_16437)">
<path d="M17.8568 24.1099C17.3959 24.1099 17 23.7147 17 23.2312C17 22.7696 17.3959 22.3744 17.8568 22.3744H19.1315C19.9226 22.3963 20.6256 22.5501 21.2198 22.9235C22.3693 23.6521 22.5738 24.6928 22.8678 25.868H30.7919C31.0828 26.5904 31.6075 27.1927 32.2711 27.5836H28.4491V27.5829H23.3512L25.3069 34.9448H39.1752L40.9989 27.5829H36.4777V27.5836H35.8285C36.4921 27.1927 37.0162 26.5904 37.3076 25.868H42.0984C42.5812 25.868 42.9552 26.2639 42.9552 26.7261C42.9552 26.8137 42.9327 26.9018 42.9108 26.9894L40.6693 36.0218C40.5817 36.4177 40.2303 36.6817 39.8344 36.6817H25.7685C26.0768 37.8243 26.3839 38.4397 26.8017 38.7249C27.3077 39.0551 28.1864 39.0764 29.6587 39.0551H39.6148C40.0977 39.0551 40.4717 39.4504 40.4717 39.912C40.4717 40.3954 40.0764 40.7688 39.6148 40.7688H29.6812C27.8568 40.7913 26.7354 40.7469 25.8348 40.154C24.9117 39.5386 24.4282 38.4835 23.9447 36.5716L20.9996 25.429C20.9996 25.4071 20.9996 25.4071 20.9777 25.3852C20.8458 24.9011 20.6256 24.5721 20.3185 24.3958C20.0108 24.1981 19.593 24.1099 19.1096 24.1099H17.8568ZM30.2122 15.0838C30.8088 14.0493 32.1435 13.6922 33.1767 14.2895C34.2105 14.8861 34.5676 16.2208 33.9716 17.254C32.7376 19.3911 31.5068 21.5069 30.2734 23.6434C29.9764 24.1581 29.4954 24.504 28.9607 24.6478C28.4266 24.791 27.8368 24.731 27.3221 24.4339C26.808 24.1368 26.4615 23.6559 26.3176 23.1218C26.1744 22.5876 26.2344 21.9979 26.5321 21.4831C27.7655 19.3435 28.9763 17.2233 30.2122 15.0838ZM31.4367 20.6751L28.5391 19.0027L26.9668 21.7252C26.7373 22.1242 26.691 22.5795 26.8023 22.9948C26.9137 23.4095 27.1813 23.7816 27.5791 24.0117C27.9775 24.2413 28.4334 24.2876 28.8481 24.1756C29.2621 24.0649 29.6349 23.7966 29.865 23.3982L31.4367 20.6751ZM36.0368 23.6953C36.3382 24.2926 36.3489 25.0237 35.9992 25.6535C35.4401 26.6629 34.1674 27.0282 33.1573 26.469C32.8602 26.3046 32.6194 26.0775 32.4406 25.8155L36.0368 23.6953ZM32.343 23.6259C32.9021 22.6164 34.1749 22.2512 35.1849 22.8103C35.4601 22.9629 35.6865 23.168 35.8604 23.4057L32.2761 25.519C32.0046 24.9342 32.0065 24.2325 32.343 23.6259ZM35.6496 18.2684C36.2094 17.2584 37.4815 16.8937 38.4916 17.4529C38.7668 17.6055 38.9932 17.81 39.1677 18.0483L35.5815 20.1622C35.3113 19.5768 35.3131 18.8757 35.6496 18.2684ZM39.3434 18.3372C39.6449 18.9351 39.6555 19.6656 39.3059 20.2961C38.7467 21.3055 37.474 21.6708 36.4646 21.1116C36.1775 20.953 35.932 20.7288 35.7478 20.4574L39.3434 18.3372ZM34.8234 29.3948C34.8234 29.1234 35.0911 28.9038 35.4213 28.9038C35.7516 28.9038 36.0193 29.1234 36.0193 29.3948V32.7096C36.0193 32.9797 35.7516 33.1993 35.4213 33.1993C35.0911 33.1993 34.8234 32.9797 34.8234 32.7096V29.3948ZM31.2435 29.3948C31.2435 29.1234 31.5112 28.9038 31.8414 28.9038C32.1716 28.9038 32.4393 29.1234 32.4393 29.3948V32.7096C32.4393 32.9797 32.1716 33.1993 31.8414 33.1993C31.5112 33.1993 31.2435 32.9797 31.2435 32.7096V29.3948ZM27.6635 29.3948C27.6635 29.1234 27.9312 28.9038 28.2621 28.9038C28.5917 28.9038 28.8594 29.1234 28.8594 29.3948V32.7096C28.8594 32.9797 28.5917 33.1993 28.2621 33.1993C27.9312 33.1993 27.6635 32.9797 27.6635 32.7096V29.3948ZM37.0431 41.7801C38.2082 41.7801 39.1533 42.7252 39.1533 43.8903C39.1533 45.0549 38.2082 45.9999 37.0431 45.9999C35.8785 45.9999 34.9335 45.0549 34.9335 43.8903C34.9335 42.7252 35.8785 41.7801 37.0431 41.7801ZM27.7905 41.7801C28.9557 41.7801 29.9007 42.7252 29.9007 43.8903C29.9007 45.0549 28.9557 45.9999 27.7905 45.9999C26.626 45.9999 25.6809 45.0549 25.6809 43.8903C25.6809 42.7252 26.626 41.7801 27.7905 41.7801Z" fill="#00B51D"/>
</g>
<defs>
<clipPath id="clip0_3813_16437">
<rect width="25.9552" height="32" fill="white" transform="translate(17 14)"/>
</clipPath>
</defs>
</svg>
