<svg width="20" height="20" viewBox="0 0 20 20" fill="none" xmlns="http://www.w3.org/2000/svg">
<g id="Group">
<path id="Vector" d="M16.666 14.166H18.3327V15.8327H1.66602V14.166H3.33268V8.33268C3.33268 6.56457 4.03506 4.86888 5.2853 3.61864C6.53555 2.36839 8.23124 1.66602 9.99935 1.66602C11.7675 1.66602 13.4632 2.36839 14.7134 3.61864C15.9636 4.86888 16.666 6.56457 16.666 8.33268V14.166ZM14.9993 14.166V8.33268C14.9993 7.0066 14.4726 5.73483 13.5349 4.79715C12.5972 3.85947 11.3254 3.33268 9.99935 3.33268C8.67327 3.33268 7.4015 3.85947 6.46382 4.79715C5.52613 5.73483 4.99935 7.0066 4.99935 8.33268V14.166H14.9993ZM7.49935 17.4993H12.4993V19.166H7.49935V17.4993Z" fill="#158942"/>
</g>
</svg>
