<svg width="20" height="20" viewBox="0 0 20 20" fill="none" xmlns="http://www.w3.org/2000/svg">
<g id="Group">
<path id="Vector" d="M12.5007 1.66602C13.0859 1.66595 13.6608 1.81996 14.1677 2.11257C14.6745 2.40518 15.0954 2.82608 15.3879 3.33293C15.6805 3.83979 15.8345 4.41474 15.8344 4.99998C15.8343 5.58521 15.6801 6.16011 15.3873 6.66685L19.1673 6.66602V8.33269H17.5006V16.666C17.5006 16.887 17.4129 17.099 17.2566 17.2553C17.1003 17.4116 16.8883 17.4994 16.6673 17.4994H3.33398C3.11297 17.4994 2.90101 17.4116 2.74473 17.2553C2.58845 17.099 2.50065 16.887 2.50065 16.666V8.33269H0.833984V6.66602L4.61398 6.66685C4.20054 5.95093 4.06789 5.1069 4.2418 4.29867C4.41571 3.49043 4.88377 2.77566 5.5551 2.29315C6.22642 1.81063 7.05309 1.59481 7.87461 1.68759C8.69612 1.78036 9.45385 2.17511 10.0007 2.79519C10.3128 2.43967 10.6974 2.155 11.1285 1.96025C11.5597 1.76551 12.0275 1.66519 12.5007 1.66602ZM9.16732 8.33269H4.16732V15.8327H9.16732V8.33269ZM15.834 8.33269H10.834V15.8327H15.834V8.33269ZM7.50065 3.33269C7.06816 3.33075 6.65186 3.49701 6.33969 3.79634C6.02752 4.09566 5.84393 4.50462 5.8277 4.9368C5.81147 5.36899 5.96388 5.79056 6.25273 6.11245C6.54157 6.43435 6.94424 6.63135 7.37565 6.66185L7.50065 6.66602H9.16732V4.99935C9.16733 4.60107 9.02472 4.21595 8.76531 3.91374C8.5059 3.61152 8.14684 3.41219 7.75315 3.35185L7.62482 3.33685L7.50065 3.33269ZM12.5007 3.33269C12.0802 3.33255 11.6752 3.49136 11.3669 3.77727C11.0585 4.06318 10.8697 4.45506 10.8382 4.87435L10.834 4.99935V6.66602H12.5007C12.9211 6.66615 13.3261 6.50735 13.6344 6.22144C13.9428 5.93553 14.1316 5.54365 14.1632 5.12435L14.1673 4.99935C14.1673 4.55733 13.9917 4.1334 13.6792 3.82084C13.3666 3.50828 12.9427 3.33269 12.5007 3.33269Z" fill="#158942"/>
</g>
</svg>
