<svg width="20" height="20" viewBox="0 0 20 20" fill="none" xmlns="http://www.w3.org/2000/svg">
<g id="videocam_FILL1_wght400_GRAD0_opsz24 1">
<path id="Vector" d="M3.33256 16.6663C2.87423 16.6663 2.48187 16.5031 2.15548 16.1768C1.82909 15.8504 1.66589 15.458 1.66589 14.9997V4.99967C1.66589 4.54134 1.82909 4.14898 2.15548 3.82259C2.48187 3.4962 2.87423 3.33301 3.33256 3.33301H13.3326C13.7909 3.33301 14.1833 3.4962 14.5096 3.82259C14.836 4.14898 14.9992 4.54134 14.9992 4.99967V8.74968L18.3326 5.41634V14.583L14.9992 11.2497V14.9997C14.9992 15.458 14.836 15.8504 14.5096 16.1768C14.1833 16.5031 13.7909 16.6663 13.3326 16.6663H3.33256Z" fill="url(#paint0_linear_3714_14597)"/>
</g>
<defs>
<linearGradient id="paint0_linear_3714_14597" x1="18.3326" y1="3.33301" x2="6.08307" y2="17.2908" gradientUnits="userSpaceOnUse">
<stop stop-color="#158942"/>
<stop offset="1" stop-color="#00702B"/>
</linearGradient>
</defs>
</svg>
