<svg width="60" height="60" viewBox="0 0 60 60" fill="none" xmlns="http://www.w3.org/2000/svg">
<rect x="0.5" y="0.5" width="59" height="59" rx="7.5" fill="#FFFBE4" stroke="#FFF9D3"/>
<g clip-path="url(#clip0_3813_16444)">
<path d="M16.7904 20.3714H30.5083V22.137H33.2987V19.0569C33.2987 17.2852 31.8573 15.8438 30.0855 15.8438H17.2132C15.4414 15.8438 14 17.2852 14 19.0569V40.9449C14 42.7167 15.4414 44.1581 17.2132 44.1581H30.0855C31.8573 44.1581 33.2987 42.7167 33.2987 40.9449V39.6087L16.7904 39.6305V20.3714ZM23.6493 40.2866C24.4873 40.2866 25.1665 40.9659 25.1665 41.8038C25.1665 42.6411 24.4873 43.321 23.6493 43.321C22.8113 43.321 22.1322 42.641 22.1322 41.8038C22.1322 40.9659 22.8114 40.2866 23.6493 40.2866Z" fill="#DBBD00"/>
<path d="M44.5671 23.5312H24.5961C23.8052 23.5312 23.1641 24.1724 23.1641 24.9633V32.9506H45.9992V24.9633C45.9992 24.1724 45.358 23.5312 44.5671 23.5312ZM31.0124 29.0339C31.0124 29.4943 30.6357 29.871 30.1753 29.871H26.218C25.7576 29.871 25.3809 29.4943 25.3809 29.0339V27.4255C25.3809 26.9651 25.7576 26.5884 26.218 26.5884H30.1753C30.6357 26.5884 31.0124 26.9651 31.0124 27.4255V29.0339ZM38.6818 30.23C38.3191 30.4481 37.8945 30.5738 37.4405 30.5738C36.108 30.5738 35.0278 29.4936 35.0278 28.1612C35.0278 26.8287 36.108 25.7485 37.4405 25.7485C37.9239 25.7485 38.3738 25.8913 38.7512 26.1361C38.3071 26.7179 38.0426 27.4438 38.0426 28.2305C38.0425 28.975 38.2799 29.6649 38.6818 30.23ZM41.5016 30.643C40.1692 30.643 39.089 29.5629 39.089 28.2304C39.089 26.8979 40.1692 25.8177 41.5016 25.8177C42.8341 25.8177 43.9142 26.8979 43.9142 28.2304C43.9142 29.5628 42.8341 30.643 41.5016 30.643Z" fill="#DBBD00"/>
<path d="M23.1641 36.7824C23.1641 37.5733 23.8052 38.2145 24.5961 38.2145H44.5671C45.358 38.2145 45.9992 37.5733 45.9992 36.7824V36.3281H23.1641V36.7824Z" fill="#DBBD00"/>
</g>
<defs>
<clipPath id="clip0_3813_16444">
<rect width="32" height="32" fill="white" transform="translate(14 14)"/>
</clipPath>
</defs>
</svg>
