<svg width="22" height="22" viewBox="0 0 22 22" fill="none" xmlns="http://www.w3.org/2000/svg">
<g id="noun-offers-958287 1" clip-path="url(#clip0_3714_5680)">
<g id="Group">
<path id="Vector" d="M13.6336 12.8105C12.9919 12.8105 12.4648 13.3376 12.4648 13.9793C12.4648 14.621 12.9919 15.148 13.6336 15.148C14.2982 15.148 14.8023 14.621 14.8023 13.9793C14.8023 13.3376 14.2753 12.8105 13.6336 12.8105Z" fill="url(#paint0_linear_3714_5680)"/>
<path id="Vector_2" d="M8.36504 9.1681C9.00671 9.1681 9.53379 8.66393 9.53379 8.02227C9.53379 7.3806 9.00671 6.85352 8.36504 6.85352C7.70046 6.85352 7.19629 7.35768 7.19629 7.99935C7.19629 8.64102 7.72337 9.1681 8.36504 9.1681Z" fill="url(#paint1_linear_3714_5680)"/>
<path id="Vector_3" d="M21.2891 9.8776L20.487 8.68594C20.4183 8.54844 20.3954 8.41094 20.3954 8.25052L20.487 6.80677C20.5329 5.98177 20.0975 5.22552 19.3641 4.85885L18.0808 4.21719C17.9433 4.14844 17.8516 4.05677 17.7829 3.91927L17.1412 2.63594C16.7745 1.9026 15.9954 1.46719 15.1933 1.51302L13.7495 1.60469C13.612 1.60469 13.4516 1.58177 13.337 1.4901L12.1454 0.710938C11.4579 0.252604 10.587 0.252604 9.89954 0.710938L8.70788 1.51302C8.54746 1.58177 8.40996 1.60469 8.24954 1.60469L6.80579 1.51302C5.98079 1.46719 5.22454 1.9026 4.85788 2.63594L4.21621 3.91927C4.14746 4.05677 4.05579 4.14844 3.91829 4.21719L2.63496 4.85885C1.90163 5.22552 1.46621 6.00469 1.51204 6.80677L1.60371 8.25052C1.60371 8.38802 1.58079 8.54844 1.48913 8.66302L0.709961 9.85469C0.251628 10.5422 0.251628 11.4359 0.709961 12.1005L1.51204 13.2922C1.58079 13.4526 1.60371 13.5901 1.60371 13.7505L1.51204 15.1943C1.46621 16.0193 1.90163 16.7755 2.63496 17.1422L3.91829 17.7839C4.05579 17.8526 4.14746 17.9672 4.21621 18.0818L4.85788 19.3651C5.22454 20.0984 6.00371 20.5339 6.80579 20.488L8.24954 20.3964C8.38704 20.3964 8.54746 20.4193 8.66204 20.5109L9.85371 21.2901C10.1975 21.5193 10.587 21.6339 10.9766 21.6339C11.3662 21.6339 11.7558 21.5193 12.0995 21.2901L13.2912 20.488C13.4058 20.4193 13.5662 20.3734 13.7037 20.3734L15.1475 20.4651C15.9725 20.5109 16.7287 20.0755 17.0954 19.3422L17.737 18.0589C17.8058 17.9214 17.8975 17.8297 18.035 17.7609L19.3183 17.1193C20.0516 16.7526 20.487 15.9734 20.4412 15.1714L20.3954 13.7505C20.3954 13.613 20.4183 13.4526 20.51 13.338L21.2891 12.1234C21.7475 11.4359 21.7475 10.5422 21.2891 9.8776ZM8.36413 5.45469C9.76204 5.45469 10.9079 6.60052 10.9079 7.99844C10.9079 9.39635 9.76204 10.5422 8.36413 10.5422C6.9433 10.5422 5.82038 9.41927 5.82038 7.99844C5.82038 6.60052 6.96621 5.45469 8.36413 5.45469ZM7.10371 15.8359C6.96621 15.9734 6.78288 16.0422 6.62246 16.0422C6.46204 16.0422 6.27871 15.9734 6.14121 15.8359C5.86621 15.5839 5.86621 15.1484 6.14121 14.8734L14.8954 6.14219C15.1475 5.86719 15.5829 5.86719 15.8579 6.14219C16.11 6.41719 16.11 6.8526 15.835 7.10469L7.10371 15.8359ZM13.635 16.5464C12.237 16.5464 11.0912 15.4005 11.0912 14.0026C11.0912 12.6047 12.237 11.4589 13.635 11.4589C15.0558 11.4589 16.1787 12.5818 16.1787 14.0026C16.1787 15.4005 15.0329 16.5464 13.635 16.5464Z" fill="url(#paint2_linear_3714_5680)"/>
</g>
</g>
<defs>
<linearGradient id="paint0_linear_3714_5680" x1="14.8023" y1="12.8105" x2="12.6458" y2="14.7764" gradientUnits="userSpaceOnUse">
<stop stop-color="#158942"/>
<stop offset="1" stop-color="#00702B"/>
</linearGradient>
<linearGradient id="paint1_linear_3714_5680" x1="9.53379" y1="6.85352" x2="7.39653" y2="8.82106" gradientUnits="userSpaceOnUse">
<stop stop-color="#158942"/>
<stop offset="1" stop-color="#00702B"/>
</linearGradient>
<linearGradient id="paint2_linear_3714_5680" x1="21.6329" y1="0.367186" x2="2.01238" y2="18.2525" gradientUnits="userSpaceOnUse">
<stop stop-color="#158942"/>
<stop offset="1" stop-color="#00702B"/>
</linearGradient>
<clipPath id="clip0_3714_5680">
<rect width="22" height="22" fill="white"/>
</clipPath>
</defs>
</svg>
