<svg width="25" height="25" viewBox="0 0 25 25" fill="none" xmlns="http://www.w3.org/2000/svg">
<circle cx="12.5" cy="12.5" r="12" stroke="url(#paint0_linear_3121_4038)"/>
<g clip-path="url(#clip0_3121_4038)">
<path d="M7.25563 6.13379L13.62 12.5L7.25625 18.8663C7.14309 18.8187 7.04652 18.7387 6.97868 18.6364C6.91085 18.5341 6.87477 18.414 6.875 18.2913V6.70879C6.87505 6.58618 6.91116 6.46629 6.97884 6.36405C7.04652 6.26181 7.14278 6.18173 7.25563 6.13379ZM14.0619 12.9419L15.5006 14.3807L8.665 18.3388L14.0619 12.9419ZM16.0613 10.9432L17.8156 11.9594C17.9103 12.0144 17.989 12.0932 18.0436 12.1881C18.0983 12.283 18.127 12.3905 18.127 12.5C18.127 12.6095 18.0983 12.7171 18.0436 12.812C17.989 12.9069 17.9103 12.9857 17.8156 13.0407L16.0606 14.0569L14.5038 12.5L16.0613 10.9432ZM8.665 6.66129L15.5013 10.6188L14.0619 12.0582L8.665 6.66129Z" fill="url(#paint1_linear_3121_4038)"/>
</g>
<defs>
<linearGradient id="paint0_linear_3121_4038" x1="25" y1="-1.37477e-06" x2="1.93515" y2="21.0251" gradientUnits="userSpaceOnUse">
<stop stop-color="#158942"/>
<stop offset="1" stop-color="#00702B"/>
</linearGradient>
<linearGradient id="paint1_linear_3121_4038" x1="18.127" y1="6.13379" x2="6.60015" y2="15.4195" gradientUnits="userSpaceOnUse">
<stop stop-color="#158942"/>
<stop offset="1" stop-color="#00702B"/>
</linearGradient>
<clipPath id="clip0_3121_4038">
<rect width="15" height="15" fill="white" transform="translate(5 5)"/>
</clipPath>
</defs>
</svg>
