<svg width="160" height="46" viewBox="0 0 160 46" fill="none" xmlns="http://www.w3.org/2000/svg">
<g id="Group">
<path id="BG" d="M153.333 46H5.89744C2.65532 46 0 43.4111 0 40.25V5.75C0 2.58894 2.65532 9.53674e-07 5.89744 9.53674e-07H153.333C156.575 9.53674e-07 159.231 2.58894 159.231 5.75V40.25C159.231 43.4111 156.575 46 153.333 46Z" fill="#000401"/>
<path id="Border" d="M153.333 0.921436C156.064 0.921436 158.286 3.08775 158.286 5.75V40.25C158.286 42.9122 156.064 45.0786 153.333 45.0786H5.89744C3.16692 45.0786 0.945064 42.9122 0.945064 40.25V5.75C0.945064 3.08775 3.16692 0.921436 5.89744 0.921436H153.333ZM153.333 9.53674e-07H5.89744C2.65532 9.53674e-07 0 2.58894 0 5.75V40.25C0 43.4111 2.65532 46 5.89744 46H153.333C156.575 46 159.231 43.4111 159.231 40.25V5.75C159.231 2.58894 156.575 9.53674e-07 153.333 9.53674e-07Z" fill="#969897"/>
<g id="Icon">
<path id="Vector" d="M12.3079 8.66981C11.9615 9.02344 11.761 9.574 11.761 10.287V35.7192C11.761 36.4322 11.9615 36.9828 12.3079 37.3364L12.3935 37.4141L27.0102 23.1684V22.8321L12.3935 8.58644L12.3079 8.66981Z" fill="url(#paint0_linear_0_680)"/>
<path id="Vector_2" d="M31.8771 27.9189L27.0102 23.168V22.8316L31.883 18.0807L31.9921 18.1425L37.7627 21.3438C39.4096 22.2523 39.4096 23.7473 37.7627 24.6616L31.9921 27.8571L31.8771 27.9189Z" fill="url(#paint1_linear_0_680)"/>
<path id="Vector_3" d="M31.9921 27.8573L27.0103 23L12.308 37.3362C12.8549 37.8968 13.7469 37.9644 14.7613 37.4038L31.9921 27.8573Z" fill="url(#paint2_linear_0_680)"/>
<path id="Vector_4" d="M31.9921 18.1427L14.7613 8.59625C13.7469 8.04138 12.8549 8.10894 12.308 8.66956L27.0103 23L31.9921 18.1427Z" fill="url(#paint3_linear_0_680)"/>
</g>
<g id="GET IT ON">
<path id="G" d="M55.9283 11.7801C55.9283 12.7403 55.6335 13.5094 55.0526 14.083C54.3847 14.7629 53.5148 15.105 52.4489 15.105C51.4301 15.105 50.5602 14.7572 49.8466 14.0715C49.1315 13.3757 48.7747 12.5218 48.7747 11.4998C48.7747 10.4777 49.1315 9.62384 49.8466 8.93384C50.5602 8.24241 51.4301 7.89453 52.4489 7.89453C52.956 7.89453 53.4396 7.99659 53.9011 8.18634C54.3611 8.37753 54.7356 8.63628 55.0069 8.95541L54.3906 9.56203C53.9173 9.01722 53.273 8.74841 52.4489 8.74841C51.7058 8.74841 51.0615 9.00141 50.5145 9.51172C49.9734 10.0235 49.7021 10.6862 49.7021 11.4998C49.7021 12.3134 49.9734 12.9818 50.5145 13.4936C51.0615 13.9982 51.7058 14.2569 52.4489 14.2569C53.2376 14.2569 53.9011 13.9982 54.4245 13.4878C54.7695 13.15 54.9656 12.6843 55.0172 12.0892H52.4489V11.2583H55.8753C55.9165 11.438 55.9283 11.6119 55.9283 11.7801Z" fill="white" stroke="white" stroke-width="0.16" stroke-miterlimit="10"/>
<path id="E" d="M61.3643 8.89942H58.1457V11.0844H61.0473V11.9153H58.1457V14.1003H61.3643V14.947H57.2346V8.05273H61.3643V8.89942Z" fill="white" stroke="white" stroke-width="0.16" stroke-miterlimit="10"/>
<path id="T" d="M65.2006 14.947H64.2894V8.89942H62.3152V8.05273H67.1762V8.89942H65.2006V14.947Z" fill="white" stroke="white" stroke-width="0.16" stroke-miterlimit="10"/>
<path id="I" d="M70.6941 14.947V8.05273H71.6037V14.947H70.6941Z" fill="white" stroke="white" stroke-width="0.16" stroke-miterlimit="10"/>
<path id="T_2" d="M75.6361 14.947H74.7323V8.89942H72.7508V8.05273H77.6176V8.89942H75.6361V14.947Z" fill="white" stroke="white" stroke-width="0.16" stroke-miterlimit="10"/>
<path id="O" d="M86.8206 14.06C86.1232 14.7572 85.2592 15.105 84.2286 15.105C83.1922 15.105 82.3282 14.7572 81.6308 14.06C80.9349 13.3642 80.5884 12.5103 80.5884 11.4998C80.5884 10.4892 80.9349 9.63534 81.6308 8.93959C82.3282 8.24241 83.1922 7.89453 84.2286 7.89453C85.2533 7.89453 86.1173 8.24241 86.8147 8.94534C87.5165 9.64684 87.8629 10.495 87.8629 11.4998C87.8629 12.5103 87.5165 13.3642 86.8206 14.06ZM82.3046 13.4821C82.8295 13.9982 83.4679 14.2569 84.2286 14.2569C84.9835 14.2569 85.6278 13.9982 86.1468 13.4821C86.6702 12.966 86.9356 12.3033 86.9356 11.4998C86.9356 10.6962 86.6702 10.0335 86.1468 9.51747C85.6278 9.00141 84.9835 8.74266 84.2286 8.74266C83.4679 8.74266 82.8295 9.00141 82.3046 9.51747C81.7812 10.0335 81.5158 10.6962 81.5158 11.4998C81.5158 12.3033 81.7812 12.966 82.3046 13.4821Z" fill="white" stroke="white" stroke-width="0.16" stroke-miterlimit="10"/>
<path id="N" d="M89.1412 14.947V8.05273H90.247L93.6852 13.4146H93.725L93.6852 12.0892V8.05273H94.5949V14.947H93.6454L90.045 9.32061H90.0052L90.045 10.6517V14.947H89.1412Z" fill="white" stroke="white" stroke-width="0.16" stroke-miterlimit="10"/>
</g>
<g id="Google Play">
<path id="Google Play_2" d="M80.3644 25.0157C77.594 25.0157 75.3309 27.0713 75.3309 29.9075C75.3309 32.7207 77.594 34.7979 80.3644 34.7979C83.1406 34.7979 85.4037 32.7207 85.4037 29.9075C85.4037 27.0713 83.1406 25.0157 80.3644 25.0157ZM80.3644 32.8716C78.8443 32.8716 77.5365 31.6483 77.5365 29.9075C77.5365 28.1437 78.8443 26.942 80.3644 26.942C81.8844 26.942 83.1981 28.1437 83.1981 29.9075C83.1981 31.6483 81.8844 32.8716 80.3644 32.8716ZM69.3819 25.0157C66.6056 25.0157 64.3484 27.0713 64.3484 29.9075C64.3484 32.7207 66.6056 34.7979 69.3819 34.7979C72.1566 34.7979 74.4153 32.7207 74.4153 29.9075C74.4153 27.0713 72.1566 25.0157 69.3819 25.0157ZM69.3819 32.8716C67.8603 32.8716 66.5481 31.6483 66.5481 29.9075C66.5481 28.1437 67.8603 26.942 69.3819 26.942C70.9019 26.942 72.2097 28.1437 72.2097 29.9075C72.2097 31.6483 70.9019 32.8716 69.3819 32.8716ZM56.3131 26.515V28.5936H61.4041C61.2552 29.7551 60.8571 30.609 60.2467 31.2041C59.5037 31.9229 58.3463 32.7207 56.3131 32.7207C53.1801 32.7207 50.7268 30.2554 50.7268 27.2007C50.7268 24.146 53.1801 21.6807 56.3131 21.6807C58.0072 21.6807 59.2397 22.3261 60.1494 23.1628L61.6518 21.698C60.3794 20.5135 58.6869 19.6035 56.3131 19.6035C52.0169 19.6035 48.4062 23.0118 48.4062 27.2007C48.4062 31.3896 52.0169 34.7979 56.3131 34.7979C58.6353 34.7979 60.3794 34.0561 61.7506 32.6646C63.1556 31.2947 63.5935 29.3685 63.5935 27.8131C63.5935 27.3301 63.5522 26.8859 63.4785 26.515H56.3131ZM109.753 28.1265C109.338 27.0325 108.06 25.0157 105.456 25.0157C102.876 25.0157 100.728 26.998 100.728 29.9075C100.728 32.6474 102.854 34.7979 105.704 34.7979C108.009 34.7979 109.338 33.428 109.885 32.6301L108.175 31.519C107.605 32.3326 106.828 32.8716 105.704 32.8716C104.588 32.8716 103.787 32.3728 103.274 31.3896L109.984 28.6828L109.753 28.1265ZM102.912 29.7551C102.854 27.8691 104.414 26.9031 105.532 26.9031C106.407 26.9031 107.151 27.3301 107.398 27.941L102.912 29.7551ZM97.4581 34.5003H99.6637V20.1253H97.4581V34.5003ZM93.8459 26.1053H93.7722C93.2768 25.5332 92.3317 25.0157 91.1345 25.0157C88.6222 25.0157 86.3252 27.1662 86.3252 29.9233C86.3252 32.6646 88.6222 34.7979 91.1345 34.7979C92.3317 34.7979 93.2768 34.2761 93.7722 33.6867H93.8459V34.3882C93.8459 36.2584 92.8212 37.2632 91.1685 37.2632C89.8209 37.2632 88.9849 36.3145 88.6399 35.5166L86.7218 36.2972C87.2747 37.5938 88.7387 39.1895 91.1685 39.1895C93.7545 39.1895 95.9365 37.706 95.9365 34.0964V25.3133H93.8459V26.1053ZM91.3233 32.8716C89.8032 32.8716 88.5308 31.6311 88.5308 29.9233C88.5308 28.1998 89.8032 26.942 91.3233 26.942C92.8212 26.942 94.0022 28.1998 94.0022 29.9233C94.0022 31.6311 92.8212 32.8716 91.3233 32.8716ZM120.079 20.1253H114.804V34.5003H117.004V29.0536H120.079C122.522 29.0536 124.918 27.3301 124.918 24.5888C124.918 21.8489 122.516 20.1253 120.079 20.1253ZM120.137 27.0541H117.004V22.1249H120.137C121.779 22.1249 122.717 23.4546 122.717 24.5888C122.717 25.7014 121.779 27.0541 120.137 27.0541ZM133.735 24.9884C132.145 24.9884 130.493 25.6726 129.813 27.1892L131.765 27.987C132.185 27.1892 132.958 26.9305 133.774 26.9305C134.916 26.9305 136.073 27.5989 136.091 28.7791V28.93C135.693 28.7058 134.84 28.3737 133.792 28.3737C131.69 28.3737 129.547 29.5021 129.547 31.6081C129.547 33.5343 131.27 34.7749 133.205 34.7749C134.686 34.7749 135.502 34.1237 136.015 33.3661H136.091V34.4773H138.215V28.9631C138.215 26.4144 136.263 24.9884 133.735 24.9884ZM133.469 32.8659C132.75 32.8659 131.747 32.518 131.747 31.6483C131.747 30.5357 132.997 30.1088 134.08 30.1088C135.048 30.1088 135.502 30.3172 136.091 30.5918C135.918 31.9229 134.743 32.8659 133.469 32.8659ZM145.956 25.3032L143.427 31.5348H143.352L140.738 25.3032H138.366L142.293 34.0116L140.052 38.8574H142.351L148.403 25.3032H145.956ZM126.127 34.5003H128.333V20.1253H126.127V34.5003Z" fill="white"/>
</g>
</g>
<defs>
<linearGradient id="paint0_linear_0_680" x1="25.7125" y1="35.9841" x2="6.41887" y2="16.1958" gradientUnits="userSpaceOnUse">
<stop stop-color="#00A0FF"/>
<stop offset="0.0066" stop-color="#00A1FF"/>
<stop offset="0.2601" stop-color="#00BEFF"/>
<stop offset="0.5122" stop-color="#00D2FF"/>
<stop offset="0.7604" stop-color="#00DFFF"/>
<stop offset="1" stop-color="#00E3FF"/>
</linearGradient>
<linearGradient id="paint1_linear_0_680" x1="39.9072" y1="22.9982" x2="11.3673" y2="22.9982" gradientUnits="userSpaceOnUse">
<stop stop-color="#FFE000"/>
<stop offset="0.4087" stop-color="#FFBD00"/>
<stop offset="0.7754" stop-color="#FFA500"/>
<stop offset="1" stop-color="#FF9C00"/>
</linearGradient>
<linearGradient id="paint2_linear_0_680" x1="29.2831" y1="20.3595" x2="3.11947" y2="-6.475" gradientUnits="userSpaceOnUse">
<stop stop-color="#FF3A44"/>
<stop offset="1" stop-color="#C31162"/>
</linearGradient>
<linearGradient id="paint3_linear_0_680" x1="8.60708" y1="45.7974" x2="20.2903" y2="33.8147" gradientUnits="userSpaceOnUse">
<stop stop-color="#32A071"/>
<stop offset="0.0685" stop-color="#2DA771"/>
<stop offset="0.4762" stop-color="#15CF74"/>
<stop offset="0.8009" stop-color="#06E775"/>
<stop offset="1" stop-color="#00F076"/>
</linearGradient>
</defs>
</svg>
