<svg width="20" height="21" viewBox="0 0 20 21" fill="none" xmlns="http://www.w3.org/2000/svg">
<g id="013-care-2" clip-path="url(#clip0_0_564)">
<g id="Group">
<g id="Group_2">
<path id="Vector" d="M19.1616 12.5787C19.1441 12.5553 19.1253 12.5336 19.1051 12.5127C18.5237 11.7857 17.4727 11.6397 16.7398 12.1898C15.6836 12.9683 13.8765 14.2782 13.2734 14.7154L10.6387 14.5089L12.2507 14.156C13.1142 14.0304 13.7332 13.2685 13.6958 12.3692C13.6956 12.3596 13.6949 12.3501 13.694 12.3408C13.6192 11.4422 12.889 10.7646 11.9958 10.7646H7.12055C6.72441 10.7646 6.3548 10.866 6.02191 11.0658C6.00855 11.0739 5.99539 11.0823 5.98246 11.0914L0.789726 14.7195C0.481796 14.9347 0.406523 15.359 0.621679 15.6667C0.83664 15.9748 1.26113 16.0504 1.56883 15.8347L6.7398 12.2218C6.855 12.1567 6.97973 12.1247 7.12074 12.1247H11.996C12.177 12.1247 12.3153 12.2535 12.3371 12.4394C12.3387 12.6031 12.2505 12.785 12.0477 12.8104C12.0273 12.8129 12.0069 12.8163 11.9867 12.8208L9.08422 13.4557C8.85769 13.5054 8.67199 13.6668 8.59148 13.8843C8.51098 14.102 8.5468 14.3455 8.68672 14.5305L9.4577 15.5509C9.57492 15.7063 9.75316 15.804 9.94726 15.8192L13.4166 16.0913C13.5772 16.1029 13.738 16.0586 13.8686 15.9641C13.8923 15.9468 16.2668 14.2282 17.5513 13.2815C17.698 13.1716 17.9314 13.2133 18.05 13.372C18.0631 13.3895 18.0772 13.4064 18.0919 13.4223C18.1833 13.5718 18.1484 13.7634 18.0035 13.872L13.402 17.3404C13.2666 17.4417 13.1255 17.4803 12.9643 17.4589L6.25226 16.62C6.06906 16.5971 5.88492 16.6495 5.74117 16.7651L3.17883 18.8288C2.88609 19.0646 2.84004 19.493 3.07566 19.7855C3.20992 19.9523 3.40695 20.039 3.60582 20.039C3.7557 20.039 3.90648 19.9898 4.03191 19.8889L6.36957 18.0061L12.7898 18.8086C13.3018 18.8768 13.7952 18.7455 14.219 18.4281L18.8213 14.9598C19.5716 14.397 19.7242 13.329 19.1616 12.5787Z" fill="white"/>
</g>
</g>
<g id="Group_3">
<g id="Group_4">
<path id="Vector_2" d="M13.1065 2.39746C12.7308 2.39746 12.4263 2.70199 12.4263 3.07773V7.15937C12.4263 7.53512 12.7308 7.83965 13.1065 7.83965C13.4823 7.83965 13.7868 7.53512 13.7868 7.15937V3.07773C13.7868 2.70199 13.4823 2.39746 13.1065 2.39746Z" fill="white"/>
</g>
</g>
<g id="Group_5">
<g id="Group_6">
<path id="Vector_3" d="M15.1474 4.43799H11.0658C10.69 4.43799 10.3855 4.74252 10.3855 5.11826C10.3855 5.494 10.69 5.79853 11.0658 5.79853H15.1474C15.5232 5.79853 15.8277 5.494 15.8277 5.11826C15.8277 4.74252 15.5232 4.43799 15.1474 4.43799Z" fill="white"/>
</g>
</g>
<g id="Group_7">
<g id="Group_8">
<path id="Vector_4" d="M13.1065 0.0390625C10.3056 0.0390625 8.02734 2.31754 8.02734 5.11844C8.02734 7.91934 10.3056 10.1978 13.1065 10.1978C15.9071 10.1978 18.1859 7.91937 18.1859 5.11844C18.1859 2.3175 15.9074 0.0390625 13.1065 0.0390625ZM13.1065 8.83727C11.0559 8.83727 9.38789 7.16902 9.38789 5.11844C9.38789 3.06785 11.0559 1.39961 13.1065 1.39961C15.157 1.39961 16.8253 3.06785 16.8253 5.11844C16.8253 7.16902 15.1571 8.83727 13.1065 8.83727Z" fill="white"/>
</g>
</g>
</g>
<defs>
<clipPath id="clip0_0_564">
<rect width="20" height="20" fill="white" transform="translate(0 0.0390625)"/>
</clipPath>
</defs>
</svg>
