<svg width="23" height="24" viewBox="0 0 23 24" fill="none" xmlns="http://www.w3.org/2000/svg">
<g id="Group 1261155305">
<g id="Group">
<path id="Vector" d="M22.1117 6.22418L21.5537 5.77872C21.5708 5.63676 21.5781 5.49236 21.5781 5.3504C21.5781 5.20599 21.5708 5.06403 21.5537 4.92207L22.1117 4.47661C22.3761 4.26612 22.4446 3.89899 22.2757 3.60528L21.6491 2.521C21.4802 2.2273 21.1278 2.10492 20.8121 2.2273L20.1463 2.48674C19.9162 2.31296 19.6666 2.16855 19.4047 2.05597L19.297 1.35106C19.2456 1.01575 18.9641 0.773438 18.6239 0.773438H17.3732C17.0355 0.773438 16.7515 1.01575 16.7001 1.35106L16.5924 2.05597C16.3281 2.16855 16.0785 2.31296 15.8484 2.48674L15.1851 2.2273C14.8694 2.10492 14.5169 2.2273 14.348 2.521L13.7288 3.60528C13.5599 3.89899 13.6284 4.26368 13.8928 4.47661L14.4508 4.92207C14.4337 5.06403 14.4263 5.20844 14.4263 5.3504C14.4263 5.49236 14.4361 5.63676 14.4508 5.77872L13.8928 6.22418C13.6284 6.43467 13.5599 6.80181 13.7288 7.09552L14.3529 8.17979C14.5218 8.4735 14.8742 8.59588 15.19 8.4735L15.8533 8.21406C16.0833 8.38539 16.333 8.52979 16.5973 8.64238L16.705 9.34728C16.7564 9.6826 17.0379 9.92491 17.3781 9.92491H18.6288C18.9666 9.92491 19.2505 9.6826 19.3019 9.34728L19.4096 8.64238C19.6739 8.52979 19.9236 8.38539 20.1512 8.21406L20.817 8.4735C21.1327 8.59588 21.4851 8.4735 21.654 8.17979L22.2806 7.09552C22.447 6.80181 22.3761 6.43712 22.1117 6.22418ZM18.0022 7.18118C16.9938 7.18118 16.1715 6.36125 16.1715 5.3504C16.1715 4.342 16.9914 3.51961 18.0022 3.51961C19.0106 3.51961 19.833 4.33955 19.833 5.3504C19.833 6.3588 19.0131 7.18118 18.0022 7.18118Z" fill="url(#paint0_linear_3714_5692)"/>
<path id="Vector_2" d="M15.3928 13.5481L14.5998 13.3793C14.4284 13.3425 14.2865 13.2177 14.2326 13.0537C14.1323 12.7478 14.0075 12.4467 13.863 12.1604C13.7847 12.0037 13.7945 11.8153 13.89 11.6684L14.333 10.988C14.5631 10.6331 14.5141 10.1607 14.2155 9.85965L13.2805 8.92713C12.9819 8.62853 12.5071 8.57713 12.1522 8.8072L11.4718 9.25021C11.3249 9.34566 11.1365 9.3579 10.9798 9.27713C10.6934 9.13272 10.3924 9.0079 10.0864 8.90755C9.92246 8.8537 9.79763 8.71174 9.76092 8.54041L9.59204 7.7474C9.50392 7.33376 9.13434 7.03516 8.71091 7.03516H7.39412C6.97069 7.03516 6.6011 7.33621 6.51299 7.7474L6.34411 8.54041C6.30739 8.71174 6.18257 8.8537 6.01858 8.90755C5.71263 9.0079 5.41158 9.13272 5.12522 9.27713C4.96857 9.35545 4.78011 9.34566 4.63325 9.25021L3.95283 8.8072C3.59793 8.57713 3.1231 8.62608 2.8245 8.92713L1.89197 9.85965C1.59337 10.1583 1.54197 10.6331 1.77204 10.988L2.21505 11.6684C2.31051 11.8153 2.32275 12.0037 2.24198 12.1604C2.09757 12.4467 1.97274 12.7478 1.87239 13.0537C1.81855 13.2177 1.67659 13.3425 1.50526 13.3793L0.712243 13.5481C0.298604 13.6363 0 14.0058 0 14.4293V15.7485C0 16.1719 0.301051 16.5415 0.712243 16.6296L1.50526 16.7985C1.67659 16.8352 1.81855 16.9601 1.87239 17.124C1.97274 17.43 2.09757 17.731 2.24198 18.0174C2.3203 18.1716 2.31051 18.3601 2.21505 18.5094L1.77204 19.1898C1.54197 19.5447 1.59092 20.0195 1.89197 20.3181L2.8245 21.2507C3.1231 21.5493 3.59793 21.6007 3.95283 21.3681L4.63325 20.9251C4.78011 20.8297 4.96857 20.8174 5.12522 20.8958C5.41158 21.0402 5.71263 21.165 6.01858 21.2653C6.18257 21.3192 6.30739 21.4587 6.34411 21.6325L6.51299 22.4255C6.6011 22.8391 6.97069 23.1377 7.39412 23.1377H8.71091C9.13434 23.1377 9.50392 22.8367 9.59204 22.4255L9.76092 21.6325C9.79763 21.4611 9.92246 21.3192 10.0864 21.2653C10.3924 21.165 10.6934 21.0402 10.9798 20.8958C11.1365 20.8174 11.3225 20.8272 11.4718 20.9251L12.1522 21.3681C12.5071 21.5982 12.9819 21.5493 13.2805 21.2507L14.2131 20.3181C14.5117 20.0195 14.5606 19.5447 14.3305 19.1898L13.8875 18.5094C13.7921 18.3625 13.7823 18.1741 13.8606 18.0174C14.005 17.731 14.1298 17.43 14.2302 17.124C14.284 16.9601 14.4235 16.8352 14.5973 16.7985L15.3903 16.6296C15.804 16.5415 16.1026 16.1719 16.1026 15.7485V14.4293C16.105 14.0083 15.8064 13.6363 15.3928 13.5481ZM8.05251 18.4898C6.17767 18.4898 4.65039 16.965 4.65039 15.0877C4.65039 13.2104 6.17767 11.6855 8.05251 11.6855C9.92735 11.6855 11.4546 13.2104 11.4546 15.0877C11.4546 16.965 9.92735 18.4898 8.05251 18.4898Z" fill="url(#paint1_linear_3714_5692)"/>
<path id="Vector_3" d="M13.3521 2.02904L11.3206 3.78639L10.6793 3.04478L11.3646 2.45247C9.36251 2.54058 7.53662 3.55143 6.39605 5.23291C6.03137 5.77137 5.75234 6.35879 5.56633 6.97558L4.62891 6.69411C4.84185 5.98187 5.16248 5.30634 5.58591 4.68465C6.30549 3.62485 7.28942 2.77065 8.43488 2.21261C9.41146 1.73533 10.4908 1.48323 11.5751 1.47099L10.8555 0.641264L11.5971 0L13.3521 2.02904Z" fill="url(#paint2_linear_3714_5692)"/>
<path id="Vector_4" d="M19.8369 17.3128L19.8467 18.2918L17.1495 18.3163L17.125 15.6191L18.104 15.6093L18.1138 16.6642C19.9471 15.1443 21.0191 12.8851 21.0191 10.4816C21.0191 10.3446 21.0166 10.2075 21.0093 10.0704L21.9883 10.0215C21.9957 10.1732 22.0006 10.3299 22.0006 10.4816C22.0006 13.1275 20.8429 15.6166 18.8579 17.3201L19.8369 17.3128Z" fill="url(#paint3_linear_3714_5692)"/>
</g>
</g>
<defs>
<linearGradient id="paint0_linear_3714_5692" x1="22.3701" y1="0.773437" x2="13.9725" y2="8.07871" gradientUnits="userSpaceOnUse">
<stop stop-color="#158942"/>
<stop offset="1" stop-color="#00702B"/>
</linearGradient>
<linearGradient id="paint1_linear_3714_5692" x1="16.1026" y1="7.03516" x2="1.24645" y2="20.5775" gradientUnits="userSpaceOnUse">
<stop stop-color="#158942"/>
<stop offset="1" stop-color="#00702B"/>
</linearGradient>
<linearGradient id="paint2_linear_3714_5692" x1="13.3521" y1="-3.83593e-07" x2="6.94386" y2="7.30493" gradientUnits="userSpaceOnUse">
<stop stop-color="#158942"/>
<stop offset="1" stop-color="#00702B"/>
</linearGradient>
<linearGradient id="paint3_linear_3714_5692" x1="22.0006" y1="10.0215" x2="15.6017" y2="13.45" gradientUnits="userSpaceOnUse">
<stop stop-color="#158942"/>
<stop offset="1" stop-color="#00702B"/>
</linearGradient>
</defs>
</svg>
