<svg width="581" height="474" viewBox="0 0 581 474" fill="none" xmlns="http://www.w3.org/2000/svg">
<path fill-rule="evenodd" clip-rule="evenodd" d="M104.522 260.569C109.792 257.478 109.792 249.859 104.522 246.768L4.80991 188.28C1.03444 186.066 -0.260375 181.228 1.90409 177.424L81.1794 38.0841C83.3832 34.2106 88.3272 32.8847 92.1735 35.1355L191.508 93.2673C196.839 96.3872 203.545 92.545 203.549 86.3681L203.601 7.99468C203.604 3.57848 207.185 0 211.601 0H369.982C374.398 0 377.979 3.57848 377.982 7.99468L378.034 86.368C378.038 92.5449 384.744 96.3871 390.075 93.2672L489.409 35.1356C493.255 32.8847 498.199 34.2106 500.403 38.084L579.679 177.424C581.843 181.228 580.549 186.066 576.773 188.28L477.06 246.768C471.79 249.859 471.79 257.478 477.06 260.569L576.773 319.057C580.549 321.272 581.843 326.109 579.679 329.914L500.403 469.254C498.199 473.127 493.255 474.453 489.409 472.202L390.054 414.059C384.728 410.941 378.027 414.774 378.014 420.946L377.994 430.346C377.984 434.758 374.405 438.329 369.994 438.329H211.589C207.178 438.329 203.599 434.758 203.589 430.346L203.569 420.946C203.556 414.774 196.855 410.941 191.529 414.058L92.1735 472.202C88.3272 474.453 83.3832 473.127 81.1794 469.254L1.90408 329.914C-0.260386 326.109 1.03442 321.272 4.80989 319.057L104.522 260.569Z" fill="white" fill-opacity="0.14"/>
</svg>
