<svg width="25" height="25" viewBox="0 0 25 25" fill="none" xmlns="http://www.w3.org/2000/svg">
<g clip-path="url(#clip0_3121_10895)">
<path d="M4.16719 6.68112L0.789062 3.30404L2.26302 1.83008L5.6401 5.2082H21.5172C21.6795 5.20819 21.8397 5.24613 21.9848 5.319C22.1298 5.39187 22.2559 5.49764 22.3528 5.62789C22.4498 5.75813 22.515 5.90923 22.5431 6.06913C22.5713 6.22903 22.5617 6.3933 22.5151 6.54883L20.0151 14.8822C19.9508 15.0968 19.819 15.285 19.6392 15.4188C19.4594 15.5526 19.2413 15.6249 19.0172 15.6249H6.25052V17.7082H17.7089V19.7915H5.20885C4.93259 19.7915 4.66763 19.6818 4.47228 19.4864C4.27693 19.2911 4.16719 19.0261 4.16719 18.7499V6.68112ZM5.72969 23.9582C5.31529 23.9582 4.91786 23.7936 4.62483 23.5006C4.33181 23.2075 4.16719 22.8101 4.16719 22.3957C4.16719 21.9813 4.33181 21.5839 4.62483 21.2908C4.91786 20.9978 5.31529 20.8332 5.72969 20.8332C6.14409 20.8332 6.54152 20.9978 6.83454 21.2908C7.12757 21.5839 7.29219 21.9813 7.29219 22.3957C7.29219 22.8101 7.12757 23.2075 6.83454 23.5006C6.54152 23.7936 6.14409 23.9582 5.72969 23.9582ZM18.2297 23.9582C17.8153 23.9582 17.4179 23.7936 17.1248 23.5006C16.8318 23.2075 16.6672 22.8101 16.6672 22.3957C16.6672 21.9813 16.8318 21.5839 17.1248 21.2908C17.4179 20.9978 17.8153 20.8332 18.2297 20.8332C18.6441 20.8332 19.0415 20.9978 19.3345 21.2908C19.6276 21.5839 19.7922 21.9813 19.7922 22.3957C19.7922 22.8101 19.6276 23.2075 19.3345 23.5006C19.0415 23.7936 18.6441 23.9582 18.2297 23.9582Z" fill="#158942"/>
</g>
<defs>
<clipPath id="clip0_3121_10895">
<rect width="25" height="25" fill="white"/>
</clipPath>
</defs>
</svg>
