<svg width="20" height="16" viewBox="0 0 20 16" fill="none" xmlns="http://www.w3.org/2000/svg">
<path d="M19.648 11.8854L15.6484 15.7041H15.6384L15.5584 15.7709L15.5184 15.7995L15.4684 15.8377L15.4084 15.8663L15.3684 15.895L15.3084 15.9141L15.2584 15.9427L15.2084 15.9618L15.1484 15.9809H15.0884L15.0284 16H14.5685L14.5085 15.9809H14.4485L14.3885 15.9618L14.3385 15.9427L14.2885 15.9141L14.2285 15.895L14.1885 15.8663L14.1285 15.8377L14.0785 15.7995L14.0385 15.7709L13.9585 15.6945H13.9485L9.94896 11.8759C9.72355 11.6607 9.59692 11.3688 9.59692 11.0644C9.59692 10.7601 9.72355 10.4682 9.94896 10.253C10.1744 10.0378 10.4801 9.91687 10.7989 9.91687C11.1177 9.91687 11.4234 10.0378 11.6488 10.253L13.5986 12.1241V5.72792C13.5986 5.4241 13.725 5.13271 13.95 4.91787C14.175 4.70303 14.4802 4.58234 14.7985 4.58234C15.1167 4.58234 15.4219 4.70303 15.6469 4.91787C15.8719 5.13271 15.9983 5.4241 15.9983 5.72792V12.1241L17.9481 10.2625C18.1735 10.0473 18.4793 9.92641 18.798 9.92641C19.1168 9.92641 19.4225 10.0473 19.648 10.2625C19.8734 10.4777 20 10.7696 20 11.074C20 11.3783 19.8734 11.6702 19.648 11.8854ZM8.39913 6.10979H1.19988C0.881648 6.10979 0.576455 6.23048 0.351435 6.44532C0.126415 6.66016 0 6.95154 0 7.25537C0 7.5592 0.126415 7.85058 0.351435 8.06542C0.576455 8.28026 0.881648 8.40095 1.19988 8.40095H8.39913C8.71735 8.40095 9.02254 8.28026 9.24757 8.06542C9.47259 7.85058 9.599 7.5592 9.599 7.25537C9.599 6.95154 9.47259 6.66016 9.24757 6.44532C9.02254 6.23048 8.71735 6.10979 8.39913 6.10979ZM1.19988 2.29117H14.7985C15.1167 2.29117 15.4219 2.17047 15.6469 1.95564C15.8719 1.7408 15.9983 1.44941 15.9983 1.14558C15.9983 0.841757 15.8719 0.550373 15.6469 0.335534C15.4219 0.120695 15.1167 0 14.7985 0H1.19988C0.881648 0 0.576455 0.120695 0.351435 0.335534C0.126415 0.550373 0 0.841757 0 1.14558C0 1.44941 0.126415 1.7408 0.351435 1.95564C0.576455 2.17047 0.881648 2.29117 1.19988 2.29117ZM6.79929 12.2196H1.19988C0.881648 12.2196 0.576455 12.3403 0.351435 12.5551C0.126415 12.7699 0 13.0613 0 13.3652C0 13.669 0.126415 13.9604 0.351435 14.1752C0.576455 14.39 0.881648 14.5107 1.19988 14.5107H6.79929C7.11752 14.5107 7.42271 14.39 7.64773 14.1752C7.87275 13.9604 7.99917 13.669 7.99917 13.3652C7.99917 13.0613 7.87275 12.7699 7.64773 12.5551C7.42271 12.3403 7.11752 12.2196 6.79929 12.2196Z" fill="#000401"/>
</svg>
