<svg width="131" height="740" viewBox="0 0 131 740" fill="none" xmlns="http://www.w3.org/2000/svg">
<path opacity="0.21" d="M-47.6528 -63.2083L129.431 -63.2084M-47.6528 -18.7639L129.431 -18.7639M-47.6528 25.6806L129.431 25.6805M-47.6528 70.125L129.431 70.125M-47.6528 114.569L129.431 114.569M-47.6528 159.014L129.431 159.014M-47.6527 203.458L129.431 203.458M-47.6527 247.903L129.431 247.903M-47.6527 292.347L129.431 292.347M-47.6527 336.792L129.431 336.792M-47.6527 381.236L129.431 381.236M-47.6527 425.681L129.431 425.681M-47.6527 470.125L129.431 470.125M-47.6527 514.569L129.431 514.569M-47.6527 559.014L129.431 559.014M-47.6527 603.458L129.431 603.458M-47.6527 647.903L129.431 647.903M-47.6527 692.347L129.431 692.347M-47.6527 736.792L129.431 736.792M-47.6527 781.236L129.431 781.236M-47.6527 825.681L129.431 825.681M-47.6527 870.125L129.431 870.125M-48 -108L-47.9999 892M-3.55556 -108L-3.55546 892M40.8889 -108L40.889 892M85.3333 -108L85.3334 892M129.778 -108L129.778 892" stroke="url(#paint0_linear_0_313)" stroke-width="0.694444"/>
<defs>
<linearGradient id="paint0_linear_0_313" x1="-47.6527" y1="391.995" x2="151.778" y2="391.995" gradientUnits="userSpaceOnUse">
<stop stop-color="#399754"/>
<stop offset="1" stop-color="#399754" stop-opacity="0"/>
</linearGradient>
</defs>
</svg>
