<svg width="40" height="40" viewBox="0 0 40 40" fill="none" xmlns="http://www.w3.org/2000/svg">
<path d="M20.0652 13.9531C20.3295 13.9531 20.5831 13.8481 20.77 13.6611C20.9569 13.4742 21.0619 13.2207 21.0619 12.9563C21.0619 12.692 20.9569 12.4385 20.77 12.2515C20.5831 12.0646 20.3295 11.9596 20.0652 11.9596C18.4881 11.9596 16.9464 12.4273 15.6351 13.3034C14.3238 14.1796 13.3018 15.425 12.6982 16.882C12.0947 18.3391 11.9368 19.9424 12.2445 21.4891C12.5522 23.0359 13.3116 24.4568 14.4268 25.5719C15.5419 26.6871 16.9628 27.4465 18.5096 27.7542C20.0563 28.0619 21.6596 27.904 23.1167 27.3005C24.5737 26.6969 25.8191 25.6749 26.6953 24.3636C27.5714 23.0523 28.0391 21.5106 28.0391 19.9335C28.0391 19.6692 27.9341 19.4156 27.7472 19.2287C27.5602 19.0418 27.3067 18.9368 27.0424 18.9368C26.778 18.9368 26.5245 19.0418 26.3376 19.2287C26.1506 19.4156 26.0456 19.6692 26.0456 19.9335C26.0456 21.1163 25.6949 22.2726 25.0377 23.2561C24.3806 24.2395 23.4466 25.0061 22.3538 25.4587C21.261 25.9114 20.0586 26.0298 18.8985 25.799C17.7384 25.5683 16.6728 24.9987 15.8364 24.1623C15 23.3259 14.4304 22.2603 14.1997 21.1002C13.9689 19.9401 14.0873 18.7377 14.54 17.6449C14.9926 16.5521 15.7592 15.6181 16.7426 14.961C17.7261 14.3038 18.8824 13.9531 20.0652 13.9531Z" fill="url(#paint0_linear_0_598)"/>
<path d="M39.083 14.0134C39.0013 13.7642 38.8248 13.5572 38.5917 13.4371C38.3585 13.3171 38.0875 13.2937 37.8372 13.372C37.5869 13.4503 37.3776 13.624 37.2544 13.8556C37.1313 14.0871 37.1043 14.3578 37.1792 14.6091C38.3857 18.4539 38.2678 22.5921 36.8445 26.362C35.4211 30.1318 32.7746 33.3154 29.3281 35.4034C25.8817 37.4914 21.8346 38.3632 17.8341 37.8794C13.8337 37.3955 10.1111 35.584 7.26188 32.7345C4.41264 29.8851 2.60138 26.1624 2.11784 22.1619C1.6343 18.1614 2.50642 14.1143 4.5947 10.6681C6.68298 7.22182 9.86674 4.57551 13.6367 3.15245C17.4066 1.7294 21.5449 1.61184 25.3896 2.81857C25.5153 2.86071 25.6481 2.87734 25.7803 2.86751C25.9125 2.85768 26.0414 2.82158 26.1595 2.76131C26.2776 2.70105 26.3824 2.61784 26.468 2.51655C26.5535 2.41526 26.6179 2.29793 26.6576 2.17143C26.6972 2.04492 26.7112 1.91178 26.6987 1.77981C26.6862 1.64783 26.6476 1.51966 26.585 1.40281C26.5224 1.28596 26.4371 1.18277 26.3341 1.09928C26.2311 1.0158 26.1126 0.953687 25.9853 0.916593C21.7155 -0.422579 17.1199 -0.291121 12.9336 1.28994C8.74737 2.871 5.21227 5.81032 2.89378 9.63775C0.575282 13.4652 -0.392649 17.9596 0.144805 22.4021C0.682258 26.8446 2.69404 30.9785 5.85837 34.1426C9.02271 37.3067 13.1568 39.3182 17.5993 39.8554C22.0418 40.3925 26.5362 39.4243 30.3634 37.1055C34.1907 34.7868 37.1298 31.2515 38.7105 27.0651C40.2913 22.8787 40.4225 18.2831 39.083 14.0134Z" fill="url(#paint1_linear_0_598)"/>
<path d="M21.9633 7.11406C21.9656 6.84062 21.864 6.57649 21.6789 6.37517C21.4939 6.17385 21.2392 6.05038 20.9665 6.02976C20.6687 6.00345 20.3708 5.97913 20.0652 5.97913C17.3053 5.97913 14.6073 6.79754 12.3126 8.33086C10.0178 9.86418 8.22922 12.0436 7.17304 14.5934C6.11687 17.1432 5.84053 19.949 6.37896 22.6558C6.91739 25.3627 8.24642 27.8492 10.198 29.8007C12.1495 31.7523 14.636 33.0813 17.3428 33.6197C20.0497 34.1581 22.8555 33.8818 25.4053 32.8256C27.9551 31.7695 30.1345 29.9809 31.6678 27.6861C33.2011 25.3913 34.0195 22.6934 34.0195 19.9335C34.0195 19.573 33.9974 19.2128 33.9534 18.855C33.941 18.7164 33.8999 18.5818 33.8327 18.4599C33.7656 18.3381 33.6738 18.2315 33.5633 18.1469C33.4528 18.0624 33.3259 18.0017 33.1906 17.9688C33.0554 17.9359 32.9148 17.9314 32.7778 17.9558C32.6408 17.9801 32.5103 18.0326 32.3947 18.11C32.279 18.1874 32.1807 18.288 32.106 18.4054C32.0313 18.5228 31.9818 18.6545 31.9607 18.792C31.9395 18.9296 31.9472 19.07 31.9833 19.2044C32.0046 19.4458 32.0261 19.6862 32.0261 19.9335C32.0261 22.2991 31.3246 24.6116 30.0103 26.5786C28.696 28.5456 26.828 30.0786 24.6424 30.9839C22.4569 31.8892 20.0519 32.1261 17.7317 31.6645C15.4116 31.203 13.2803 30.0639 11.6076 28.3911C9.93481 26.7183 8.79565 24.5871 8.33414 22.2669C7.87262 19.9468 8.10949 17.5418 9.01478 15.3563C9.92007 13.1707 11.4531 11.3027 13.4201 9.98838C15.387 8.6741 17.6996 7.97261 20.0652 7.97261C20.3124 7.97261 20.5519 7.99498 20.7933 8.01542L20.9801 8.03196C21.1053 8.03741 21.2302 8.01787 21.3477 7.97449C21.4651 7.93111 21.5728 7.86475 21.6643 7.77929C21.7558 7.69383 21.8294 7.59099 21.8808 7.47677C21.9321 7.36255 21.9601 7.23925 21.9633 7.11406Z" fill="url(#paint2_linear_0_598)"/>
<path d="M26.0456 8.96925V12.5435L19.3604 19.2286C19.266 19.3208 19.1907 19.4307 19.139 19.5522C19.0874 19.6736 19.0604 19.8041 19.0595 19.936C19.0587 20.068 19.0841 20.1988 19.1342 20.3208C19.1843 20.4429 19.2581 20.5538 19.3514 20.6471C19.4448 20.7404 19.5557 20.8143 19.6777 20.8644C19.7998 20.9145 19.9306 20.9399 20.0626 20.939C20.1945 20.9382 20.325 20.9112 20.4464 20.8595C20.5678 20.8079 20.6778 20.7326 20.7699 20.6381L27.4551 13.953H31.0293C31.1602 13.953 31.2898 13.9272 31.4108 13.8771C31.5317 13.827 31.6415 13.7536 31.7341 13.661L37.7145 7.68052C37.8539 7.54112 37.9488 7.36353 37.9872 7.1702C38.0257 6.97686 38.006 6.77647 37.9305 6.59435C37.8551 6.41224 37.7274 6.25658 37.5635 6.14705C37.3996 6.03753 37.2069 5.97906 37.0098 5.97903H34.0195V2.98881C34.0195 2.79169 33.961 2.59901 33.8515 2.43511C33.742 2.27122 33.5863 2.14349 33.4042 2.06805C33.2221 1.99262 33.0217 1.97288 32.8284 2.01133C32.635 2.04978 32.4575 2.1447 32.3181 2.28407L26.3376 8.26451C26.245 8.35703 26.1716 8.4669 26.1215 8.58782C26.0714 8.70875 26.0456 8.83836 26.0456 8.96925ZM28.0391 9.38195L32.0261 5.39499V6.97577C32.026 7.10669 32.0517 7.23634 32.1018 7.3573C32.1518 7.47827 32.2253 7.58818 32.3178 7.68075C32.4104 7.77332 32.5203 7.84674 32.6413 7.8968C32.7622 7.94687 32.8919 7.97259 33.0228 7.97251H34.6036L30.6166 11.9595H28.0391V9.38195Z" fill="url(#paint3_linear_0_598)"/>
<defs>
<linearGradient id="paint0_linear_0_598" x1="28.0391" y1="11.9596" x2="13.3257" y2="25.3718" gradientUnits="userSpaceOnUse">
<stop stop-color="#158942"/>
<stop offset="1" stop-color="#00702B"/>
</linearGradient>
<linearGradient id="paint1_linear_0_598" x1="40" y1="-2.19964e-06" x2="3.09624" y2="33.6402" gradientUnits="userSpaceOnUse">
<stop stop-color="#158942"/>
<stop offset="1" stop-color="#00702B"/>
</linearGradient>
<linearGradient id="paint2_linear_0_598" x1="34.0195" y1="5.97912" x2="8.27112" y2="29.4505" gradientUnits="userSpaceOnUse">
<stop stop-color="#158942"/>
<stop offset="1" stop-color="#00702B"/>
</linearGradient>
<linearGradient id="paint3_linear_0_598" x1="38.0064" y1="1.99219" x2="20.5261" y2="17.9266" gradientUnits="userSpaceOnUse">
<stop stop-color="#158942"/>
<stop offset="1" stop-color="#00702B"/>
</linearGradient>
</defs>
</svg>
