<svg width="13" height="11" viewBox="0 0 13 11" fill="none" xmlns="http://www.w3.org/2000/svg">
<path d="M12.8513 1.53483C12.3741 1.74589 11.8681 1.8845 11.35 1.94608C11.8961 1.61948 12.3048 1.10547 12.5 0.499832C11.9875 0.804832 11.4256 1.01858 10.84 1.13421C10.4466 0.713319 9.92523 0.434184 9.35685 0.340198C8.78847 0.246211 8.20496 0.342639 7.69704 0.61449C7.18912 0.886341 6.78525 1.31838 6.5482 1.84345C6.31115 2.36852 6.25422 2.95719 6.38625 3.51796C5.34694 3.46587 4.33021 3.19578 3.40206 2.72525C2.4739 2.25471 1.65508 1.59424 0.998752 0.786707C0.766434 1.18574 0.644349 1.63935 0.645002 2.10108C0.645002 3.00733 1.10625 3.80796 1.8075 4.27671C1.39251 4.26364 0.986648 4.15157 0.623752 3.94983V3.98233C0.623878 4.58589 0.832733 5.17084 1.21491 5.63799C1.59708 6.10515 2.12905 6.42575 2.72063 6.54546C2.33539 6.64986 1.93144 6.66524 1.53938 6.59046C1.70617 7.10998 2.03126 7.56433 2.46912 7.8899C2.90699 8.21547 3.43571 8.39595 3.98125 8.40608C3.43905 8.83191 2.81824 9.1467 2.1543 9.33244C1.49037 9.51818 0.796332 9.57124 0.111877 9.48858C1.30669 10.257 2.69756 10.6649 4.11813 10.6636C8.92625 10.6636 11.5556 6.68046 11.5556 3.22608C11.5556 3.11358 11.5525 2.99983 11.5475 2.88858C12.0593 2.51869 12.501 2.06047 12.8519 1.53546L12.8513 1.53483Z" fill="url(#paint0_linear_22_119)"/>
<defs>
<linearGradient id="paint0_linear_22_119" x1="12.8519" y1="0.305175" x2="3.31669" y2="10.9956" gradientUnits="userSpaceOnUse">
<stop stop-color="#158942"/>
<stop offset="1" stop-color="#00702B"/>
</linearGradient>
</defs>
</svg>
