<svg width="20" height="20" viewBox="0 0 20 20" fill="none" xmlns="http://www.w3.org/2000/svg">
<g clip-path="url(#clip0_3121_9254)">
<path d="M3.3335 18.3334C3.3335 16.5653 4.03588 14.8696 5.28612 13.6193C6.53636 12.3691 8.23205 11.6667 10.0002 11.6667C11.7683 11.6667 13.464 12.3691 14.7142 13.6193C15.9645 14.8696 16.6668 16.5653 16.6668 18.3334H3.3335ZM10.0002 10.8334C7.23766 10.8334 5.00016 8.59587 5.00016 5.83337C5.00016 3.07087 7.23766 0.833374 10.0002 0.833374C12.7627 0.833374 15.0002 3.07087 15.0002 5.83337C15.0002 8.59587 12.7627 10.8334 10.0002 10.8334Z" fill="url(#paint0_linear_3121_9254)"/>
</g>
<defs>
<linearGradient id="paint0_linear_3121_9254" x1="16.6668" y1="0.833373" x2="1.47288" y2="11.386" gradientUnits="userSpaceOnUse">
<stop stop-color="#158942"/>
<stop offset="1" stop-color="#00702B"/>
</linearGradient>
<clipPath id="clip0_3121_9254">
<rect width="20" height="20" fill="white"/>
</clipPath>
</defs>
</svg>
