<svg width="18" height="18" viewBox="0 0 18 18" fill="none" xmlns="http://www.w3.org/2000/svg">
<g id="videocam_FILL1_wght400_GRAD0_opsz24 1">
<path id="Vector" d="M3 15C2.5875 15 2.23438 14.8531 1.94063 14.5594C1.64687 14.2656 1.5 13.9125 1.5 13.5V4.5C1.5 4.0875 1.64687 3.73438 1.94063 3.44063C2.23438 3.14687 2.5875 3 3 3H12C12.4125 3 12.7656 3.14687 13.0594 3.44063C13.3531 3.73438 13.5 4.0875 13.5 4.5V7.875L16.5 4.875V13.125L13.5 10.125V13.5C13.5 13.9125 13.3531 14.2656 13.0594 14.5594C12.7656 14.8531 12.4125 15 12 15H3Z" fill="white"/>
</g>
</svg>
