<svg width="8" height="17" viewBox="0 0 8 17" fill="none" xmlns="http://www.w3.org/2000/svg">
<g clip-path="url(#clip0_3438_4018)">
<path d="M6.22271 8.18784L2.66261 4.6278C2.58027 4.5454 2.47035 4.5 2.35315 4.5C2.23595 4.5 2.12603 4.5454 2.04369 4.6278L1.78151 4.88992C1.61091 5.06071 1.61091 5.3383 1.78151 5.50884L4.77102 8.49834L1.77819 11.4912C1.69585 11.5736 1.65039 11.6834 1.65039 11.8006C1.65039 11.9178 1.69585 12.0277 1.77819 12.1101L2.04037 12.3722C2.12278 12.4546 2.23263 12.5 2.34983 12.5C2.46703 12.5 2.57695 12.4546 2.65929 12.3722L6.22271 8.80891C6.30525 8.72624 6.35058 8.61587 6.35032 8.49854C6.35058 8.38075 6.30525 8.27044 6.22271 8.18784Z" fill="#158942"/>
</g>
<defs>
<clipPath id="clip0_3438_4018">
<rect width="8" height="8" fill="white" transform="translate(0 4.5)"/>
</clipPath>
</defs>
</svg>
