<svg width="21" height="21" viewBox="0 0 21 21" fill="none" xmlns="http://www.w3.org/2000/svg">
<g clip-path="url(#clip0_3121_9275)">
<path d="M13.125 2.625C13.608 2.625 14 3.017 14 3.5V5.25H18.375C18.858 5.25 19.25 5.642 19.25 6.125V17.5C19.25 17.983 18.858 18.375 18.375 18.375H2.625C2.142 18.375 1.75 17.983 1.75 17.5V6.125C1.75 5.642 2.142 5.25 2.625 5.25H7V3.5C7 3.017 7.392 2.625 7.875 2.625H13.125ZM7 7H5.25V16.625H7V7ZM15.75 7H14V16.625H15.75V7ZM12.25 4.375H8.75V5.25H12.25V4.375Z" fill="url(#paint0_linear_3121_9275)"/>
</g>
<defs>
<linearGradient id="paint0_linear_3121_9275" x1="19.25" y1="2.625" x2="4.658" y2="17.4045" gradientUnits="userSpaceOnUse">
<stop stop-color="#158942"/>
<stop offset="1" stop-color="#00702B"/>
</linearGradient>
<clipPath id="clip0_3121_9275">
<rect width="21" height="21" fill="white"/>
</clipPath>
</defs>
</svg>
